ITFDevanagari-Bold.ufo
<glyph name="exclam" format="1">
  <advance width="522"/>
  <unicode hex="0021"/>
  <outline>
    <contour>
      <point x="249" y="717" type="line"/>
      <point x="184" y="746" type="line"/>
      <point x="168" y="736" type="line"/>
      <point x="197" y="305" type="line"/>
      <point x="268" y="256" type="line"/>
      <point x="286" y="256" type="line"/>
      <point x="336" y="684" type="line"/>
    </contour>
    <contour>
      <point x="251" y="196" type="line"/>
      <point x="152" y="97" type="line"/>
      <point x="255" y="0" type="line"/>
      <point x="354" y="99" type="line"/>
    </contour>
  </outline>
</glyph>
<glyph name="quotedbl" format="1">
  <advance width="597"/>
  <unicode hex="0022"/>
  <outline>
    <contour>
      <point x="218" y="758" type="line"/>
      <point x="170" y="780" type="line"/>
      <point x="157" y="773" type="line"/>
      <point x="176" y="448" type="line"/>
      <point x="232" y="408" type="line"/>
      <point x="246" y="408" type="line"/>
      <point x="285" y="733" type="line"/>
    </contour>
    <contour>
      <point x="396" y="758" type="line"/>
      <point x="348" y="780" type="line"/>
      <point x="336" y="773" type="line"/>
      <point x="355" y="448" type="line"/>
      <point x="411" y="408" type="line"/>
      <point x="425" y="408" type="line"/>
      <point x="463" y="733" type="line"/>
    </contour>
  </outline>
</glyph>
<glyph name="numbersign" format="1">
  <advance width="697"/>
  <unicode hex="0023"/>
  <outline>
    <contour>
      <point x="84" y="407" type="line"/>
      <point x="664" y="407" type="line"/>
      <point x="691" y="494" type="line"/>
      <point x="111" y="494" type="line"/>
    </contour>
    <contour>
      <point x="291" y="669" type="line"/>
      <point x="88" y="19" type="line"/>
      <point x="199" y="19" type="line"/>
      <point x="402" y="669" type="line"/>
    </contour>
    <contour>
      <point x="624" y="279" type="line"/>
      <point x="44" y="279" type="line"/>
      <point x="18" y="192" type="line"/>
      <point x="598" y="192" type="line"/>
    </contour>
    <contour>
      <point x="438" y="19" type="line"/>
      <point x="641" y="669" type="line"/>
      <point x="530" y="669" type="line"/>
      <point x="327" y="19" type="line"/>
    </contour>
  </outline>
</glyph>
<glyph name="percent" format="1">
  <advance width="875"/>
  <unicode hex="0025"/>
  <outline>
    <contour>
      <point x="177" y="18" type="line"/>
      <point x="278" y="18" type="line"/>
      <point x="734" y="669" type="line"/>
      <point x="639" y="669" type="line"/>
    </contour>
    <contour>
      <point x="200" y="537" type="curve" smooth="yes"/>
      <point x="200" y="475"/>
      <point x="235" y="387"/>
      <point x="272" y="387" type="curve" smooth="yes"/>
      <point x="298" y="387"/>
      <point x="308" y="413"/>
      <point x="308" y="447" type="curve" smooth="yes"/>
      <point x="308" y="509"/>
      <point x="273" y="598"/>
      <point x="236" y="598" type="curve" smooth="yes"/>
      <point x="210" y="598"/>
      <point x="200" y="571"/>
    </contour>
    <contour>
      <point x="108" y="481" type="curve" smooth="yes"/>
      <point x="108" y="572"/>
      <point x="167" y="668"/>
      <point x="267" y="668" type="curve" smooth="yes"/>
      <point x="355" y="668"/>
      <point x="406" y="590"/>
      <point x="406" y="507" type="curve" smooth="yes"/>
      <point x="406" y="411"/>
      <point x="341" y="319"/>
      <point x="242" y="319" type="curve" smooth="yes"/>
      <point x="156" y="319"/>
      <point x="108" y="395"/>
    </contour>
    <contour>
      <point x="596" y="228" type="curve" smooth="yes"/>
      <point x="596" y="166"/>
      <point x="631" y="78"/>
      <point x="668" y="78" type="curve" smooth="yes"/>
      <point x="694" y="78"/>
      <point x="704" y="104"/>
      <point x="704" y="138" type="curve" smooth="yes"/>
      <point x="704" y="200"/>
      <point x="669" y="289"/>
      <point x="632" y="289" type="curve" smooth="yes"/>
      <point x="606" y="289"/>
      <point x="596" y="262"/>
    </contour>
    <contour>
      <point x="504" y="172" type="curve" smooth="yes"/>
      <point x="504" y="263"/>
      <point x="563" y="359"/>
      <point x="663" y="359" type="curve" smooth="yes"/>
      <point x="751" y="359"/>
      <point x="802" y="281"/>
      <point x="802" y="198" type="curve" smooth="yes"/>
      <point x="802" y="102"/>
      <point x="737" y="10"/>
      <point x="638" y="10" type="curve" smooth="yes"/>
      <point x="552" y="10"/>
      <point x="504" y="86"/>
    </contour>
  </outline>
</glyph>
<glyph name="quotesingle" format="1">
  <advance width="432"/>
  <unicode hex="0027"/>
  <outline>
    <contour>
      <point x="213" y="763" type="line"/>
      <point x="169" y="784" type="line"/>
      <point x="157" y="777" type="line"/>
      <point x="175" y="477" type="line"/>
      <point x="227" y="440" type="line"/>
      <point x="240" y="440" type="line"/>
      <point x="275" y="741" type="line"/>
    </contour>
  </outline>
</glyph>
<glyph name="parenleft" format="1">
  <advance width="401"/>
  <unicode hex="0028"/>
  <outline>
    <contour>
      <point x="180" y="361" type="curve" smooth="yes"/>
      <point x="180" y="609"/>
      <point x="284" y="761"/>
      <point x="371" y="858" type="curve"/>
      <point x="315" y="902" type="line"/>
      <point x="227" y="819"/>
      <point x="60" y="647"/>
      <point x="60" y="361" type="curve" smooth="yes"/>
      <point x="60" y="75"/>
      <point x="227" y="-97"/>
      <point x="315" y="-180" type="curve"/>
      <point x="371" y="-136" type="line"/>
      <point x="284" y="-39"/>
      <point x="180" y="113"/>
    </contour>
  </outline>
</glyph>
<glyph name="parenright" format="1">
  <advance width="401"/>
  <unicode hex="0029"/>
  <outline>
    <contour>
      <point x="221" y="361" type="curve"/>
      <point x="221" y="609"/>
      <point x="117" y="761"/>
      <point x="30" y="858" type="curve"/>
      <point x="86" y="902" type="line"/>
      <point x="174" y="819"/>
      <point x="341" y="647"/>
      <point x="341" y="361" type="curve"/>
      <point x="341" y="75"/>
      <point x="174" y="-97"/>
      <point x="86" y="-180" type="curve"/>
      <point x="30" y="-136" type="line"/>
      <point x="117" y="-39"/>
      <point x="221" y="113"/>
    </contour>
  </outline>
</glyph>
<glyph name="asterisk" format="1">
  <advance width="644"/>
  <unicode hex="002A"/>
  <outline>
    <contour>
      <point x="263" y="760" type="curve"/>
      <point x="263" y="774" type="line"/>
      <point x="390" y="774" type="line"/>
      <point x="390" y="760" type="line" smooth="yes"/>
      <point x="390" y="696"/>
      <point x="372" y="645"/>
      <point x="353" y="613" type="curve"/>
      <point x="379" y="638"/>
      <point x="421" y="672"/>
      <point x="482" y="691" type="curve" smooth="yes"/>
      <point x="495" y="695" type="line"/>
      <point x="534" y="575" type="line"/>
      <point x="521" y="571" type="line" smooth="yes"/>
      <point x="485" y="559"/>
      <point x="451" y="555"/>
      <point x="422" y="555" type="curve" smooth="yes"/>
      <point x="402" y="555"/>
      <point x="384" y="557"/>
      <point x="369" y="560" type="curve"/>
      <point x="402" y="544"/>
      <point x="446" y="514"/>
      <point x="484" y="462" type="curve" smooth="yes"/>
      <point x="492" y="450" type="line"/>
      <point x="390" y="376" type="line"/>
      <point x="382" y="387" type="line" smooth="yes"/>
      <point x="343" y="439"/>
      <point x="328" y="491"/>
      <point x="324" y="529" type="curve"/>
      <point x="319" y="492"/>
      <point x="304" y="441"/>
      <point x="267" y="389" type="curve" smooth="yes"/>
      <point x="258" y="378" type="line"/>
      <point x="156" y="452" type="line"/>
      <point x="164" y="463" type="line" smooth="yes"/>
      <point x="201" y="515"/>
      <point x="245" y="545"/>
      <point x="279" y="561" type="curve"/>
      <point x="265" y="558"/>
      <point x="248" y="556"/>
      <point x="229" y="556" type="curve" smooth="yes"/>
      <point x="201" y="558"/>
      <point x="166" y="559"/>
      <point x="130" y="573" type="curve" smooth="yes"/>
      <point x="117" y="578" type="line"/>
      <point x="156" y="698" type="line"/>
      <point x="169" y="694" type="line" smooth="yes"/>
      <point x="229" y="675"/>
      <point x="271" y="640"/>
      <point x="297" y="614" type="curve"/>
      <point x="279" y="647"/>
      <point x="263" y="696"/>
    </contour>
  </outline>
</glyph>
<glyph name="plus" format="1">
  <advance width="620"/>
  <unicode hex="002B"/>
  <outline>
    <contour>
      <point x="366" y="531" type="line"/>
      <point x="366" y="448"/>
      <point x="364" y="396"/>
      <point x="364" y="396" type="curve"/>
      <point x="364" y="396"/>
      <point x="416" y="398"/>
      <point x="503" y="398" type="curve"/>
      <point x="549" y="337" type="line"/>
      <point x="576" y="306" type="line"/>
      <point x="576" y="290" type="line"/>
      <point x="448" y="290"/>
      <point x="364" y="292"/>
      <point x="364" y="292" type="curve"/>
      <point x="364" y="292"/>
      <point x="366" y="209"/>
      <point x="366" y="84" type="curve"/>
      <point x="350" y="84" type="line"/>
      <point x="319" y="111" type="line"/>
      <point x="254" y="157" type="line"/>
      <point x="254" y="244"/>
      <point x="256" y="292"/>
      <point x="256" y="292" type="curve"/>
      <point x="256" y="292"/>
      <point x="206" y="290"/>
      <point x="117" y="290" type="curve"/>
      <point x="71" y="351" type="line"/>
      <point x="44" y="382" type="line"/>
      <point x="44" y="398" type="line"/>
      <point x="156" y="398"/>
      <point x="256" y="396"/>
      <point x="256" y="396" type="curve"/>
      <point x="256" y="396"/>
      <point x="254" y="480"/>
      <point x="254" y="604" type="curve"/>
      <point x="270" y="604" type="line"/>
      <point x="301" y="577" type="line"/>
    </contour>
  </outline>
</glyph>
<glyph name="comma" format="1">
  <advance width="271"/>
  <unicode hex="002C"/>
  <outline>
    <contour>
      <point x="68" y="-183" type="line"/>
      <point x="179" y="-66"/>
      <point x="236" y="9"/>
      <point x="236" y="66" type="curve" smooth="yes"/>
      <point x="236" y="96"/>
      <point x="215" y="121"/>
      <point x="185" y="145" type="curve" smooth="yes"/>
      <point x="145" y="177" type="line"/>
      <point x="53" y="76" type="line"/>
      <point x="93" y="44" type="line" smooth="yes"/>
      <point x="112" y="29"/>
      <point x="117" y="20"/>
      <point x="117" y="5" type="curve" smooth="yes"/>
      <point x="117" y="-24"/>
      <point x="89" y="-74"/>
      <point x="9" y="-151" type="curve"/>
    </contour>
  </outline>
</glyph>
<glyph name="hyphen" format="1">
  <advance width="390"/>
  <unicode hex="002D"/>
  <outline>
    <contour>
      <point x="390" y="295" type="line"/>
      <point x="390" y="311" type="line"/>
      <point x="363" y="342" type="line"/>
      <point x="317" y="407" type="line"/>
      <point x="0" y="407" type="line"/>
      <point x="0" y="391" type="line"/>
      <point x="27" y="360" type="line"/>
      <point x="73" y="295" type="line"/>
    </contour>
  </outline>
</glyph>
<glyph name="period" format="1">
  <advance width="304"/>
  <unicode hex="002E"/>
  <outline>
    <contour>
      <point x="161" y="194" type="line"/>
      <point x="57" y="90" type="line"/>
      <point x="161" y="-16" type="line"/>
      <point x="265" y="88" type="line"/>
    </contour>
  </outline>
</glyph>
<glyph name="slash" format="1">
  <advance width="511"/>
  <unicode hex="002F"/>
  <outline>
    <contour>
      <point x="102" y="-120" type="line"/>
      <point x="447" y="869" type="line"/>
      <point x="358" y="869" type="line"/>
      <point x="12" y="-120" type="line"/>
    </contour>
  </outline>
</glyph>
<glyph name="zero" format="1">
  <advance width="525"/>
  <unicode hex="0030"/>
  <outline>
    <contour>
      <point x="277" y="105" type="curve" smooth="yes"/>
      <point x="209" y="105"/>
      <point x="175" y="198"/>
      <point x="175" y="372" type="curve" smooth="yes"/>
      <point x="175" y="527"/>
      <point x="195" y="598"/>
      <point x="247" y="598" type="curve" smooth="yes"/>
      <point x="312" y="598"/>
      <point x="345" y="495"/>
      <point x="345" y="336" type="curve" smooth="yes"/>
      <point x="345" y="172"/>
      <point x="326" y="105"/>
    </contour>
    <contour>
      <point x="261" y="32" type="curve" smooth="yes"/>
      <point x="418" y="32"/>
      <point x="490" y="198"/>
      <point x="490" y="360" type="curve" smooth="yes"/>
      <point x="490" y="496"/>
      <point x="473" y="675"/>
      <point x="265" y="675" type="curve" smooth="yes"/>
      <point x="97" y="675"/>
      <point x="35" y="489"/>
      <point x="35" y="343" type="curve" smooth="yes"/>
      <point x="35" y="185"/>
      <point x="65" y="32"/>
    </contour>
  </outline>
</glyph>
<glyph name="one" format="1">
  <advance width="369"/>
  <unicode hex="0031"/>
  <outline>
    <contour>
      <point x="164" y="489" type="curve" smooth="yes"/>
      <point x="164" y="421"/>
      <point x="165" y="357"/>
      <point x="165" y="299" type="curve" smooth="yes"/>
      <point x="165" y="141"/>
      <point x="160" y="35"/>
      <point x="160" y="35" type="curve"/>
      <point x="192" y="35" type="line"/>
      <point x="231" y="54" type="line"/>
      <point x="305" y="80" type="line"/>
      <point x="305" y="80"/>
      <point x="295" y="223"/>
      <point x="295" y="412" type="curve"/>
      <point x="295" y="490"/>
      <point x="297" y="576"/>
      <point x="302" y="662" type="curve"/>
      <point x="262" y="677" type="line"/>
      <point x="232" y="658"/>
      <point x="67" y="616"/>
      <point x="24" y="615" type="curve"/>
      <point x="28" y="564" type="line"/>
      <point x="54" y="564" type="line" smooth="yes"/>
      <point x="156" y="564"/>
      <point x="164" y="554"/>
    </contour>
  </outline>
</glyph>
<glyph name="two" format="1">
  <advance width="444"/>
  <unicode hex="0032"/>
  <outline>
    <contour>
      <point x="429" y="169" type="line"/>
      <point x="150" y="144" type="line"/>
      <point x="246" y="222"/>
      <point x="396" y="367"/>
      <point x="396" y="500" type="curve" smooth="yes"/>
      <point x="396" y="616"/>
      <point x="318" y="672"/>
      <point x="225" y="672" type="curve" smooth="yes"/>
      <point x="136" y="672"/>
      <point x="63" y="631"/>
      <point x="18" y="578" type="curve"/>
      <point x="41" y="540" type="line"/>
      <point x="67" y="553"/>
      <point x="115" y="569"/>
      <point x="147" y="569" type="curve" smooth="yes"/>
      <point x="204" y="569"/>
      <point x="252" y="549"/>
      <point x="252" y="477" type="curve" smooth="yes"/>
      <point x="252" y="347"/>
      <point x="128" y="215"/>
      <point x="6" y="85" type="curve"/>
      <point x="27" y="37" type="line"/>
      <point x="394" y="37" type="line"/>
      <point x="409" y="95" type="line"/>
      <point x="429" y="146" type="line"/>
    </contour>
  </outline>
</glyph>
<glyph name="three" format="1">
  <advance width="417"/>
  <unicode hex="0033"/>
  <outline>
    <contour>
      <point x="397" y="249" type="curve" smooth="yes"/>
      <point x="397" y="338"/>
      <point x="323" y="378"/>
      <point x="239" y="384" type="curve"/>
      <point x="309" y="409"/>
      <point x="372" y="465"/>
      <point x="372" y="534" type="curve" smooth="yes"/>
      <point x="372" y="621"/>
      <point x="301" y="674"/>
      <point x="191" y="674" type="curve" smooth="yes"/>
      <point x="107" y="674"/>
      <point x="36" y="626"/>
      <point x="3" y="588" type="curve"/>
      <point x="32" y="549" type="line"/>
      <point x="62" y="567"/>
      <point x="104" y="579"/>
      <point x="142" y="579" type="curve" smooth="yes"/>
      <point x="191" y="579"/>
      <point x="229" y="556"/>
      <point x="229" y="506" type="curve" smooth="yes"/>
      <point x="229" y="439"/>
      <point x="171" y="395"/>
      <point x="90" y="376" type="curve"/>
      <point x="104" y="326" type="line"/>
      <point x="213" y="324"/>
      <point x="281" y="278"/>
      <point x="281" y="206" type="curve" smooth="yes"/>
      <point x="281" y="168"/>
      <point x="256" y="139"/>
      <point x="202" y="139" type="curve" smooth="yes"/>
      <point x="142" y="139"/>
      <point x="88" y="163"/>
      <point x="63" y="180" type="curve"/>
      <point x="5" y="64" type="line"/>
      <point x="32" y="47"/>
      <point x="70" y="36"/>
      <point x="122" y="36" type="curve" smooth="yes"/>
      <point x="290" y="36"/>
      <point x="397" y="161"/>
    </contour>
  </outline>
</glyph>
<glyph name="four" format="1">
  <advance width="593"/>
  <unicode hex="0034"/>
  <outline>
    <contour>
      <point x="566" y="267" type="line"/>
      <point x="566" y="285" type="line"/>
      <point x="460" y="285" type="line"/>
      <point x="460" y="669" type="line"/>
      <point x="428" y="669" type="line"/>
      <point x="306" y="646" type="line"/>
      <point x="66" y="286" type="line"/>
      <point x="53" y="181" type="line"/>
      <point x="329" y="181" type="line"/>
      <point x="329" y="24" type="line"/>
      <point x="357" y="24" type="line"/>
      <point x="397" y="43" type="line"/>
      <point x="460" y="67" type="line"/>
      <point x="460" y="181" type="line"/>
      <point x="521" y="181" type="line"/>
      <point x="543" y="226" type="line"/>
    </contour>
    <contour>
      <point x="329" y="574" type="line"/>
      <point x="329" y="285" type="line"/>
      <point x="137" y="285" type="line"/>
    </contour>
  </outline>
</glyph>
<glyph name="five" format="1">
  <advance width="426"/>
  <unicode hex="0035"/>
  <outline>
    <contour>
      <point x="360" y="545" type="line"/>
      <point x="386" y="606" type="line"/>
      <point x="412" y="652" type="line"/>
      <point x="412" y="669" type="line"/>
      <point x="67" y="669" type="line"/>
      <point x="55" y="562"/>
      <point x="39" y="446"/>
      <point x="39" y="418" type="curve" smooth="yes"/>
      <point x="39" y="379"/>
      <point x="45" y="346"/>
      <point x="110" y="324" type="curve" smooth="yes"/>
      <point x="222" y="285" type="line" smooth="yes"/>
      <point x="281" y="264"/>
      <point x="312" y="238"/>
      <point x="312" y="198" type="curve" smooth="yes"/>
      <point x="312" y="171"/>
      <point x="289" y="147"/>
      <point x="231" y="147" type="curve" smooth="yes"/>
      <point x="143" y="147"/>
      <point x="83" y="179"/>
      <point x="53" y="198" type="curve"/>
      <point x="0" y="69" type="line"/>
      <point x="36" y="49"/>
      <point x="102" y="35"/>
      <point x="151" y="35" type="curve" smooth="yes"/>
      <point x="308" y="35"/>
      <point x="416" y="147"/>
      <point x="416" y="262" type="curve" smooth="yes"/>
      <point x="416" y="321"/>
      <point x="385" y="383"/>
      <point x="265" y="411" type="curve" smooth="yes"/>
      <point x="163" y="435" type="line" smooth="yes"/>
      <point x="138" y="441"/>
      <point x="127" y="449"/>
      <point x="125" y="475" type="curve" smooth="yes"/>
      <point x="125" y="563" type="line"/>
    </contour>
  </outline>
</glyph>
<glyph name="six" format="1">
  <advance width="496"/>
  <unicode hex="0036"/>
  <outline>
    <contour>
      <point x="254" y="32" type="curve" smooth="yes"/>
      <point x="372" y="32"/>
      <point x="477" y="122"/>
      <point x="477" y="265" type="curve" smooth="yes"/>
      <point x="477" y="372"/>
      <point x="414" y="443"/>
      <point x="300" y="443" type="curve" smooth="yes"/>
      <point x="230" y="443"/>
      <point x="182" y="411"/>
      <point x="165" y="395" type="curve"/>
      <point x="163" y="332" type="line"/>
      <point x="163" y="333"/>
      <point x="200" y="354"/>
      <point x="241" y="354" type="curve" smooth="yes"/>
      <point x="308" y="354"/>
      <point x="344" y="293"/>
      <point x="344" y="203" type="curve" smooth="yes"/>
      <point x="344" y="135"/>
      <point x="316" y="105"/>
      <point x="284" y="105" type="curve" smooth="yes"/>
      <point x="237" y="105"/>
      <point x="180" y="182"/>
      <point x="180" y="359" type="curve" smooth="yes"/>
      <point x="180" y="532"/>
      <point x="218" y="554"/>
      <point x="308" y="554" type="curve" smooth="yes"/>
      <point x="378" y="554"/>
      <point x="424" y="527"/>
      <point x="424" y="527" type="curve"/>
      <point x="462" y="660" type="line"/>
      <point x="442" y="666"/>
      <point x="412" y="672"/>
      <point x="378" y="672" type="curve" smooth="yes"/>
      <point x="188" y="672"/>
      <point x="45" y="509"/>
      <point x="45" y="296" type="curve" smooth="yes"/>
      <point x="45" y="140"/>
      <point x="114" y="32"/>
    </contour>
  </outline>
</glyph>
<glyph name="seven" format="1">
  <advance width="414"/>
  <unicode hex="0037"/>
  <outline>
    <contour>
      <point x="387" y="669" type="line"/>
      <point x="54" y="669" type="line"/>
      <point x="31" y="609" type="line"/>
      <point x="5" y="554" type="line"/>
      <point x="11" y="542" type="line"/>
      <point x="321" y="564" type="line"/>
      <point x="210" y="313"/>
      <point x="54" y="42"/>
      <point x="54" y="42" type="curve"/>
      <point x="62" y="35" type="line"/>
      <point x="202" y="52" type="line"/>
      <point x="284" y="273"/>
      <point x="354" y="448"/>
      <point x="433" y="614" type="curve"/>
    </contour>
  </outline>
</glyph>
<glyph name="eight" format="1">
  <advance width="565"/>
  <unicode hex="0038"/>
  <outline>
    <contour>
      <point x="202" y="347" type="line"/>
      <point x="139" y="319"/>
      <point x="71" y="272"/>
      <point x="71" y="197" type="curve" smooth="yes"/>
      <point x="71" y="89"/>
      <point x="166" y="32"/>
      <point x="281" y="32" type="curve" smooth="yes"/>
      <point x="399" y="32"/>
      <point x="523" y="89"/>
      <point x="523" y="221" type="curve" smooth="yes"/>
      <point x="523" y="291"/>
      <point x="470" y="338"/>
      <point x="370" y="395" type="curve" smooth="yes"/>
      <point x="268" y="455"/>
      <point x="220" y="484"/>
      <point x="220" y="544" type="curve" smooth="yes"/>
      <point x="220" y="579"/>
      <point x="247" y="604"/>
      <point x="287" y="604" type="curve" smooth="yes"/>
      <point x="347" y="604"/>
      <point x="379" y="564"/>
      <point x="379" y="513" type="curve" smooth="yes"/>
      <point x="379" y="472"/>
      <point x="361" y="431"/>
      <point x="324" y="406" type="curve"/>
      <point x="385" y="365" type="line"/>
      <point x="465" y="405"/>
      <point x="517" y="456"/>
      <point x="517" y="525" type="curve" smooth="yes"/>
      <point x="517" y="624"/>
      <point x="417" y="675"/>
      <point x="321" y="675" type="curve" smooth="yes"/>
      <point x="213" y="675"/>
      <point x="88" y="608"/>
      <point x="88" y="495" type="curve" smooth="yes"/>
      <point x="88" y="421"/>
      <point x="143" y="382"/>
      <point x="196" y="347" type="curve" smooth="yes"/>
      <point x="312" y="270"/>
      <point x="396" y="250"/>
      <point x="396" y="172" type="curve" smooth="yes"/>
      <point x="396" y="133"/>
      <point x="363" y="102"/>
      <point x="314" y="102" type="curve" smooth="yes"/>
      <point x="248" y="102"/>
      <point x="207" y="138"/>
      <point x="207" y="208" type="curve" smooth="yes"/>
      <point x="207" y="246"/>
      <point x="227" y="285"/>
      <point x="270" y="323" type="curve"/>
    </contour>
  </outline>
</glyph>
<glyph name="nine" format="1">
  <advance width="477"/>
  <unicode hex="0039"/>
  <outline>
    <contour>
      <point x="12" y="443" type="curve" smooth="yes"/>
      <point x="12" y="333"/>
      <point x="75" y="262"/>
      <point x="189" y="262" type="curve" smooth="yes"/>
      <point x="262" y="262"/>
      <point x="312" y="296"/>
      <point x="329" y="314" type="curve"/>
      <point x="329" y="377" type="line"/>
      <point x="329" y="377"/>
      <point x="293" y="354"/>
      <point x="252" y="354" type="curve" smooth="yes"/>
      <point x="186" y="354"/>
      <point x="145" y="410"/>
      <point x="145" y="501" type="curve" smooth="yes"/>
      <point x="145" y="568"/>
      <point x="170" y="600"/>
      <point x="202" y="600" type="curve" smooth="yes"/>
      <point x="251" y="600"/>
      <point x="313" y="521"/>
      <point x="313" y="324" type="curve" smooth="yes"/>
      <point x="313" y="174"/>
      <point x="275" y="154"/>
      <point x="191" y="154" type="curve" smooth="yes"/>
      <point x="120" y="154"/>
      <point x="74" y="178"/>
      <point x="74" y="178" type="curve"/>
      <point x="39" y="44" type="line"/>
      <point x="57" y="38"/>
      <point x="84" y="35"/>
      <point x="115" y="35" type="curve" smooth="yes"/>
      <point x="301" y="35"/>
      <point x="447" y="192"/>
      <point x="447" y="399" type="curve" smooth="yes"/>
      <point x="447" y="563"/>
      <point x="377" y="675"/>
      <point x="236" y="675" type="curve" smooth="yes"/>
      <point x="118" y="675"/>
      <point x="12" y="584"/>
    </contour>
  </outline>
</glyph>
<glyph name="colon" format="1">
  <advance width="341"/>
  <unicode hex="003A"/>
  <outline>
    <contour>
      <point x="172" y="527" type="line"/>
      <point x="68" y="423" type="line"/>
      <point x="172" y="317" type="line"/>
      <point x="276" y="421" type="line"/>
    </contour>
    <contour>
      <point x="172" y="179" type="line"/>
      <point x="68" y="75" type="line"/>
      <point x="172" y="-31" type="line"/>
      <point x="276" y="73" type="line"/>
    </contour>
  </outline>
</glyph>
<glyph name="semicolon" format="1">
  <advance width="371"/>
  <unicode hex="003B"/>
  <outline>
    <contour>
      <point x="171" y="527" type="line"/>
      <point x="67" y="423" type="line"/>
      <point x="171" y="317" type="line"/>
      <point x="275" y="421" type="line"/>
    </contour>
    <contour>
      <point x="100" y="-183" type="line"/>
      <point x="211" y="-66"/>
      <point x="268" y="9"/>
      <point x="268" y="66" type="curve" smooth="yes"/>
      <point x="268" y="96"/>
      <point x="247" y="121"/>
      <point x="217" y="145" type="curve" smooth="yes"/>
      <point x="177" y="177" type="line"/>
      <point x="85" y="76" type="line"/>
      <point x="125" y="44" type="line" smooth="yes"/>
      <point x="144" y="29"/>
      <point x="149" y="20"/>
      <point x="149" y="5" type="curve" smooth="yes"/>
      <point x="149" y="-24"/>
      <point x="121" y="-74"/>
      <point x="41" y="-151" type="curve"/>
    </contour>
  </outline>
</glyph>
<glyph name="less" format="1">
  <advance width="640"/>
  <unicode hex="003C"/>
  <outline>
    <contour>
      <point x="204" y="337" type="line"/>
      <point x="579" y="500" type="line"/>
      <point x="490" y="614" type="line"/>
      <point x="60" y="417" type="line"/>
      <point x="137" y="284" type="line"/>
      <point x="521" y="115" type="line"/>
      <point x="554" y="180" type="line"/>
      <point x="204" y="333" type="line"/>
    </contour>
  </outline>
</glyph>
<glyph name="equal" format="1">
  <advance width="640"/>
  <unicode hex="003D"/>
  <outline>
    <contour>
      <point x="586" y="404" type="line"/>
      <point x="586" y="420" type="line"/>
      <point x="559" y="451" type="line"/>
      <point x="513" y="516" type="line"/>
      <point x="54" y="516" type="line"/>
      <point x="54" y="500" type="line"/>
      <point x="81" y="469" type="line"/>
      <point x="127" y="404" type="line"/>
    </contour>
    <contour>
      <point x="586" y="171" type="line"/>
      <point x="586" y="187" type="line"/>
      <point x="559" y="218" type="line"/>
      <point x="513" y="283" type="line"/>
      <point x="54" y="283" type="line"/>
      <point x="54" y="267" type="line"/>
      <point x="81" y="236" type="line"/>
      <point x="127" y="171" type="line"/>
    </contour>
  </outline>
</glyph>
<glyph name="greater" format="1">
  <advance width="640"/>
  <unicode hex="003E"/>
  <outline>
    <contour>
      <point x="435" y="378" type="line"/>
      <point x="60" y="215" type="line"/>
      <point x="149" y="101" type="line"/>
      <point x="579" y="298" type="line"/>
      <point x="502" y="431" type="line"/>
      <point x="118" y="600" type="line"/>
      <point x="85" y="535" type="line"/>
      <point x="435" y="382" type="line"/>
    </contour>
  </outline>
</glyph>
<glyph name="question" format="1">
  <advance width="626"/>
  <unicode hex="003F"/>
  <outline>
    <contour>
      <point x="315" y="256" type="line"/>
      <point x="312" y="265"/>
      <point x="308" y="279"/>
      <point x="308" y="292" type="curve" smooth="yes"/>
      <point x="308" y="369"/>
      <point x="495" y="421"/>
      <point x="495" y="533" type="curve" smooth="yes"/>
      <point x="495" y="646"/>
      <point x="371" y="741"/>
      <point x="258" y="741" type="curve" smooth="yes"/>
      <point x="201" y="741"/>
      <point x="147" y="727"/>
      <point x="101" y="696" type="curve"/>
      <point x="196" y="578" type="line"/>
      <point x="238" y="611"/>
      <point x="292" y="631"/>
      <point x="340" y="631" type="curve" smooth="yes"/>
      <point x="379" y="631"/>
      <point x="397" y="613"/>
      <point x="397" y="588" type="curve" smooth="yes"/>
      <point x="397" y="528"/>
      <point x="211" y="459"/>
      <point x="211" y="359" type="curve" smooth="yes"/>
      <point x="211" y="315"/>
      <point x="233" y="279"/>
      <point x="281" y="245" type="curve"/>
    </contour>
    <contour>
      <point x="295" y="194" type="line"/>
      <point x="196" y="95" type="line"/>
      <point x="299" y="-2" type="line"/>
      <point x="398" y="97" type="line"/>
    </contour>
  </outline>
</glyph>
<glyph name="bracketleft" format="1">
  <advance width="377"/>
  <unicode hex="005B"/>
  <outline>
    <contour>
      <point x="135" y="789" type="line"/>
      <point x="135" y="-63" type="line"/>
      <point x="278" y="-63" type="line"/>
      <point x="342" y="-150" type="line"/>
      <point x="96" y="-150" type="line"/>
      <point x="33" y="-75" type="line"/>
      <point x="33" y="876" type="line"/>
      <point x="278" y="876" type="line"/>
      <point x="342" y="789" type="line"/>
    </contour>
  </outline>
</glyph>
<glyph name="backslash" format="1">
  <advance width="511"/>
  <unicode hex="005C"/>
  <outline>
    <contour>
      <point x="376" y="-120" type="line"/>
      <point x="31" y="869" type="line"/>
      <point x="120" y="869" type="line"/>
      <point x="466" y="-120" type="line"/>
    </contour>
  </outline>
</glyph>
<glyph name="bracketright" format="1">
  <advance width="452"/>
  <unicode hex="005D"/>
  <outline>
    <contour>
      <point x="290" y="-63" type="line"/>
      <point x="290" y="789" type="line"/>
      <point x="147" y="789" type="line"/>
      <point x="83" y="876" type="line"/>
      <point x="329" y="876" type="line"/>
      <point x="392" y="801" type="line"/>
      <point x="392" y="-150" type="line"/>
      <point x="147" y="-150" type="line"/>
      <point x="83" y="-63" type="line"/>
    </contour>
  </outline>
</glyph>
<glyph name="underscore" format="1">
  <advance width="516"/>
  <unicode hex="005F"/>
  <outline>
    <contour>
      <point x="516" y="-55" type="line"/>
      <point x="0" y="-55" type="line"/>
      <point x="0" y="-167" type="line"/>
      <point x="516" y="-167" type="line"/>
    </contour>
  </outline>
</glyph>
<glyph name="braceleft" format="1">
  <advance width="490"/>
  <unicode hex="007B"/>
  <outline>
    <contour>
      <point x="289" y="-177" type="line"/>
      <point x="238" y="-151"/>
      <point x="166" y="-103"/>
      <point x="166" y="37" type="curve" smooth="yes"/>
      <point x="166" y="85"/>
      <point x="191" y="166"/>
      <point x="191" y="228" type="curve" smooth="yes"/>
      <point x="191" y="330"/>
      <point x="117" y="352"/>
      <point x="100" y="357" type="curve"/>
      <point x="100" y="365" type="line"/>
      <point x="117" y="370"/>
      <point x="191" y="392"/>
      <point x="191" y="494" type="curve" smooth="yes"/>
      <point x="191" y="556"/>
      <point x="166" y="637"/>
      <point x="166" y="685" type="curve" smooth="yes"/>
      <point x="166" y="825"/>
      <point x="238" y="873"/>
      <point x="289" y="899" type="curve"/>
      <point x="330" y="854" type="line"/>
      <point x="300" y="828"/>
      <point x="278" y="792"/>
      <point x="278" y="716" type="curve" smooth="yes"/>
      <point x="278" y="663"/>
      <point x="301" y="563"/>
      <point x="301" y="508" type="curve" smooth="yes"/>
      <point x="301" y="392"/>
      <point x="203" y="361"/>
      <point x="203" y="361" type="curve"/>
      <point x="203" y="361"/>
      <point x="301" y="330"/>
      <point x="301" y="214" type="curve" smooth="yes"/>
      <point x="301" y="159"/>
      <point x="278" y="59"/>
      <point x="278" y="6" type="curve" smooth="yes"/>
      <point x="278" y="-70"/>
      <point x="300" y="-106"/>
      <point x="330" y="-132" type="curve"/>
    </contour>
  </outline>
</glyph>
<glyph name="bar" format="1">
  <advance width="338"/>
  <unicode hex="007C"/>
  <outline>
    <contour>
      <point x="126" y="929" type="line"/>
      <point x="126" y="-240" type="line"/>
      <point x="203" y="-240" type="line"/>
      <point x="203" y="929" type="line"/>
    </contour>
  </outline>
</glyph>
<glyph name="braceright" format="1">
  <advance width="490"/>
  <unicode hex="007D"/>
  <outline>
    <contour>
      <point x="201" y="-177" type="line"/>
      <point x="252" y="-151"/>
      <point x="324" y="-103"/>
      <point x="324" y="37" type="curve" smooth="yes"/>
      <point x="324" y="85"/>
      <point x="299" y="166"/>
      <point x="299" y="228" type="curve" smooth="yes"/>
      <point x="299" y="330"/>
      <point x="373" y="352"/>
      <point x="390" y="357" type="curve"/>
      <point x="390" y="365" type="line"/>
      <point x="373" y="370"/>
      <point x="299" y="392"/>
      <point x="299" y="494" type="curve" smooth="yes"/>
      <point x="299" y="556"/>
      <point x="324" y="637"/>
      <point x="324" y="685" type="curve" smooth="yes"/>
      <point x="324" y="825"/>
      <point x="252" y="873"/>
      <point x="201" y="899" type="curve"/>
      <point x="160" y="854" type="line"/>
      <point x="190" y="828"/>
      <point x="212" y="792"/>
      <point x="212" y="716" type="curve" smooth="yes"/>
      <point x="212" y="663"/>
      <point x="189" y="563"/>
      <point x="189" y="508" type="curve" smooth="yes"/>
      <point x="189" y="392"/>
      <point x="287" y="361"/>
      <point x="287" y="361" type="curve"/>
      <point x="287" y="361"/>
      <point x="189" y="330"/>
      <point x="189" y="214" type="curve" smooth="yes"/>
      <point x="189" y="159"/>
      <point x="212" y="59"/>
      <point x="212" y="6" type="curve" smooth="yes"/>
      <point x="212" y="-70"/>
      <point x="190" y="-106"/>
      <point x="160" y="-132" type="curve"/>
    </contour>
  </outline>
</glyph>
<glyph name="asciitilde" format="1">
  <advance width="570"/>
  <unicode hex="007E"/>
  <outline>
    <contour>
      <point x="82" y="286" type="line"/>
      <point x="97" y="301"/>
      <point x="119" y="317"/>
      <point x="162" y="317" type="curve" smooth="yes"/>
      <point x="243" y="317"/>
      <point x="292" y="259"/>
      <point x="389" y="259" type="curve" smooth="yes"/>
      <point x="460" y="259"/>
      <point x="500" y="321"/>
      <point x="524" y="367" type="curve"/>
      <point x="487" y="400" type="line"/>
      <point x="464" y="377"/>
      <point x="446" y="369"/>
      <point x="416" y="369" type="curve" smooth="yes"/>
      <point x="330" y="369"/>
      <point x="273" y="428"/>
      <point x="192" y="428" type="curve" smooth="yes"/>
      <point x="141" y="428"/>
      <point x="91" y="401"/>
      <point x="45" y="317" type="curve"/>
    </contour>
  </outline>
</glyph>
<glyph name="guillemotleft" format="1">
  <advance width="619"/>
  <unicode hex="00AB"/>
  <outline>
    <contour>
      <point x="200" y="335" type="line"/>
      <point x="285" y="550" type="line"/>
      <point x="239" y="565" type="line"/>
      <point x="73" y="336" type="line"/>
      <point x="239" y="105" type="line"/>
      <point x="285" y="120" type="line"/>
    </contour>
    <contour>
      <point x="400" y="335" type="line"/>
      <point x="485" y="550" type="line"/>
      <point x="439" y="565" type="line"/>
      <point x="273" y="336" type="line"/>
      <point x="439" y="105" type="line"/>
      <point x="485" y="120" type="line"/>
    </contour>
  </outline>
</glyph>
<glyph name="registered" format="1">
  <advance width="484"/>
  <unicode hex="00AE"/>
  <outline>
    <contour>
      <point x="241" y="328" type="curve" smooth="yes"/>
      <point x="155" y="328"/>
      <point x="81" y="382"/>
      <point x="81" y="492" type="curve" smooth="yes"/>
      <point x="81" y="605"/>
      <point x="158" y="657"/>
      <point x="242" y="657" type="curve" smooth="yes"/>
      <point x="325" y="657"/>
      <point x="403" y="605"/>
      <point x="403" y="492" type="curve" smooth="yes"/>
      <point x="403" y="382"/>
      <point x="329" y="328"/>
    </contour>
    <contour>
      <point x="241" y="277" type="curve" smooth="yes"/>
      <point x="365" y="277"/>
      <point x="460" y="357"/>
      <point x="460" y="492" type="curve" smooth="yes"/>
      <point x="460" y="630"/>
      <point x="361" y="708"/>
      <point x="242" y="708" type="curve" smooth="yes"/>
      <point x="124" y="708"/>
      <point x="24" y="630"/>
      <point x="24" y="492" type="curve" smooth="yes"/>
      <point x="24" y="354"/>
      <point x="123" y="277"/>
    </contour>
    <contour>
      <point x="237" y="465" type="line"/>
      <point x="283" y="381" type="line"/>
      <point x="346" y="381" type="line"/>
      <point x="286" y="477" type="line"/>
      <point x="311" y="482"/>
      <point x="330" y="500"/>
      <point x="330" y="544" type="curve" smooth="yes"/>
      <point x="330" y="593"/>
      <point x="294" y="614"/>
      <point x="246" y="614" type="curve" smooth="yes"/>
      <point x="167" y="614" type="line"/>
      <point x="167" y="381" type="line"/>
      <point x="220" y="381" type="line"/>
      <point x="220" y="465" type="line"/>
    </contour>
    <contour>
      <point x="220" y="508" type="line"/>
      <point x="220" y="571" type="line"/>
      <point x="243" y="571" type="line" smooth="yes"/>
      <point x="264" y="571"/>
      <point x="276" y="563"/>
      <point x="276" y="541" type="curve" smooth="yes"/>
      <point x="276" y="518"/>
      <point x="267" y="508"/>
      <point x="239" y="508" type="curve" smooth="yes"/>
    </contour>
  </outline>
</glyph>
<glyph name="degree" format="1">
  <advance width="390"/>
  <unicode hex="00B0"/>
  <outline>
    <contour>
      <point x="65" y="600" type="curve" smooth="yes"/>
      <point x="65" y="512"/>
      <point x="129" y="452"/>
      <point x="219" y="452" type="curve" smooth="yes"/>
      <point x="309" y="452"/>
      <point x="373" y="512"/>
      <point x="373" y="600" type="curve" smooth="yes"/>
      <point x="373" y="688"/>
      <point x="309" y="747"/>
      <point x="219" y="747" type="curve" smooth="yes"/>
      <point x="129" y="747"/>
      <point x="65" y="688"/>
    </contour>
    <contour>
      <point x="158" y="600" type="curve" smooth="yes"/>
      <point x="158" y="638"/>
      <point x="181" y="666"/>
      <point x="219" y="666" type="curve" smooth="yes"/>
      <point x="257" y="666"/>
      <point x="280" y="639"/>
      <point x="280" y="600" type="curve" smooth="yes"/>
      <point x="280" y="562"/>
      <point x="257" y="534"/>
      <point x="219" y="534" type="curve" smooth="yes"/>
      <point x="181" y="534"/>
      <point x="158" y="562"/>
    </contour>
  </outline>
</glyph>
<glyph name="plusminus" format="1">
  <advance width="660"/>
  <unicode hex="00B1"/>
  <outline>
    <contour>
      <point x="386" y="592" type="line"/>
      <point x="386" y="509"/>
      <point x="384" y="506"/>
      <point x="384" y="506" type="curve"/>
      <point x="384" y="506"/>
      <point x="436" y="508"/>
      <point x="523" y="508" type="curve"/>
      <point x="569" y="447" type="line"/>
      <point x="596" y="416" type="line"/>
      <point x="596" y="400" type="line"/>
      <point x="468" y="400"/>
      <point x="384" y="402"/>
      <point x="384" y="402" type="curve"/>
      <point x="384" y="402"/>
      <point x="386" y="356"/>
      <point x="386" y="231" type="curve"/>
      <point x="370" y="231" type="line"/>
      <point x="339" y="258" type="line"/>
      <point x="274" y="304" type="line"/>
      <point x="274" y="391"/>
      <point x="276" y="402"/>
      <point x="276" y="402" type="curve"/>
      <point x="276" y="402"/>
      <point x="226" y="400"/>
      <point x="137" y="400" type="curve"/>
      <point x="91" y="461" type="line"/>
      <point x="64" y="492" type="line"/>
      <point x="64" y="508" type="line"/>
      <point x="176" y="508"/>
      <point x="276" y="506"/>
      <point x="276" y="506" type="curve"/>
      <point x="276" y="506"/>
      <point x="274" y="541"/>
      <point x="274" y="665" type="curve"/>
      <point x="290" y="665" type="line"/>
      <point x="321" y="638" type="line"/>
    </contour>
    <contour>
      <point x="137" y="118" type="line"/>
      <point x="91" y="177" type="line"/>
      <point x="64" y="206" type="line"/>
      <point x="64" y="222" type="line"/>
      <point x="338" y="220" type="line"/>
      <point x="523" y="222" type="line"/>
      <point x="569" y="163" type="line"/>
      <point x="596" y="134" type="line"/>
      <point x="596" y="118" type="line"/>
    </contour>
  </outline>
</glyph>
<glyph name="periodcentered" format="1">
  <advance width="374"/>
  <unicode hex="00B7"/>
  <outline>
    <contour>
      <point x="190" y="425" type="line"/>
      <point x="86" y="321" type="line"/>
      <point x="190" y="215" type="line"/>
      <point x="294" y="319" type="line"/>
    </contour>
  </outline>
</glyph>
<glyph name="guillemotright" format="1">
  <advance width="619"/>
  <unicode hex="00BB"/>
  <outline>
    <contour>
      <point x="368" y="335" type="line"/>
      <point x="283" y="550" type="line"/>
      <point x="329" y="565" type="line"/>
      <point x="495" y="336" type="line"/>
      <point x="329" y="105" type="line"/>
      <point x="283" y="120" type="line"/>
    </contour>
    <contour>
      <point x="168" y="335" type="line"/>
      <point x="83" y="550" type="line"/>
      <point x="129" y="565" type="line"/>
      <point x="295" y="336" type="line"/>
      <point x="129" y="105" type="line"/>
      <point x="83" y="120" type="line"/>
    </contour>
  </outline>
</glyph>
<glyph name="multiply" format="1">
  <advance width="640"/>
  <unicode hex="00D7"/>
  <outline>
    <contour>
      <point x="193" y="93" type="line"/>
      <point x="339" y="277" type="line"/>
      <point x="496" y="93" type="line"/>
      <point x="551" y="128" type="line"/>
      <point x="377" y="325" type="line"/>
      <point x="548" y="536" type="line"/>
      <point x="444" y="596" type="line"/>
      <point x="301" y="412" type="line"/>
      <point x="147" y="596" type="line"/>
      <point x="92" y="561" type="line"/>
      <point x="263" y="365" type="line"/>
      <point x="89" y="154" type="line"/>
    </contour>
  </outline>
</glyph>
<glyph name="divide" format="1">
  <advance width="640"/>
  <unicode hex="00F7"/>
  <outline>
    <contour>
      <point x="322" y="616" type="line"/>
      <point x="232" y="527" type="line"/>
      <point x="322" y="435" type="line"/>
      <point x="412" y="525" type="line"/>
    </contour>
    <contour>
      <point x="322" y="253" type="line"/>
      <point x="232" y="164" type="line"/>
      <point x="322" y="72" type="line"/>
      <point x="412" y="162" type="line"/>
    </contour>
    <contour>
      <point x="595" y="288" type="line"/>
      <point x="595" y="304" type="line"/>
      <point x="568" y="335" type="line"/>
      <point x="522" y="400" type="line"/>
      <point x="45" y="400" type="line"/>
      <point x="45" y="384" type="line"/>
      <point x="72" y="353" type="line"/>
      <point x="118" y="288" type="line"/>
    </contour>
  </outline>
</glyph>
<glyph name="dvCandrabindu" format="1">
  <advance width="0"/>
  <unicode hex="0901"/>
  <outline>
    <contour>
      <point x="-75" y="669" type="move" name="_abvm.candra"/>
    </contour>
    <contour>
      <point x="112" y="729" type="move" name="abvm.udatta"/>
    </contour>
    <contour>
      <point x="-75" y="669" type="move" name="_abvm"/>
    </contour>
    <component base="dvAnusvara" xScale="0.899999976158" yScale="0.899999976158" xOffset="-20" yOffset="237"/>
    <component base="dvmEcandra"/>
  </outline>
</glyph>
<glyph name="dvAnusvara" format="1">
  <advance width="0"/>
  <unicode hex="0902"/>
  <outline>
    <contour>
      <point x="-11" y="729" type="move" name="abvm.udatta"/>
    </contour>
    <contour>
      <point x="-75" y="669" type="move" name="_abvm"/>
    </contour>
    <contour>
      <point x="-75" y="669" type="move" name="_abvm.e"/>
    </contour>
    <contour>
      <point x="-144" y="936" type="line"/>
      <point x="-243" y="838" type="line"/>
      <point x="-144" y="741" type="line"/>
      <point x="-45" y="838" type="line"/>
    </contour>
  </outline>
</glyph>
<glyph name="dvVisarga" format="1">
  <advance width="379"/>
  <unicode hex="0903"/>
  <outline>
    <contour>
      <point x="188" y="546" type="line"/>
      <point x="85" y="442" type="line"/>
      <point x="189" y="337" type="line"/>
      <point x="294" y="441" type="line"/>
    </contour>
    <contour>
      <point x="188" y="222" type="line"/>
      <point x="85" y="119" type="line"/>
      <point x="189" y="13" type="line"/>
      <point x="294" y="118" type="line"/>
    </contour>
  </outline>
</glyph>
<glyph name="dvA" format="1">
  <advance width="741"/>
  <unicode hex="0905"/>
  <outline>
    <contour>
      <point x="803" y="557" type="line"/>
      <point x="803" y="573" type="line"/>
      <point x="776" y="604" type="line"/>
      <point x="730" y="669" type="line"/>
      <point x="392" y="669" type="line"/>
      <point x="392" y="653" type="line"/>
      <point x="419" y="622" type="line"/>
      <point x="465" y="557" type="line"/>
    </contour>
    <contour>
      <point x="535" y="581" type="line"/>
      <point x="535" y="441" type="line" smooth="yes"/>
      <point x="535" y="379"/>
      <point x="515" y="350"/>
      <point x="444" y="350" type="curve" smooth="yes"/>
      <point x="405" y="350"/>
      <point x="368" y="361"/>
      <point x="342" y="373" type="curve"/>
      <point x="287" y="358" type="line"/>
      <point x="302" y="343"/>
      <point x="324" y="319"/>
      <point x="324" y="278" type="curve" smooth="yes"/>
      <point x="324" y="236"/>
      <point x="297" y="203"/>
      <point x="244" y="203" type="curve" smooth="yes"/>
      <point x="174" y="203"/>
      <point x="112" y="261"/>
      <point x="60" y="356" type="curve"/>
      <point x="-5" y="319" type="line"/>
      <point x="67" y="172"/>
      <point x="163" y="88"/>
      <point x="276" y="88" type="curve" smooth="yes"/>
      <point x="369" y="88"/>
      <point x="429" y="142"/>
      <point x="429" y="227" type="curve" smooth="yes"/>
      <point x="429" y="276"/>
      <point x="402" y="308"/>
      <point x="402" y="308" type="curve"/>
      <point x="457" y="275"/>
      <point x="481" y="260"/>
      <point x="513" y="260" type="curve" smooth="yes"/>
      <point x="521" y="260"/>
      <point x="533" y="261"/>
      <point x="541" y="264" type="curve"/>
      <point x="541" y="168"/>
      <point x="532" y="69"/>
      <point x="532" y="69" type="curve"/>
      <point x="597" y="31" type="line"/>
      <point x="643" y="-5" type="line"/>
      <point x="666" y="-5" type="line"/>
      <point x="666" y="581" type="line"/>
    </contour>
    <contour>
      <point x="412" y="466" type="curve" smooth="yes"/>
      <point x="412" y="553"/>
      <point x="310" y="676"/>
      <point x="193" y="676" type="curve" smooth="yes"/>
      <point x="134" y="676"/>
      <point x="83" y="661"/>
      <point x="48" y="647" type="curve"/>
      <point x="137" y="535" type="line"/>
      <point x="182" y="553"/>
      <point x="225" y="566"/>
      <point x="269" y="566" type="curve" smooth="yes"/>
      <point x="301" y="566"/>
      <point x="312" y="549"/>
      <point x="312" y="526" type="curve" smooth="yes"/>
      <point x="312" y="482"/>
      <point x="239" y="446"/>
      <point x="129" y="423" type="curve"/>
      <point x="206" y="316" type="line"/>
      <point x="316" y="343"/>
      <point x="412" y="387"/>
    </contour>
  </outline>
</glyph>
<glyph name="dvAA" format="1">
  <advance width="1024"/>
  <unicode hex="0906"/>
  <outline>
    <contour>
      <point x="816" y="669" type="move" name="abvm"/>
    </contour>
    <component base="dvA"/>
    <component base="dvmAA" xOffset="741"/>
  </outline>
</glyph>
<glyph name="dvI" format="1">
  <advance width="538"/>
  <unicode hex="0907"/>
  <outline>
    <contour>
      <point x="360" y="669" type="move" name="abvm"/>
    </contour>
    <contour>
      <point x="601" y="557" type="line"/>
      <point x="601" y="573" type="line"/>
      <point x="574" y="604" type="line"/>
      <point x="528" y="669" type="line"/>
      <point x="-83" y="669" type="line"/>
      <point x="-83" y="653" type="line"/>
      <point x="-56" y="622" type="line"/>
      <point x="-10" y="557" type="line"/>
    </contour>
    <contour>
      <point x="449" y="-120" type="line"/>
      <point x="301" y="-12" type="line"/>
      <point x="301" y="-8" type="line"/>
      <point x="419" y="-3"/>
      <point x="502" y="60"/>
      <point x="502" y="135" type="curve" smooth="yes"/>
      <point x="502" y="161"/>
      <point x="498" y="187"/>
      <point x="471" y="244" type="curve" smooth="yes"/>
      <point x="448" y="292"/>
      <point x="414" y="312"/>
      <point x="366" y="312" type="curve" smooth="yes"/>
      <point x="318" y="312"/>
      <point x="237" y="290"/>
      <point x="191" y="276" type="curve"/>
      <point x="180" y="276"/>
      <point x="157" y="290"/>
      <point x="157" y="320" type="curve" smooth="yes"/>
      <point x="157" y="360"/>
      <point x="191" y="369"/>
      <point x="232" y="372" type="curve" smooth="yes"/>
      <point x="361" y="381" type="line" smooth="yes"/>
      <point x="435" y="386"/>
      <point x="442" y="402"/>
      <point x="442" y="426" type="curve" smooth="yes"/>
      <point x="442" y="588" type="line"/>
      <point x="317" y="588" type="line"/>
      <point x="317" y="471" type="line"/>
      <point x="280" y="481"/>
      <point x="238" y="486"/>
      <point x="198" y="486" type="curve" smooth="yes"/>
      <point x="108" y="486"/>
      <point x="54" y="449"/>
      <point x="54" y="379" type="curve" smooth="yes"/>
      <point x="54" y="326"/>
      <point x="85" y="277"/>
      <point x="124" y="236" type="curve" smooth="yes"/>
      <point x="156" y="203"/>
      <point x="194" y="174"/>
      <point x="223" y="159" type="curve"/>
      <point x="223" y="159"/>
      <point x="345" y="202"/>
      <point x="382" y="202" type="curve" smooth="yes"/>
      <point x="396" y="202"/>
      <point x="404" y="194"/>
      <point x="404" y="179" type="curve" smooth="yes"/>
      <point x="404" y="138"/>
      <point x="339" y="81"/>
      <point x="213" y="81" type="curve"/>
      <point x="101" y="174" type="line"/>
      <point x="44" y="127" type="line"/>
      <point x="44" y="63"/>
      <point x="105" y="-12"/>
      <point x="198" y="-16" type="curve"/>
      <point x="318" y="-172" type="line"/>
    </contour>
  </outline>
</glyph>
<glyph name="dvU" format="1">
  <advance width="532"/>
  <unicode hex="0909"/>
  <outline>
    <contour>
      <point x="376" y="669" type="move" name="abvm"/>
    </contour>
    <contour>
      <point x="-10" y="557" type="line"/>
      <point x="595" y="557" type="line"/>
      <point x="595" y="573" type="line"/>
      <point x="568" y="604" type="line"/>
      <point x="522" y="669" type="line"/>
      <point x="-83" y="669" type="line"/>
      <point x="-83" y="653" type="line"/>
      <point x="-56" y="622" type="line"/>
    </contour>
    <contour>
      <point x="292" y="564" type="line"/>
      <point x="330" y="541"/>
      <point x="347" y="513"/>
      <point x="347" y="486" type="curve" smooth="yes"/>
      <point x="347" y="438"/>
      <point x="304" y="411"/>
      <point x="201" y="411" type="curve" smooth="yes"/>
      <point x="180" y="411" type="line"/>
      <point x="231" y="295" type="line"/>
      <point x="240" y="294"/>
      <point x="249" y="294"/>
      <point x="258" y="294" type="curve" smooth="yes"/>
      <point x="303" y="295"/>
      <point x="332" y="305"/>
      <point x="332" y="305" type="curve"/>
      <point x="341" y="299"/>
      <point x="367" y="274"/>
      <point x="367" y="230" type="curve" smooth="yes"/>
      <point x="367" y="185"/>
      <point x="336" y="153"/>
      <point x="284" y="153" type="curve" smooth="yes"/>
      <point x="188" y="153"/>
      <point x="108" y="256"/>
      <point x="59" y="371" type="curve"/>
      <point x="-8" y="339" type="line"/>
      <point x="60" y="181"/>
      <point x="165" y="43"/>
      <point x="326" y="43" type="curve" smooth="yes"/>
      <point x="424" y="43"/>
      <point x="488" y="109"/>
      <point x="488" y="191" type="curve" smooth="yes"/>
      <point x="488" y="277"/>
      <point x="427" y="323"/>
      <point x="384" y="344" type="curve"/>
      <point x="435" y="364"/>
      <point x="460" y="406"/>
      <point x="460" y="451" type="curve" smooth="yes"/>
      <point x="460" y="519"/>
      <point x="402" y="566"/>
      <point x="324" y="613" type="curve"/>
    </contour>
  </outline>
</glyph>
<glyph name="dvUU" format="1">
  <advance width="787"/>
  <unicode hex="090A"/>
  <outline>
    <contour>
      <point x="428" y="669" type="move" name="abvm"/>
    </contour>
    <contour>
      <point x="460" y="451" type="curve" smooth="yes"/>
      <point x="460" y="519"/>
      <point x="402" y="566"/>
      <point x="324" y="613" type="curve"/>
      <point x="292" y="564" type="line"/>
      <point x="330" y="541"/>
      <point x="347" y="513"/>
      <point x="347" y="486" type="curve" smooth="yes"/>
      <point x="347" y="438"/>
      <point x="304" y="411"/>
      <point x="201" y="411" type="curve" smooth="yes"/>
      <point x="180" y="411" type="line"/>
      <point x="231" y="296" type="line"/>
      <point x="240" y="295"/>
      <point x="249" y="295"/>
      <point x="258" y="295" type="curve" smooth="yes"/>
      <point x="303" y="296"/>
      <point x="332" y="306"/>
      <point x="332" y="306" type="curve"/>
      <point x="341" y="300"/>
      <point x="368" y="274"/>
      <point x="368" y="230" type="curve" smooth="yes"/>
      <point x="368" y="185"/>
      <point x="339" y="153"/>
      <point x="284" y="153" type="curve" smooth="yes"/>
      <point x="188" y="153"/>
      <point x="108" y="256"/>
      <point x="59" y="371" type="curve"/>
      <point x="-8" y="339" type="line"/>
      <point x="60" y="181"/>
      <point x="165" y="43"/>
      <point x="326" y="43" type="curve" smooth="yes"/>
      <point x="424" y="43"/>
      <point x="488" y="109"/>
      <point x="488" y="191" type="curve" smooth="yes"/>
      <point x="488" y="198" type="line" smooth="yes"/>
      <point x="500" y="260"/>
      <point x="542" y="305"/>
      <point x="594" y="305" type="curve" smooth="yes"/>
      <point x="635" y="305"/>
      <point x="662" y="278"/>
      <point x="662" y="240" type="curve" smooth="yes"/>
      <point x="662" y="190"/>
      <point x="626" y="158"/>
      <point x="575" y="158" type="curve" smooth="yes"/>
      <point x="566" y="158"/>
      <point x="552" y="158"/>
      <point x="540" y="161" type="curve"/>
      <point x="534" y="150" type="line"/>
      <point x="585" y="49" type="line"/>
      <point x="599" y="46"/>
      <point x="609" y="46"/>
      <point x="624" y="46" type="curve" smooth="yes"/>
      <point x="710" y="46"/>
      <point x="766" y="110"/>
      <point x="766" y="202" type="curve" smooth="yes"/>
      <point x="766" y="314"/>
      <point x="665" y="410"/>
      <point x="561" y="410" type="curve" smooth="yes"/>
      <point x="493" y="410"/>
      <point x="452" y="360"/>
      <point x="441" y="305" type="curve"/>
      <point x="423" y="323"/>
      <point x="402" y="336"/>
      <point x="384" y="345" type="curve"/>
      <point x="431" y="367"/>
      <point x="460" y="404"/>
    </contour>
    <contour>
      <point x="777" y="669" type="line"/>
      <point x="-83" y="669" type="line"/>
      <point x="-83" y="653" type="line"/>
      <point x="-56" y="622" type="line"/>
      <point x="-10" y="557" type="line"/>
      <point x="850" y="557" type="line"/>
      <point x="850" y="573" type="line"/>
      <point x="823" y="604" type="line"/>
    </contour>
  </outline>
</glyph>
<glyph name="dvvR" format="1">
  <advance width="872"/>
  <unicode hex="090B"/>
  <outline>
    <contour>
      <point x="495" y="669" type="move" name="abvm"/>
    </contour>
    <contour>
      <point x="847" y="140" type="line"/>
      <point x="805" y="109"/>
      <point x="757" y="91"/>
      <point x="718" y="91" type="curve" smooth="yes"/>
      <point x="679" y="91"/>
      <point x="665" y="101"/>
      <point x="665" y="117" type="curve" smooth="yes"/>
      <point x="665" y="155"/>
      <point x="805" y="181"/>
      <point x="805" y="277" type="curve" smooth="yes"/>
      <point x="805" y="304"/>
      <point x="795" y="327"/>
      <point x="755" y="358" type="curve"/>
      <point x="782" y="382"/>
      <point x="787" y="403"/>
      <point x="787" y="419" type="curve" smooth="yes"/>
      <point x="787" y="467"/>
      <point x="718" y="496"/>
      <point x="674" y="513" type="curve"/>
      <point x="628" y="475" type="line"/>
      <point x="646" y="425" type="line"/>
      <point x="625" y="376"/>
      <point x="580" y="351"/>
      <point x="523" y="351" type="curve" smooth="yes"/>
      <point x="512" y="351"/>
      <point x="501" y="352"/>
      <point x="491" y="354" type="curve"/>
      <point x="491" y="286" type="line"/>
      <point x="514" y="279"/>
      <point x="538" y="276"/>
      <point x="561" y="276" type="curve" smooth="yes"/>
      <point x="618" y="276"/>
      <point x="656" y="295"/>
      <point x="696" y="323" type="curve"/>
      <point x="699" y="318"/>
      <point x="703" y="311"/>
      <point x="703" y="300" type="curve" smooth="yes"/>
      <point x="703" y="257"/>
      <point x="566" y="224"/>
      <point x="566" y="152" type="curve" smooth="yes"/>
      <point x="566" y="63"/>
      <point x="675" y="-3"/>
      <point x="755" y="-3" type="curve" smooth="yes"/>
      <point x="818" y="-3"/>
      <point x="857" y="9"/>
      <point x="900" y="35" type="curve"/>
    </contour>
    <contour>
      <point x="373" y="234" type="line"/>
      <point x="373" y="147"/>
      <point x="365" y="70"/>
      <point x="365" y="70" type="curve"/>
      <point x="426" y="32" type="line"/>
      <point x="472" y="-5" type="line"/>
      <point x="495" y="-5" type="line"/>
      <point x="495" y="596" type="line"/>
      <point x="362" y="596" type="line"/>
      <point x="362" y="334" type="line"/>
      <point x="358" y="334" type="line"/>
      <point x="252" y="452"/>
      <point x="208" y="482"/>
      <point x="131" y="482" type="curve" smooth="yes"/>
      <point x="90" y="482"/>
      <point x="38" y="464"/>
      <point x="4" y="437" type="curve"/>
      <point x="88" y="328" type="line"/>
      <point x="117" y="350"/>
      <point x="145" y="363"/>
      <point x="181" y="363" type="curve" smooth="yes"/>
      <point x="221" y="363"/>
      <point x="255" y="338"/>
      <point x="280" y="306" type="curve"/>
      <point x="38" y="152" type="line"/>
      <point x="135" y="65" type="line"/>
    </contour>
    <contour>
      <point x="862" y="669" type="line"/>
      <point x="-83" y="669" type="line"/>
      <point x="-83" y="653" type="line"/>
      <point x="-56" y="622" type="line"/>
      <point x="-10" y="557" type="line"/>
      <point x="935" y="557" type="line"/>
      <point x="935" y="573" type="line"/>
      <point x="908" y="604" type="line"/>
    </contour>
  </outline>
</glyph>
<glyph name="dvvL" format="1">
  <advance width="740"/>
  <unicode hex="090C"/>
  <outline>
    <contour>
      <point x="563" y="669" type="move" name="abvm"/>
    </contour>
    <contour>
      <point x="327" y="388" type="line"/>
      <point x="285" y="427"/>
      <point x="233" y="451"/>
      <point x="178" y="451" type="curve" smooth="yes"/>
      <point x="98" y="451"/>
      <point x="25" y="398"/>
      <point x="25" y="299" type="curve" smooth="yes"/>
      <point x="25" y="175"/>
      <point x="130" y="64"/>
      <point x="297" y="-15" type="curve"/>
      <point x="345" y="34" type="line"/>
      <point x="231" y="85"/>
      <point x="151" y="158"/>
      <point x="151" y="254" type="curve" smooth="yes"/>
      <point x="151" y="315"/>
      <point x="190" y="346"/>
      <point x="235" y="346" type="curve" smooth="yes"/>
      <point x="256" y="346"/>
      <point x="279" y="339"/>
      <point x="298" y="325" type="curve"/>
    </contour>
    <contour>
      <point x="-10" y="557" type="line"/>
      <point x="803" y="557" type="line"/>
      <point x="803" y="573" type="line"/>
      <point x="776" y="604" type="line"/>
      <point x="730" y="669" type="line"/>
      <point x="-83" y="669" type="line"/>
      <point x="-83" y="653" type="line"/>
      <point x="-56" y="622" type="line"/>
    </contour>
    <contour>
      <point x="440" y="399" type="line"/>
      <point x="563" y="399" type="line"/>
      <point x="563" y="561" type="line"/>
      <point x="440" y="561" type="line"/>
    </contour>
    <contour>
      <point x="447" y="451" type="curve" smooth="yes"/>
      <point x="336" y="451"/>
      <point x="285" y="377"/>
      <point x="285" y="278" type="curve" smooth="yes"/>
      <point x="285" y="265"/>
      <point x="286" y="252"/>
      <point x="288" y="238" type="curve"/>
      <point x="401" y="198" type="line"/>
      <point x="408" y="206" type="line"/>
      <point x="403" y="222"/>
      <point x="401" y="239"/>
      <point x="401" y="256" type="curve" smooth="yes"/>
      <point x="401" y="311"/>
      <point x="428" y="362"/>
      <point x="493" y="362" type="curve" smooth="yes"/>
      <point x="529" y="362"/>
      <point x="560" y="338"/>
      <point x="560" y="294" type="curve" smooth="yes"/>
      <point x="560" y="209"/>
      <point x="443" y="181"/>
      <point x="443" y="90" type="curve" smooth="yes"/>
      <point x="443" y="23"/>
      <point x="549" y="-57"/>
      <point x="640" y="-57" type="curve" smooth="yes"/>
      <point x="691" y="-57"/>
      <point x="735" y="-41"/>
      <point x="769" y="2" type="curve"/>
      <point x="688" y="84" type="line"/>
      <point x="648" y="37"/>
      <point x="609" y="26"/>
      <point x="589" y="26" type="curve" smooth="yes"/>
      <point x="562" y="26"/>
      <point x="546" y="41"/>
      <point x="546" y="58" type="curve" smooth="yes"/>
      <point x="546" y="117"/>
      <point x="667" y="153"/>
      <point x="667" y="248" type="curve" smooth="yes"/>
      <point x="667" y="363"/>
      <point x="551" y="451"/>
    </contour>
  </outline>
</glyph>
<glyph name="dvEcandra" format="1">
  <advance width="559"/>
  <unicode hex="090D"/>
  <outline>
    <contour>
      <point x="350" y="850" type="move" name="abvm"/>
    </contour>
    <component base="dvE"/>
    <component base="dvmEcandra" xOffset="420"/>
  </outline>
</glyph>
<glyph name="dvEshort" format="1">
  <advance width="559"/>
  <unicode hex="090E"/>
  <outline>
    <contour>
      <point x="590" y="752" type="move" name="abvm"/>
    </contour>
    <component base="dvE"/>
    <component base="dvmEshort" xOffset="570"/>
  </outline>
</glyph>
<glyph name="dvE" format="1">
  <advance width="559"/>
  <unicode hex="090F"/>
  <outline>
    <contour>
      <point x="350" y="669" type="move" name="abvm"/>
    </contour>
    <contour>
      <point x="495" y="-139" type="line"/>
      <point x="521" y="-107"/>
      <point x="533" y="-67"/>
      <point x="533" y="-31" type="curve" smooth="yes"/>
      <point x="533" y="25"/>
      <point x="506" y="68"/>
      <point x="442" y="105" type="curve" smooth="yes"/>
      <point x="200" y="245" type="line"/>
      <point x="200" y="578" type="line"/>
      <point x="62" y="578" type="line"/>
      <point x="62" y="239" type="line"/>
      <point x="343" y="79" type="line" smooth="yes"/>
      <point x="388" y="53"/>
      <point x="411" y="25"/>
      <point x="411" y="-6" type="curve" smooth="yes"/>
      <point x="411" y="-33"/>
      <point x="394" y="-65"/>
      <point x="367" y="-93" type="curve"/>
    </contour>
    <contour>
      <point x="363" y="580" type="line"/>
      <point x="363" y="580"/>
      <point x="368" y="519"/>
      <point x="368" y="395" type="curve" smooth="yes"/>
      <point x="368" y="352"/>
      <point x="339" y="324"/>
      <point x="284" y="297" type="curve"/>
      <point x="400" y="230" type="line"/>
      <point x="453" y="258"/>
      <point x="499" y="306"/>
      <point x="499" y="391" type="curve" smooth="yes"/>
      <point x="499" y="580" type="line"/>
    </contour>
    <contour>
      <point x="-10" y="557" type="line"/>
      <point x="622" y="557" type="line"/>
      <point x="622" y="573" type="line"/>
      <point x="595" y="604" type="line"/>
      <point x="549" y="669" type="line"/>
      <point x="-83" y="669" type="line"/>
      <point x="-83" y="653" type="line"/>
      <point x="-56" y="622" type="line"/>
    </contour>
  </outline>
</glyph>
<glyph name="dvAI" format="1">
  <advance width="559"/>
  <unicode hex="0910"/>
  <outline>
    <contour>
      <point x="488" y="729" type="move" name="abvm.udatta"/>
    </contour>
    <component base="dvE"/>
    <component base="dvmE" xOffset="589"/>
  </outline>
</glyph>
<glyph name="dvOcandra" format="1">
  <advance width="1024"/>
  <unicode hex="0911"/>
  <outline>
    <contour>
      <point x="815" y="850" type="move" name="abvm"/>
    </contour>
    <component base="dvA"/>
    <component base="dvmAA" xOffset="741"/>
    <component base="dvmEcandra" xOffset="888"/>
  </outline>
</glyph>
<glyph name="dvOshort" format="1">
  <advance width="1024"/>
  <unicode hex="0912"/>
  <outline>
    <contour>
      <point x="1055" y="752" type="move" name="abvm"/>
    </contour>
    <component base="dvA"/>
    <component base="dvmEshort" xOffset="1024"/>
    <component base="dvmAA" xOffset="741"/>
  </outline>
</glyph>
<glyph name="dvO" format="1">
  <advance width="1024"/>
  <unicode hex="0913"/>
  <outline>
    <contour>
      <point x="935" y="729" type="move" name="abvm.udatta"/>
    </contour>
    <component base="dvmE" xOffset="1036"/>
    <component base="dvA"/>
    <component base="dvmAA" xOffset="741"/>
  </outline>
</glyph>
<glyph name="dvAU" format="1">
  <advance width="1024"/>
  <unicode hex="0914"/>
  <outline>
    <contour>
      <point x="958" y="729" type="move" name="abvm.udatta"/>
    </contour>
    <component base="dvmAI" xOffset="1029"/>
    <component base="dvA"/>
    <component base="dvmAA" xOffset="741"/>
  </outline>
</glyph>
<glyph name="dvKA" format="1">
  <advance width="768"/>
  <unicode hex="0915"/>
  <outline>
    <contour>
      <point x="449" y="-5" type="move" name="blwm.virama"/>
    </contour>
    <contour>
      <point x="454" y="669" type="move" name="abvm"/>
    </contour>
    <contour>
      <point x="449" y="-5" type="move" name="blwm.u"/>
    </contour>
    <contour>
      <point x="322" y="381" type="line"/>
      <point x="322" y="268"/>
      <point x="270" y="224"/>
      <point x="205" y="224" type="curve" smooth="yes"/>
      <point x="155" y="224"/>
      <point x="131" y="266"/>
      <point x="131" y="300" type="curve" smooth="yes"/>
      <point x="131" y="355"/>
      <point x="180" y="377"/>
      <point x="222" y="377" type="curve" smooth="yes"/>
      <point x="238" y="377"/>
      <point x="259" y="373"/>
      <point x="273" y="369" type="curve"/>
      <point x="279" y="380" type="line"/>
      <point x="222" y="484" type="line"/>
      <point x="204" y="488"/>
      <point x="198" y="489"/>
      <point x="179" y="489" type="curve" smooth="yes"/>
      <point x="90" y="489"/>
      <point x="25" y="438"/>
      <point x="25" y="344" type="curve" smooth="yes"/>
      <point x="25" y="291"/>
      <point x="59" y="238"/>
      <point x="94" y="197" type="curve" smooth="yes"/>
      <point x="134" y="151"/>
      <point x="182" y="121"/>
      <point x="235" y="121" type="curve" smooth="yes"/>
      <point x="267" y="121"/>
      <point x="307" y="128"/>
      <point x="335" y="161" type="curve"/>
      <point x="332" y="129"/>
      <point x="324" y="64"/>
      <point x="324" y="64" type="curve"/>
      <point x="384" y="28" type="line"/>
      <point x="426" y="-5" type="line"/>
      <point x="449" y="-5" type="line"/>
      <point x="449" y="210" type="line" smooth="yes"/>
      <point x="449" y="318"/>
      <point x="500" y="371"/>
      <point x="564" y="371" type="curve" smooth="yes"/>
      <point x="607" y="371"/>
      <point x="638" y="342"/>
      <point x="638" y="305" type="curve" smooth="yes"/>
      <point x="638" y="249"/>
      <point x="595" y="218"/>
      <point x="542" y="218" type="curve" smooth="yes"/>
      <point x="532" y="218"/>
      <point x="515" y="218"/>
      <point x="501" y="222" type="curve"/>
      <point x="495" y="212" type="line"/>
      <point x="551" y="110" type="line"/>
      <point x="566" y="106"/>
      <point x="578" y="106"/>
      <point x="593" y="106" type="curve" smooth="yes"/>
      <point x="683" y="106"/>
      <point x="743" y="165"/>
      <point x="743" y="261" type="curve" smooth="yes"/>
      <point x="743" y="310"/>
      <point x="713" y="361"/>
      <point x="674" y="405" type="curve" smooth="yes"/>
      <point x="636" y="448"/>
      <point x="589" y="479"/>
      <point x="534" y="479" type="curve" smooth="yes"/>
      <point x="503" y="479"/>
      <point x="470" y="469"/>
      <point x="444" y="441" type="curve"/>
      <point x="451" y="478"/>
      <point x="454" y="524"/>
      <point x="454" y="578" type="curve" smooth="yes"/>
      <point x="454" y="615" type="line"/>
      <point x="322" y="615" type="line"/>
    </contour>
    <contour>
      <point x="758" y="669" type="line"/>
      <point x="-83" y="669" type="line"/>
      <point x="-83" y="653" type="line"/>
      <point x="-56" y="622" type="line"/>
      <point x="-10" y="557" type="line"/>
      <point x="831" y="557" type="line"/>
      <point x="831" y="573" type="line"/>
      <point x="804" y="604" type="line"/>
    </contour>
  </outline>
</glyph>
<glyph name="dvGA" format="1">
  <advance width="564"/>
  <unicode hex="0917"/>
  <outline>
    <contour>
      <point x="-10" y="557" type="line"/>
      <point x="91" y="557" type="line"/>
      <point x="91" y="544" type="line" smooth="yes"/>
      <point x="91" y="453"/>
      <point x="99" y="422"/>
      <point x="99" y="422" type="curve"/>
      <point x="52" y="398"/>
      <point x="27" y="392"/>
      <point x="27" y="368" type="curve" smooth="yes"/>
      <point x="27" y="338"/>
      <point x="93" y="265"/>
      <point x="139" y="219" type="curve"/>
      <point x="218" y="219" type="line"/>
      <point x="218" y="557" type="line"/>
      <point x="627" y="557" type="line"/>
      <point x="627" y="573" type="line"/>
      <point x="600" y="604" type="line"/>
      <point x="554" y="669" type="line"/>
      <point x="-83" y="669" type="line"/>
      <point x="-83" y="653" type="line"/>
      <point x="-56" y="622" type="line"/>
    </contour>
    <contour>
      <point x="356" y="69" type="line"/>
      <point x="420" y="31" type="line"/>
      <point x="466" y="-5" type="line"/>
      <point x="489" y="-5" type="line"/>
      <point x="489" y="578" type="line"/>
      <point x="356" y="578" type="line"/>
    </contour>
  </outline>
</glyph>
<glyph name="dvGHA" format="1">
  <advance width="647"/>
  <unicode hex="0918"/>
  <outline>
    <contour>
      <point x="549" y="-5" type="line"/>
      <point x="572" y="-5" type="line"/>
      <point x="572" y="557" type="line"/>
      <point x="710" y="557" type="line"/>
      <point x="710" y="573" type="line"/>
      <point x="683" y="604" type="line"/>
      <point x="637" y="669" type="line"/>
      <point x="-83" y="669" type="line"/>
      <point x="-83" y="653" type="line"/>
      <point x="-56" y="622" type="line"/>
      <point x="-10" y="557" type="line"/>
      <point x="57" y="557" type="line"/>
      <point x="45" y="544"/>
      <point x="34" y="526"/>
      <point x="34" y="505" type="curve" smooth="yes"/>
      <point x="34" y="462"/>
      <point x="64" y="430"/>
      <point x="149" y="399" type="curve"/>
      <point x="149" y="395" type="line"/>
      <point x="90" y="386"/>
      <point x="48" y="356"/>
      <point x="48" y="297" type="curve" smooth="yes"/>
      <point x="48" y="216"/>
      <point x="192" y="104"/>
      <point x="287" y="104" type="curve" smooth="yes"/>
      <point x="367" y="104"/>
      <point x="413" y="136"/>
      <point x="448" y="164" type="curve"/>
      <point x="448" y="126"/>
      <point x="441" y="70"/>
      <point x="441" y="70" type="curve"/>
      <point x="503" y="31" type="line"/>
    </contour>
    <contour>
      <point x="178" y="499" type="curve" smooth="yes"/>
      <point x="178" y="520"/>
      <point x="184" y="538"/>
      <point x="200" y="557" type="curve"/>
      <point x="440" y="557" type="line"/>
      <point x="440" y="311" type="line"/>
      <point x="408" y="270"/>
      <point x="330" y="210"/>
      <point x="233" y="210" type="curve" smooth="yes"/>
      <point x="189" y="210"/>
      <point x="166" y="227"/>
      <point x="166" y="253" type="curve" smooth="yes"/>
      <point x="166" y="301"/>
      <point x="256" y="321"/>
      <point x="365" y="329" type="curve"/>
      <point x="321" y="438" type="line"/>
      <point x="282" y="438"/>
      <point x="230" y="429"/>
      <point x="230" y="429" type="curve"/>
      <point x="199" y="444"/>
      <point x="178" y="467"/>
    </contour>
  </outline>
</glyph>
<glyph name="dvNGA" format="1">
  <advance width="647"/>
  <unicode hex="0919"/>
  <outline>
    <contour>
      <point x="372" y="-41" type="move" name="blwm.virama"/>
    </contour>
    <contour>
      <point x="471" y="668" type="move" name="abvm"/>
    </contour>
    <contour>
      <point x="366" y="-33" type="move" name="blwm.u"/>
    </contour>
    <contour>
      <point x="637" y="669" type="line"/>
      <point x="-83" y="669" type="line"/>
      <point x="-83" y="653" type="line"/>
      <point x="-56" y="622" type="line"/>
      <point x="-10" y="557" type="line"/>
      <point x="710" y="557" type="line"/>
      <point x="710" y="573" type="line"/>
      <point x="683" y="604" type="line"/>
    </contour>
    <contour>
      <point x="567" y="429" type="line"/>
      <point x="475" y="339" type="line"/>
      <point x="567" y="251" type="line"/>
      <point x="659" y="338" type="line"/>
    </contour>
    <contour>
      <point x="15" y="138" type="line"/>
      <point x="65" y="85"/>
      <point x="168" y="-8"/>
      <point x="314" y="-8" type="curve" smooth="yes"/>
      <point x="448" y="-8"/>
      <point x="517" y="69"/>
      <point x="517" y="144" type="curve" smooth="yes"/>
      <point x="517" y="170"/>
      <point x="513" y="207"/>
      <point x="486" y="257" type="curve" smooth="yes"/>
      <point x="460" y="305"/>
      <point x="426" y="324"/>
      <point x="378" y="324" type="curve" smooth="yes"/>
      <point x="345" y="324"/>
      <point x="284" y="308"/>
      <point x="205" y="285" type="curve"/>
      <point x="194" y="285"/>
      <point x="170" y="300"/>
      <point x="170" y="330" type="curve" smooth="yes"/>
      <point x="170" y="370"/>
      <point x="204" y="380"/>
      <point x="245" y="380" type="curve" smooth="yes"/>
      <point x="385" y="380" type="line" smooth="yes"/>
      <point x="459" y="380"/>
      <point x="471" y="396"/>
      <point x="471" y="420" type="curve" smooth="yes"/>
      <point x="471" y="588" type="line"/>
      <point x="341" y="588" type="line"/>
      <point x="341" y="485" type="line"/>
      <point x="293" y="489"/>
      <point x="255" y="494"/>
      <point x="212" y="494" type="curve" smooth="yes"/>
      <point x="122" y="494"/>
      <point x="68" y="456"/>
      <point x="68" y="386" type="curve" smooth="yes"/>
      <point x="68" y="291"/>
      <point x="172" y="190"/>
      <point x="243" y="167" type="curve"/>
      <point x="243" y="167"/>
      <point x="357" y="212"/>
      <point x="400" y="212" type="curve" smooth="yes"/>
      <point x="414" y="212"/>
      <point x="422" y="204"/>
      <point x="422" y="191" type="curve" smooth="yes"/>
      <point x="422" y="145"/>
      <point x="375" y="102"/>
      <point x="275" y="102" type="curve" smooth="yes"/>
      <point x="190" y="102"/>
      <point x="115" y="147"/>
      <point x="68" y="195" type="curve"/>
    </contour>
  </outline>
</glyph>
<glyph name="dvCA" format="1">
  <advance width="683"/>
  <unicode hex="091A"/>
  <outline>
    <contour>
      <point x="746" y="557" type="line"/>
      <point x="746" y="573" type="line"/>
      <point x="719" y="604" type="line"/>
      <point x="673" y="669" type="line"/>
      <point x="-83" y="669" type="line"/>
      <point x="-83" y="653" type="line"/>
      <point x="-56" y="622" type="line"/>
      <point x="-10" y="557" type="line"/>
    </contour>
    <contour>
      <point x="108" y="291" type="curve" smooth="yes"/>
      <point x="108" y="240"/>
      <point x="141" y="199"/>
      <point x="185" y="163" type="curve" smooth="yes"/>
      <point x="224" y="131"/>
      <point x="265" y="106"/>
      <point x="321" y="106" type="curve"/>
      <point x="382" y="106"/>
      <point x="430" y="123"/>
      <point x="482" y="181" type="curve"/>
      <point x="481" y="132"/>
      <point x="473" y="69"/>
      <point x="473" y="69" type="curve"/>
      <point x="539" y="31" type="line"/>
      <point x="585" y="-5" type="line"/>
      <point x="608" y="-5" type="line"/>
      <point x="608" y="590" type="line"/>
      <point x="476" y="590" type="line"/>
      <point x="476" y="329" type="line"/>
      <point x="400" y="235"/>
      <point x="330" y="201"/>
      <point x="278" y="201" type="curve"/>
      <point x="238" y="201"/>
      <point x="226" y="225"/>
      <point x="226" y="252" type="curve" smooth="yes"/>
      <point x="226" y="305"/>
      <point x="274" y="345"/>
      <point x="305" y="357" type="curve"/>
      <point x="413" y="357" type="line"/>
      <point x="413" y="373" type="line"/>
      <point x="384" y="408" type="line"/>
      <point x="342" y="469" type="line"/>
      <point x="-21" y="469" type="line"/>
      <point x="-21" y="453" type="line"/>
      <point x="6" y="422" type="line"/>
      <point x="49" y="358" type="line"/>
      <point x="81" y="358" type="line" smooth="yes"/>
      <point x="128" y="358"/>
      <point x="142" y="360"/>
      <point x="142" y="360" type="curve"/>
      <point x="122" y="343"/>
      <point x="108" y="323"/>
    </contour>
  </outline>
</glyph>
<glyph name="dvCHA" format="1">
  <advance width="693"/>
  <unicode hex="091B"/>
  <outline>
    <contour>
      <point x="425" y="1" type="move" name="blwm.virama"/>
    </contour>
    <contour>
      <point x="564" y="669" type="move" name="abvm"/>
    </contour>
    <contour>
      <point x="429" y="-2" type="move" name="blwm.u"/>
    </contour>
    <contour>
      <point x="549" y="229" type="line"/>
      <point x="495" y="262"/>
      <point x="463" y="310"/>
      <point x="463" y="364" type="curve" smooth="yes"/>
      <point x="463" y="409"/>
      <point x="490" y="435"/>
      <point x="514" y="435" type="curve" smooth="yes"/>
      <point x="538" y="435"/>
      <point x="556" y="416"/>
      <point x="556" y="370" type="curve" smooth="yes"/>
      <point x="556" y="228"/>
      <point x="456" y="124"/>
      <point x="298" y="124" type="curve" smooth="yes"/>
      <point x="208" y="124"/>
      <point x="167" y="166"/>
      <point x="167" y="200" type="curve" smooth="yes"/>
      <point x="167" y="240"/>
      <point x="214" y="275"/>
      <point x="332" y="275" type="curve"/>
      <point x="281" y="387" type="line"/>
      <point x="260" y="387"/>
      <point x="242" y="385"/>
      <point x="221" y="381" type="curve"/>
      <point x="193" y="397"/>
      <point x="170" y="429"/>
      <point x="170" y="461" type="curve" smooth="yes"/>
      <point x="170" y="503"/>
      <point x="198" y="536"/>
      <point x="229" y="557" type="curve"/>
      <point x="444" y="557" type="line"/>
      <point x="444" y="506"/>
      <point x="450" y="473"/>
      <point x="450" y="473" type="curve"/>
      <point x="558" y="473" type="line"/>
      <point x="558" y="473"/>
      <point x="564" y="506"/>
      <point x="564" y="557" type="curve"/>
      <point x="756" y="557" type="line"/>
      <point x="756" y="573" type="line"/>
      <point x="729" y="604" type="line"/>
      <point x="683" y="669" type="line"/>
      <point x="-83" y="669" type="line"/>
      <point x="-83" y="653" type="line"/>
      <point x="-56" y="622" type="line"/>
      <point x="-10" y="557" type="line"/>
      <point x="27" y="557" type="line" smooth="yes"/>
      <point x="68" y="557"/>
      <point x="87" y="564"/>
      <point x="87" y="564" type="curve"/>
      <point x="70" y="551"/>
      <point x="40" y="524"/>
      <point x="40" y="481" type="curve" smooth="yes"/>
      <point x="40" y="434"/>
      <point x="80" y="392"/>
      <point x="151" y="357" type="curve"/>
      <point x="151" y="353" type="line"/>
      <point x="88" y="339"/>
      <point x="49" y="299"/>
      <point x="49" y="250" type="curve" smooth="yes"/>
      <point x="49" y="147"/>
      <point x="182" y="25"/>
      <point x="348" y="25" type="curve" smooth="yes"/>
      <point x="524" y="25"/>
      <point x="664" y="152"/>
      <point x="664" y="318" type="curve" smooth="yes"/>
      <point x="664" y="431"/>
      <point x="575" y="511"/>
      <point x="481" y="511" type="curve" smooth="yes"/>
      <point x="414" y="511"/>
      <point x="347" y="472"/>
      <point x="340" y="385" type="curve" smooth="yes"/>
      <point x="340" y="309"/>
      <point x="392" y="240"/>
      <point x="504" y="184" type="curve"/>
    </contour>
  </outline>
</glyph>
<glyph name="dvJA" format="1">
  <advance width="709"/>
  <unicode hex="091C"/>
  <outline>
    <contour>
      <point x="772" y="557" type="line"/>
      <point x="772" y="573" type="line"/>
      <point x="745" y="604" type="line"/>
      <point x="699" y="669" type="line"/>
      <point x="-83" y="669" type="line"/>
      <point x="-83" y="653" type="line"/>
      <point x="-56" y="622" type="line"/>
      <point x="-10" y="557" type="line"/>
    </contour>
    <contour>
      <point x="501" y="590" type="line"/>
      <point x="501" y="457" type="line"/>
      <point x="225" y="457" type="line"/>
      <point x="209" y="429" type="line"/>
      <point x="248" y="378"/>
      <point x="284" y="325"/>
      <point x="284" y="278" type="curve" smooth="yes"/>
      <point x="284" y="238"/>
      <point x="259" y="225"/>
      <point x="234" y="225" type="curve" smooth="yes"/>
      <point x="162" y="225"/>
      <point x="97" y="321"/>
      <point x="57" y="454" type="curve"/>
      <point x="-9" y="426" type="line"/>
      <point x="54" y="239"/>
      <point x="143" y="108"/>
      <point x="268" y="108" type="curve" smooth="yes"/>
      <point x="338" y="108"/>
      <point x="392" y="152"/>
      <point x="392" y="229" type="curve" smooth="yes"/>
      <point x="392" y="279"/>
      <point x="361" y="321"/>
      <point x="347" y="339" type="curve"/>
      <point x="349" y="343" type="line"/>
      <point x="507" y="343" type="line"/>
      <point x="507" y="118"/>
      <point x="501" y="69"/>
      <point x="501" y="69" type="curve"/>
      <point x="565" y="31" type="line"/>
      <point x="611" y="-5" type="line"/>
      <point x="634" y="-5" type="line"/>
      <point x="634" y="590" type="line"/>
    </contour>
  </outline>
</glyph>
<glyph name="dvNYA" format="1">
  <advance width="746"/>
  <unicode hex="091E"/>
  <outline>
    <contour>
      <point x="809" y="557" type="line"/>
      <point x="809" y="573" type="line"/>
      <point x="782" y="604" type="line"/>
      <point x="736" y="669" type="line"/>
      <point x="-83" y="669" type="line"/>
      <point x="-83" y="653" type="line"/>
      <point x="-56" y="622" type="line"/>
      <point x="-10" y="557" type="line"/>
    </contour>
    <contour>
      <point x="281" y="482" type="curve" smooth="yes"/>
      <point x="238" y="482"/>
      <point x="197" y="456"/>
      <point x="170" y="434" type="curve"/>
      <point x="251" y="323" type="line"/>
      <point x="283" y="356"/>
      <point x="319" y="377"/>
      <point x="341" y="377" type="curve" smooth="yes"/>
      <point x="362" y="377"/>
      <point x="372" y="361"/>
      <point x="372" y="339" type="curve" smooth="yes"/>
      <point x="372" y="291"/>
      <point x="330" y="233"/>
      <point x="261" y="233" type="curve" smooth="yes"/>
      <point x="207" y="233"/>
      <point x="133" y="289"/>
      <point x="65" y="446" type="curve"/>
      <point x="-4" y="404" type="line"/>
      <point x="83" y="225"/>
      <point x="186" y="125"/>
      <point x="307" y="125" type="curve" smooth="yes"/>
      <point x="407" y="125"/>
      <point x="472" y="198"/>
      <point x="472" y="286" type="curve" smooth="yes"/>
      <point x="472" y="312"/>
      <point x="468" y="351"/>
      <point x="419" y="409" type="curve" smooth="yes"/>
      <point x="370" y="466"/>
      <point x="331" y="482"/>
    </contour>
    <contour>
      <point x="438" y="252" type="line"/>
      <point x="450" y="248"/>
      <point x="496" y="236"/>
      <point x="542" y="236" type="curve"/>
      <point x="542" y="140"/>
      <point x="538" y="69"/>
      <point x="538" y="69" type="curve"/>
      <point x="602" y="31" type="line"/>
      <point x="648" y="-5" type="line"/>
      <point x="671" y="-5" type="line"/>
      <point x="671" y="588" type="line"/>
      <point x="538" y="588" type="line"/>
      <point x="538" y="351" type="line"/>
      <point x="520" y="345"/>
      <point x="493" y="339"/>
      <point x="453" y="339" type="curve"/>
    </contour>
  </outline>
</glyph>
<glyph name="dvTTA" format="1">
  <advance width="507"/>
  <unicode hex="091F"/>
  <outline>
    <contour>
      <point x="357" y="39" type="move" name="blwm.virama"/>
    </contour>
    <contour>
      <point x="408" y="669" type="move" name="abvm"/>
    </contour>
    <contour>
      <point x="358" y="25" type="move" name="blwm.u"/>
    </contour>
    <contour>
      <point x="435" y="218" type="line"/>
      <point x="390" y="185"/>
      <point x="332" y="160"/>
      <point x="260" y="160" type="curve" smooth="yes"/>
      <point x="178" y="160"/>
      <point x="143" y="198"/>
      <point x="143" y="236" type="curve" smooth="yes"/>
      <point x="143" y="274"/>
      <point x="168" y="293"/>
      <point x="237" y="317" type="curve" smooth="yes"/>
      <point x="299" y="339" type="line"/>
      <point x="399" y="373"/>
      <point x="408" y="393"/>
      <point x="408" y="434" type="curve" smooth="yes"/>
      <point x="408" y="595" type="line"/>
      <point x="273" y="595" type="line"/>
      <point x="273" y="479" type="line" smooth="yes"/>
      <point x="273" y="460"/>
      <point x="269" y="454"/>
      <point x="210" y="437" type="curve" smooth="yes"/>
      <point x="152" y="420" type="line" smooth="yes"/>
      <point x="59" y="393"/>
      <point x="24" y="348"/>
      <point x="24" y="292" type="curve" smooth="yes"/>
      <point x="24" y="170"/>
      <point x="177" y="56"/>
      <point x="310" y="56" type="curve" smooth="yes"/>
      <point x="399" y="56"/>
      <point x="459" y="77"/>
      <point x="507" y="110" type="curve"/>
    </contour>
    <contour>
      <point x="-10" y="557" type="line"/>
      <point x="570" y="557" type="line"/>
      <point x="570" y="573" type="line"/>
      <point x="543" y="604" type="line"/>
      <point x="497" y="669" type="line"/>
      <point x="-83" y="669" type="line"/>
      <point x="-83" y="653" type="line"/>
      <point x="-56" y="622" type="line"/>
    </contour>
  </outline>
</glyph>
<glyph name="dvTTHA" format="1">
  <advance width="556"/>
  <unicode hex="0920"/>
  <outline>
    <contour>
      <point x="359" y="9" type="move" name="blwm.virama"/>
    </contour>
    <contour>
      <point x="380" y="670" type="move" name="abvm"/>
    </contour>
    <contour>
      <point x="358" y="20" type="move" name="blwm.u"/>
    </contour>
    <contour>
      <point x="-10" y="557" type="line"/>
      <point x="619" y="557" type="line"/>
      <point x="619" y="573" type="line"/>
      <point x="592" y="604" type="line"/>
      <point x="546" y="669" type="line"/>
      <point x="-83" y="669" type="line"/>
      <point x="-83" y="653" type="line"/>
      <point x="-56" y="622" type="line"/>
    </contour>
    <contour>
      <point x="229" y="323" type="curve" smooth="yes"/>
      <point x="288" y="340"/>
      <point x="329" y="354"/>
      <point x="349" y="354" type="curve" smooth="yes"/>
      <point x="383" y="354"/>
      <point x="415" y="315"/>
      <point x="415" y="270" type="curve" smooth="yes"/>
      <point x="415" y="202"/>
      <point x="351" y="146"/>
      <point x="257" y="146" type="curve" smooth="yes"/>
      <point x="176" y="146"/>
      <point x="135" y="194"/>
      <point x="135" y="236" type="curve" smooth="yes"/>
      <point x="135" y="281"/>
      <point x="169" y="306"/>
    </contour>
    <contour>
      <point x="266" y="561" type="line"/>
      <point x="280" y="547"/>
      <point x="292" y="529"/>
      <point x="292" y="510" type="curve" smooth="yes"/>
      <point x="292" y="481"/>
      <point x="282" y="456"/>
      <point x="221" y="442" type="curve" smooth="yes"/>
      <point x="166" y="429" type="line" smooth="yes"/>
      <point x="58" y="404"/>
      <point x="24" y="355"/>
      <point x="24" y="292" type="curve" smooth="yes"/>
      <point x="24" y="155"/>
      <point x="181" y="47"/>
      <point x="313" y="47" type="curve" smooth="yes"/>
      <point x="451" y="47"/>
      <point x="535" y="127"/>
      <point x="535" y="224" type="curve" smooth="yes"/>
      <point x="535" y="296"/>
      <point x="495" y="347"/>
      <point x="425" y="402" type="curve" smooth="yes"/>
      <point x="420" y="406"/>
      <point x="408" y="416"/>
      <point x="408" y="428" type="curve" smooth="yes"/>
      <point x="408" y="442"/>
      <point x="419" y="451"/>
      <point x="419" y="485" type="curve" smooth="yes"/>
      <point x="419" y="516"/>
      <point x="404" y="545"/>
      <point x="390" y="561" type="curve"/>
    </contour>
  </outline>
</glyph>
<glyph name="dvDDHA" format="1">
  <advance width="552"/>
  <unicode hex="0922"/>
  <outline>
    <contour>
      <point x="381" y="-11" type="move" name="blwm.virama"/>
    </contour>
    <contour>
      <point x="356" y="669" type="move" name="abvm.candra"/>
    </contour>
    <contour>
      <point x="468" y="669" type="move" name="abvm.e"/>
    </contour>
    <contour>
      <point x="381" y="-11" type="move" name="blwm.u"/>
    </contour>
    <contour>
      <point x="242" y="367" type="curve"/>
      <point x="398" y="417" type="line" smooth="yes"/>
      <point x="453" y="435"/>
      <point x="468" y="460"/>
      <point x="468" y="497" type="curve" smooth="yes"/>
      <point x="468" y="552"/>
      <point x="468" y="586"/>
      <point x="468" y="586" type="curve"/>
      <point x="340" y="586" type="line"/>
      <point x="340" y="536" type="line" smooth="yes"/>
      <point x="340" y="517"/>
      <point x="331" y="512"/>
      <point x="286" y="501" type="curve" smooth="yes"/>
      <point x="207" y="481" type="line" smooth="yes"/>
      <point x="54" y="442"/>
      <point x="24" y="372"/>
      <point x="24" y="307" type="curve" smooth="yes"/>
      <point x="24" y="178"/>
      <point x="193" y="17"/>
      <point x="348" y="17" type="curve" smooth="yes"/>
      <point x="464" y="17"/>
      <point x="532" y="85"/>
      <point x="532" y="170" type="curve" smooth="yes"/>
      <point x="532" y="261"/>
      <point x="438" y="343"/>
      <point x="354" y="343" type="curve" smooth="yes"/>
      <point x="287" y="343"/>
      <point x="237" y="295"/>
      <point x="237" y="230" type="curve" smooth="yes"/>
      <point x="237" y="180"/>
      <point x="267" y="133"/>
      <point x="289" y="105" type="curve"/>
      <point x="346" y="103" type="line"/>
      <point x="338" y="118"/>
      <point x="334" y="137"/>
      <point x="334" y="157" type="curve" smooth="yes"/>
      <point x="334" y="200"/>
      <point x="355" y="244"/>
      <point x="403" y="244" type="curve" smooth="yes"/>
      <point x="428" y="244"/>
      <point x="441" y="228"/>
      <point x="441" y="207" type="curve" smooth="yes"/>
      <point x="441" y="161"/>
      <point x="400" y="115"/>
      <point x="310" y="115" type="curve" smooth="yes"/>
      <point x="219" y="115"/>
      <point x="145" y="172"/>
      <point x="145" y="257" type="curve" smooth="yes"/>
      <point x="145" y="312"/>
      <point x="181" y="347"/>
    </contour>
    <contour>
      <point x="-10" y="557" type="line"/>
      <point x="615" y="557" type="line"/>
      <point x="615" y="573" type="line"/>
      <point x="588" y="604" type="line"/>
      <point x="542" y="669" type="line"/>
      <point x="-83" y="669" type="line"/>
      <point x="-83" y="653" type="line"/>
      <point x="-56" y="622" type="line"/>
    </contour>
  </outline>
</glyph>
<glyph name="dvNNA" format="1">
  <advance width="765"/>
  <unicode hex="0923"/>
  <outline>
    <contour>
      <point x="755" y="669" type="line"/>
      <point x="-83" y="669" type="line"/>
      <point x="-83" y="653" type="line"/>
      <point x="-56" y="622" type="line"/>
      <point x="-10" y="557" type="line"/>
      <point x="828" y="557" type="line"/>
      <point x="828" y="573" type="line"/>
      <point x="801" y="604" type="line"/>
    </contour>
    <contour>
      <point x="557" y="586" type="line"/>
      <point x="557" y="69" type="line"/>
      <point x="621" y="31" type="line"/>
      <point x="667" y="-5" type="line"/>
      <point x="690" y="-5" type="line"/>
      <point x="690" y="586" type="line"/>
    </contour>
    <contour>
      <point x="302" y="585" type="line"/>
      <point x="302" y="367" type="line" smooth="yes"/>
      <point x="302" y="296"/>
      <point x="268" y="274"/>
      <point x="228" y="274" type="curve" smooth="yes"/>
      <point x="199" y="274"/>
      <point x="178" y="296"/>
      <point x="178" y="331" type="curve" smooth="yes"/>
      <point x="178" y="585" type="line"/>
      <point x="45" y="585" type="line"/>
      <point x="45" y="371" type="line" smooth="yes"/>
      <point x="45" y="310"/>
      <point x="87" y="268"/>
      <point x="139" y="234" type="curve" smooth="yes"/>
      <point x="187" y="202"/>
      <point x="241" y="179"/>
      <point x="286" y="179" type="curve" smooth="yes"/>
      <point x="382" y="179"/>
      <point x="435" y="234"/>
      <point x="435" y="324" type="curve" smooth="yes"/>
      <point x="435" y="585" type="line"/>
    </contour>
  </outline>
</glyph>
<glyph name="dvTA" format="1">
  <advance width="552"/>
  <unicode hex="0924"/>
  <outline>
    <contour>
      <point x="245" y="45" type="line"/>
      <point x="183" y="116"/>
      <point x="152" y="185"/>
      <point x="152" y="239" type="curve" smooth="yes"/>
      <point x="152" y="292"/>
      <point x="181" y="337"/>
      <point x="271" y="337" type="curve" smooth="yes"/>
      <point x="348" y="337" type="line"/>
      <point x="348" y="155"/>
      <point x="344" y="69"/>
      <point x="344" y="69" type="curve"/>
      <point x="408" y="31" type="line"/>
      <point x="454" y="-5" type="line"/>
      <point x="477" y="-5" type="line"/>
      <point x="477" y="595" type="line"/>
      <point x="344" y="595" type="line"/>
      <point x="344" y="452" type="line"/>
      <point x="218" y="452" type="line" smooth="yes"/>
      <point x="108" y="452"/>
      <point x="35" y="389"/>
      <point x="35" y="285" type="curve" smooth="yes"/>
      <point x="35" y="184"/>
      <point x="108" y="85"/>
      <point x="171" y="8" type="curve"/>
    </contour>
    <contour>
      <point x="-10" y="557" type="line"/>
      <point x="615" y="557" type="line"/>
      <point x="615" y="573" type="line"/>
      <point x="588" y="604" type="line"/>
      <point x="542" y="669" type="line"/>
      <point x="-83" y="669" type="line"/>
      <point x="-83" y="653" type="line"/>
      <point x="-56" y="622" type="line"/>
    </contour>
  </outline>
</glyph>
<glyph name="dvTHA" format="1">
  <advance width="660"/>
  <unicode hex="0925"/>
  <outline>
    <contour>
      <point x="462" y="193" type="curve"/>
      <point x="459" y="138"/>
      <point x="452" y="69"/>
      <point x="452" y="69" type="curve"/>
      <point x="516" y="31" type="line"/>
      <point x="562" y="-5" type="line"/>
      <point x="585" y="-5" type="line"/>
      <point x="585" y="571" type="line"/>
      <point x="457" y="571" type="line"/>
      <point x="457" y="327" type="line"/>
      <point x="413" y="264"/>
      <point x="323" y="220"/>
      <point x="247" y="220" type="curve" smooth="yes"/>
      <point x="199" y="220"/>
      <point x="166" y="242"/>
      <point x="166" y="262" type="curve" smooth="yes"/>
      <point x="166" y="270"/>
      <point x="177" y="276"/>
      <point x="186" y="280" type="curve"/>
      <point x="325" y="343"/>
      <point x="384" y="410"/>
      <point x="384" y="481" type="curve" smooth="yes"/>
      <point x="384" y="593"/>
      <point x="271" y="670"/>
      <point x="184" y="670" type="curve" smooth="yes"/>
      <point x="105" y="670"/>
      <point x="47" y="619"/>
      <point x="47" y="549" type="curve" smooth="yes"/>
      <point x="47" y="465"/>
      <point x="131" y="410"/>
      <point x="194" y="393" type="curve"/>
      <point x="236" y="424" type="line"/>
      <point x="196" y="439"/>
      <point x="167" y="476"/>
      <point x="167" y="514" type="curve" smooth="yes"/>
      <point x="167" y="555"/>
      <point x="193" y="580"/>
      <point x="232" y="580" type="curve" smooth="yes"/>
      <point x="256" y="580"/>
      <point x="278" y="562"/>
      <point x="278" y="535" type="curve" smooth="yes"/>
      <point x="278" y="469"/>
      <point x="218" y="413"/>
      <point x="10" y="333" type="curve"/>
      <point x="76" y="204"/>
      <point x="175" y="117"/>
      <point x="300" y="117" type="curve" smooth="yes"/>
      <point x="372" y="117"/>
      <point x="433" y="155"/>
    </contour>
    <contour>
      <point x="723" y="557" type="line"/>
      <point x="723" y="573" type="line"/>
      <point x="696" y="604" type="line"/>
      <point x="650" y="669" type="line"/>
      <point x="384" y="669" type="line"/>
      <point x="384" y="653" type="line"/>
      <point x="411" y="622" type="line"/>
      <point x="457" y="557" type="line"/>
    </contour>
  </outline>
</glyph>
<glyph name="dvDA" format="1">
  <advance width="523"/>
  <unicode hex="0926"/>
  <outline>
    <contour>
      <point x="508" y="-70" type="move" name="blwm.virama"/>
    </contour>
    <contour>
      <point x="446" y="669" type="move" name="abvm"/>
    </contour>
    <contour>
      <point x="497" y="-65" type="move" name="blwm.u"/>
    </contour>
    <contour>
      <point x="211" y="465" type="curve" smooth="yes"/>
      <point x="111" y="445"/>
      <point x="24" y="408"/>
      <point x="24" y="308" type="curve" smooth="yes"/>
      <point x="24" y="170"/>
      <point x="191" y="61"/>
      <point x="316" y="61" type="curve" smooth="yes"/>
      <point x="351" y="61"/>
      <point x="371" y="65"/>
      <point x="384" y="69" type="curve"/>
      <point x="442" y="-71" type="line"/>
      <point x="549" y="-40" type="line"/>
      <point x="451" y="99" type="line"/>
      <point x="486" y="118"/>
      <point x="499" y="141"/>
      <point x="499" y="166" type="curve" smooth="yes"/>
      <point x="499" y="219"/>
      <point x="445" y="258"/>
      <point x="373" y="284" type="curve"/>
      <point x="308" y="248" type="line"/>
      <point x="336" y="177" type="line"/>
      <point x="318" y="167"/>
      <point x="292" y="159"/>
      <point x="251" y="159" type="curve" smooth="yes"/>
      <point x="196" y="159"/>
      <point x="141" y="196"/>
      <point x="141" y="255" type="curve" smooth="yes"/>
      <point x="141" y="308"/>
      <point x="186" y="337"/>
      <point x="267" y="357" type="curve" smooth="yes"/>
      <point x="334" y="374" type="line" smooth="yes"/>
      <point x="429" y="398"/>
      <point x="446" y="417"/>
      <point x="446" y="465" type="curve" smooth="yes"/>
      <point x="446" y="585" type="line"/>
      <point x="316" y="585" type="line"/>
      <point x="316" y="514" type="line" smooth="yes"/>
      <point x="316" y="490"/>
      <point x="312" y="485"/>
    </contour>
    <contour>
      <point x="-10" y="557" type="line"/>
      <point x="586" y="557" type="line"/>
      <point x="586" y="573" type="line"/>
      <point x="559" y="604" type="line"/>
      <point x="513" y="669" type="line"/>
      <point x="-83" y="669" type="line"/>
      <point x="-83" y="653" type="line"/>
      <point x="-56" y="622" type="line"/>
    </contour>
  </outline>
</glyph>
<glyph name="dvDHA" format="1">
  <advance width="647"/>
  <unicode hex="0927"/>
  <outline>
    <contour>
      <point x="637" y="669" type="line"/>
      <point x="300" y="669" type="line"/>
      <point x="300" y="653" type="line"/>
      <point x="327" y="622" type="line"/>
      <point x="373" y="557" type="line"/>
      <point x="440" y="557" type="line"/>
      <point x="440" y="314" type="line"/>
      <point x="408" y="273"/>
      <point x="336" y="212"/>
      <point x="244" y="212" type="curve" smooth="yes"/>
      <point x="196" y="212"/>
      <point x="169" y="239"/>
      <point x="169" y="266" type="curve" smooth="yes"/>
      <point x="169" y="310"/>
      <point x="256" y="333"/>
      <point x="363" y="341" type="curve"/>
      <point x="321" y="447" type="line"/>
      <point x="296" y="447"/>
      <point x="249" y="441"/>
      <point x="223" y="436" type="curve"/>
      <point x="201" y="448"/>
      <point x="179" y="470"/>
      <point x="179" y="500" type="curve" smooth="yes"/>
      <point x="179" y="529"/>
      <point x="194" y="548"/>
      <point x="238" y="594" type="curve"/>
      <point x="184" y="669" type="line"/>
      <point x="-83" y="669" type="line"/>
      <point x="-83" y="653" type="line"/>
      <point x="-56" y="622" type="line"/>
      <point x="-10" y="557" type="line"/>
      <point x="66" y="557" type="line"/>
      <point x="52" y="544"/>
      <point x="41" y="526"/>
      <point x="41" y="504" type="curve" smooth="yes"/>
      <point x="41" y="461"/>
      <point x="82" y="432"/>
      <point x="146" y="407" type="curve"/>
      <point x="146" y="403" type="line"/>
      <point x="91" y="386"/>
      <point x="49" y="363"/>
      <point x="49" y="307" type="curve" smooth="yes"/>
      <point x="49" y="229"/>
      <point x="183" y="107"/>
      <point x="288" y="107" type="curve" smooth="yes"/>
      <point x="365" y="107"/>
      <point x="414" y="140"/>
      <point x="448" y="169" type="curve"/>
      <point x="448" y="125"/>
      <point x="442" y="70"/>
      <point x="442" y="70" type="curve"/>
      <point x="503" y="31" type="line"/>
      <point x="549" y="-5" type="line"/>
      <point x="572" y="-5" type="line"/>
      <point x="572" y="557" type="line"/>
      <point x="710" y="557" type="line"/>
      <point x="710" y="573" type="line"/>
      <point x="683" y="604" type="line"/>
    </contour>
  </outline>
</glyph>
<glyph name="dvNA" format="1">
  <advance width="521"/>
  <unicode hex="0928"/>
  <outline>
    <contour>
      <point x="377" y="31" type="line"/>
      <point x="423" y="-5" type="line"/>
      <point x="446" y="-5" type="line"/>
      <point x="446" y="591" type="line"/>
      <point x="313" y="591" type="line"/>
      <point x="313" y="419" type="line"/>
      <point x="64" y="419" type="line" smooth="yes"/>
      <point x="39" y="419"/>
      <point x="15" y="401"/>
      <point x="15" y="368" type="curve" smooth="yes"/>
      <point x="15" y="313"/>
      <point x="44" y="250"/>
      <point x="87" y="201" type="curve"/>
      <point x="154" y="206" type="line"/>
      <point x="154" y="206"/>
      <point x="151" y="233"/>
      <point x="151" y="261" type="curve" smooth="yes"/>
      <point x="151" y="300"/>
      <point x="155" y="306"/>
      <point x="169" y="306" type="curve" smooth="yes"/>
      <point x="318" y="306" type="line"/>
      <point x="318" y="188"/>
      <point x="313" y="69"/>
      <point x="313" y="69" type="curve"/>
    </contour>
    <contour>
      <point x="-10" y="557" type="line"/>
      <point x="584" y="557" type="line"/>
      <point x="584" y="573" type="line"/>
      <point x="557" y="604" type="line"/>
      <point x="511" y="669" type="line"/>
      <point x="-83" y="669" type="line"/>
      <point x="-83" y="653" type="line"/>
      <point x="-56" y="622" type="line"/>
    </contour>
  </outline>
</glyph>
<glyph name="dvPA" format="1">
  <advance width="564"/>
  <unicode hex="092A"/>
  <outline>
    <contour>
      <point x="216" y="287" type="curve" smooth="yes"/>
      <point x="196" y="287"/>
      <point x="177" y="300"/>
      <point x="177" y="324" type="curve" smooth="yes"/>
      <point x="177" y="592" type="line"/>
      <point x="45" y="592" type="line"/>
      <point x="45" y="397" type="line" smooth="yes"/>
      <point x="45" y="333"/>
      <point x="64" y="298"/>
      <point x="119" y="256" type="curve" smooth="yes"/>
      <point x="171" y="216"/>
      <point x="212" y="191"/>
      <point x="258" y="191" type="curve" smooth="yes"/>
      <point x="293" y="191"/>
      <point x="319" y="198"/>
      <point x="361" y="223" type="curve"/>
      <point x="361" y="144"/>
      <point x="353" y="68"/>
      <point x="353" y="68" type="curve"/>
      <point x="420" y="31" type="line"/>
      <point x="466" y="-5" type="line"/>
      <point x="489" y="-5" type="line"/>
      <point x="489" y="592" type="line"/>
      <point x="358" y="592" type="line"/>
      <point x="358" y="374" type="line"/>
      <point x="294" y="296"/>
      <point x="249" y="287"/>
    </contour>
    <contour>
      <point x="-10" y="557" type="line"/>
      <point x="627" y="557" type="line"/>
      <point x="627" y="573" type="line"/>
      <point x="600" y="604" type="line"/>
      <point x="554" y="669" type="line"/>
      <point x="-83" y="669" type="line"/>
      <point x="-83" y="653" type="line"/>
      <point x="-56" y="622" type="line"/>
    </contour>
  </outline>
</glyph>
<glyph name="dvPHA" format="1">
  <advance width="764"/>
  <unicode hex="092B"/>
  <outline>
    <contour>
      <point x="449" y="-5" type="move" name="blwm.virama"/>
    </contour>
    <contour>
      <point x="450" y="669" type="move" name="abvm"/>
    </contour>
    <contour>
      <point x="449" y="-5" type="move" name="blwm.u"/>
    </contour>
    <contour>
      <point x="448" y="222" type="line"/>
      <point x="448" y="297"/>
      <point x="497" y="352"/>
      <point x="562" y="352" type="curve" smooth="yes"/>
      <point x="610" y="352"/>
      <point x="634" y="318"/>
      <point x="634" y="283" type="curve" smooth="yes"/>
      <point x="634" y="230"/>
      <point x="593" y="198"/>
      <point x="539" y="198" type="curve" smooth="yes"/>
      <point x="530" y="198"/>
      <point x="520" y="199"/>
      <point x="510" y="201" type="curve"/>
      <point x="505" y="192" type="line"/>
      <point x="563" y="85" type="line"/>
      <point x="574" y="84"/>
      <point x="585" y="84"/>
      <point x="597" y="84" type="curve" smooth="yes"/>
      <point x="678" y="84"/>
      <point x="742" y="138"/>
      <point x="742" y="236" type="curve" smooth="yes"/>
      <point x="742" y="289"/>
      <point x="715" y="340"/>
      <point x="684" y="379" type="curve" smooth="yes"/>
      <point x="642" y="431"/>
      <point x="592" y="468"/>
      <point x="537" y="468" type="curve" smooth="yes"/>
      <point x="496" y="468"/>
      <point x="467" y="452"/>
      <point x="448" y="433" type="curve"/>
      <point x="448" y="433"/>
      <point x="450" y="478"/>
      <point x="450" y="523" type="curve" smooth="yes"/>
      <point x="450" y="587" type="line"/>
      <point x="322" y="587" type="line"/>
      <point x="322" y="359" type="line"/>
      <point x="295" y="333"/>
      <point x="252" y="309"/>
      <point x="211" y="309" type="curve" smooth="yes"/>
      <point x="187" y="309"/>
      <point x="172" y="321"/>
      <point x="172" y="356" type="curve" smooth="yes"/>
      <point x="172" y="587" type="line"/>
      <point x="40" y="587" type="line"/>
      <point x="40" y="409" type="line" smooth="yes"/>
      <point x="40" y="337"/>
      <point x="85" y="297"/>
      <point x="143" y="256" type="curve" smooth="yes"/>
      <point x="180" y="230"/>
      <point x="213" y="208"/>
      <point x="267" y="208" type="curve" smooth="yes"/>
      <point x="287" y="208"/>
      <point x="306" y="212"/>
      <point x="325" y="219" type="curve"/>
      <point x="323" y="141"/>
      <point x="317" y="73"/>
      <point x="317" y="73" type="curve"/>
      <point x="378" y="34" type="line"/>
      <point x="425" y="-5" type="line"/>
      <point x="448" y="-5" type="line"/>
    </contour>
    <contour>
      <point x="827" y="557" type="line"/>
      <point x="827" y="573" type="line"/>
      <point x="800" y="604" type="line"/>
      <point x="754" y="669" type="line"/>
      <point x="-83" y="669" type="line"/>
      <point x="-83" y="653" type="line"/>
      <point x="-56" y="622" type="line"/>
      <point x="-10" y="557" type="line"/>
    </contour>
  </outline>
</glyph>
<glyph name="dvBA" format="1">
  <advance width="602"/>
  <unicode hex="092C"/>
  <outline>
    <contour>
      <point x="665" y="557" type="line"/>
      <point x="665" y="573" type="line"/>
      <point x="638" y="604" type="line"/>
      <point x="592" y="669" type="line"/>
      <point x="-83" y="669" type="line"/>
      <point x="-83" y="653" type="line"/>
      <point x="-56" y="622" type="line"/>
      <point x="-10" y="557" type="line"/>
    </contour>
    <contour>
      <point x="399" y="609" type="line"/>
      <point x="399" y="390" type="line" smooth="yes"/>
      <point x="399" y="277"/>
      <point x="321" y="204"/>
      <point x="229" y="204" type="curve" smooth="yes"/>
      <point x="165" y="204"/>
      <point x="129" y="249"/>
      <point x="129" y="294" type="curve" smooth="yes"/>
      <point x="129" y="352"/>
      <point x="177" y="385"/>
      <point x="239" y="385" type="curve" smooth="yes"/>
      <point x="276" y="385"/>
      <point x="305" y="378"/>
      <point x="336" y="366" type="curve"/>
      <point x="344" y="376" type="line"/>
      <point x="291" y="482" type="line"/>
      <point x="264" y="494"/>
      <point x="227" y="501"/>
      <point x="199" y="501" type="curve" smooth="yes"/>
      <point x="98" y="501"/>
      <point x="25" y="434"/>
      <point x="25" y="339" type="curve" smooth="yes"/>
      <point x="25" y="285"/>
      <point x="51" y="238"/>
      <point x="94" y="191" type="curve" smooth="yes"/>
      <point x="146" y="132"/>
      <point x="205" y="102"/>
      <point x="269" y="102" type="curve" smooth="yes"/>
      <point x="340" y="102"/>
      <point x="386" y="138"/>
      <point x="409" y="170" type="curve"/>
      <point x="407" y="141"/>
      <point x="397" y="70"/>
      <point x="397" y="70" type="curve"/>
      <point x="458" y="31" type="line"/>
      <point x="505" y="-5" type="line"/>
      <point x="527" y="-5" type="line"/>
      <point x="527" y="609" type="line"/>
    </contour>
    <contour>
      <point x="134" y="393" type="line"/>
      <point x="297" y="191" type="line"/>
      <point x="368" y="207" type="line"/>
      <point x="200" y="414" type="line"/>
    </contour>
  </outline>
</glyph>
<glyph name="dvBHA" format="1">
  <advance width="579"/>
  <unicode hex="092D"/>
  <outline>
    <contour>
      <point x="216" y="387" type="line"/>
      <point x="216" y="487" type="line" smooth="yes"/>
      <point x="216" y="545"/>
      <point x="176" y="591"/>
      <point x="129" y="628" type="curve" smooth="yes"/>
      <point x="94" y="656"/>
      <point x="61" y="675"/>
      <point x="22" y="675" type="curve" smooth="yes"/>
      <point x="-25" y="675"/>
      <point x="-53" y="662"/>
      <point x="-81" y="646" type="curve"/>
      <point x="-6" y="523" type="line"/>
      <point x="18" y="544"/>
      <point x="38" y="559"/>
      <point x="67" y="559" type="curve" smooth="yes"/>
      <point x="81" y="559"/>
      <point x="89" y="552"/>
      <point x="89" y="540" type="curve"/>
      <point x="89" y="484" type="line" smooth="yes"/>
      <point x="89" y="425"/>
      <point x="97" y="380"/>
      <point x="97" y="380" type="curve"/>
      <point x="47" y="358"/>
      <point x="44" y="343"/>
      <point x="44" y="324" type="curve" smooth="yes"/>
      <point x="44" y="300"/>
      <point x="69" y="252"/>
      <point x="150" y="179" type="curve"/>
      <point x="216" y="179" type="line"/>
      <point x="216" y="276" type="line"/>
      <point x="379" y="276" type="line"/>
      <point x="379" y="182"/>
      <point x="370" y="69"/>
      <point x="370" y="69" type="curve"/>
      <point x="435" y="31" type="line"/>
      <point x="481" y="-5" type="line"/>
      <point x="504" y="-5" type="line"/>
      <point x="504" y="596" type="line"/>
      <point x="373" y="596" type="line"/>
      <point x="373" y="387" type="line"/>
    </contour>
    <contour>
      <point x="642" y="557" type="line"/>
      <point x="642" y="573" type="line"/>
      <point x="615" y="604" type="line"/>
      <point x="569" y="669" type="line"/>
      <point x="217" y="669" type="line"/>
      <point x="217" y="653" type="line"/>
      <point x="244" y="622" type="line"/>
      <point x="290" y="557" type="line"/>
    </contour>
  </outline>
</glyph>
<glyph name="dvMA" format="1">
  <advance width="564"/>
  <unicode hex="092E"/>
  <outline>
    <contour>
      <point x="358" y="596" type="line"/>
      <point x="358" y="387" type="line"/>
      <point x="202" y="387" type="line"/>
      <point x="202" y="596" type="line"/>
      <point x="75" y="596" type="line"/>
      <point x="75" y="484" type="line" smooth="yes"/>
      <point x="75" y="425"/>
      <point x="83" y="380"/>
      <point x="83" y="380" type="curve"/>
      <point x="32" y="357"/>
      <point x="30" y="343"/>
      <point x="30" y="324" type="curve" smooth="yes"/>
      <point x="30" y="300"/>
      <point x="55" y="249"/>
      <point x="136" y="176" type="curve"/>
      <point x="202" y="176" type="line"/>
      <point x="202" y="276" type="line"/>
      <point x="364" y="276" type="line"/>
      <point x="364" y="182"/>
      <point x="355" y="69"/>
      <point x="355" y="69" type="curve"/>
      <point x="420" y="31" type="line"/>
      <point x="466" y="-5" type="line"/>
      <point x="489" y="-5" type="line"/>
      <point x="489" y="596" type="line"/>
    </contour>
    <contour>
      <point x="627" y="557" type="line"/>
      <point x="627" y="573" type="line"/>
      <point x="600" y="604" type="line"/>
      <point x="554" y="669" type="line"/>
      <point x="-83" y="669" type="line"/>
      <point x="-83" y="653" type="line"/>
      <point x="-56" y="622" type="line"/>
      <point x="-10" y="557" type="line"/>
    </contour>
  </outline>
</glyph>
<glyph name="dvYA" format="1">
  <advance width="576"/>
  <unicode hex="092F"/>
  <outline>
    <contour>
      <point x="368" y="589" type="line"/>
      <point x="368" y="321" type="line"/>
      <point x="339" y="277"/>
      <point x="280" y="248"/>
      <point x="227" y="248" type="curve" smooth="yes"/>
      <point x="170" y="248"/>
      <point x="157" y="284"/>
      <point x="157" y="293" type="curve" smooth="yes"/>
      <point x="157" y="299"/>
      <point x="161" y="304"/>
      <point x="166" y="307" type="curve" smooth="yes"/>
      <point x="242" y="356"/>
      <point x="268" y="391"/>
      <point x="268" y="434" type="curve" smooth="yes"/>
      <point x="268" y="471"/>
      <point x="243" y="511"/>
      <point x="196" y="557" type="curve"/>
      <point x="639" y="557" type="line"/>
      <point x="639" y="573" type="line"/>
      <point x="612" y="604" type="line"/>
      <point x="566" y="669" type="line"/>
      <point x="-83" y="669" type="line"/>
      <point x="-83" y="653" type="line"/>
      <point x="-56" y="622" type="line"/>
      <point x="-10" y="557" type="line"/>
      <point x="105" y="557" type="line"/>
      <point x="127" y="531"/>
      <point x="147" y="503"/>
      <point x="147" y="467" type="curve" smooth="yes"/>
      <point x="147" y="434"/>
      <point x="102" y="395"/>
      <point x="2" y="349" type="curve"/>
      <point x="57" y="262"/>
      <point x="142" y="142"/>
      <point x="263" y="142" type="curve" smooth="yes"/>
      <point x="311" y="142"/>
      <point x="348" y="156"/>
      <point x="373" y="174" type="curve"/>
      <point x="373" y="128"/>
      <point x="368" y="69"/>
      <point x="368" y="69" type="curve"/>
      <point x="432" y="31" type="line"/>
      <point x="478" y="-5" type="line"/>
      <point x="501" y="-5" type="line"/>
      <point x="501" y="589" type="line"/>
    </contour>
  </outline>
</glyph>
<glyph name="dvRA" format="1">
  <advance width="347"/>
  <unicode hex="0930"/>
  <outline>
    <contour>
      <point x="275" y="669" type="move" name="abvm"/>
    </contour>
    <contour>
      <point x="245" y="-5" type="move" name="blwm.u"/>
    </contour>
    <contour>
      <point x="348" y="20" type="line"/>
      <point x="272" y="98"/>
      <point x="182" y="197"/>
      <point x="182" y="216" type="curve" smooth="yes"/>
      <point x="182" y="225"/>
      <point x="186" y="228"/>
      <point x="194" y="234" type="curve" smooth="yes"/>
      <point x="259" y="287"/>
      <point x="275" y="315"/>
      <point x="275" y="356" type="curve" smooth="yes"/>
      <point x="275" y="583" type="line"/>
      <point x="142" y="583" type="line"/>
      <point x="142" y="394" type="line" smooth="yes"/>
      <point x="142" y="380"/>
      <point x="135" y="364"/>
      <point x="107" y="364" type="curve" smooth="yes"/>
      <point x="96" y="364"/>
      <point x="77" y="368"/>
      <point x="61" y="373" type="curve"/>
      <point x="16" y="320" type="line"/>
      <point x="29" y="293"/>
      <point x="63" y="237"/>
      <point x="134" y="151" type="curve" smooth="yes"/>
      <point x="275" y="-21" type="line"/>
    </contour>
    <contour>
      <point x="-10" y="557" type="line"/>
      <point x="410" y="557" type="line"/>
      <point x="410" y="573" type="line"/>
      <point x="383" y="604" type="line"/>
      <point x="337" y="669" type="line"/>
      <point x="-83" y="669" type="line"/>
      <point x="-83" y="653" type="line"/>
      <point x="-56" y="622" type="line"/>
    </contour>
  </outline>
</glyph>
<glyph name="dvRxA" format="1">
  <advance width="367"/>
  <unicode hex="0931"/>
  <outline>
    <contour>
      <point x="340" y="-57" type="move" name="blwm.virama"/>
    </contour>
    <contour>
      <point x="295" y="669" type="move" name="abvm"/>
    </contour>
    <contour>
      <point x="340" y="-66" type="move" name="blwm.u"/>
    </contour>
    <contour>
      <point x="368" y="20" type="line"/>
      <point x="292" y="98"/>
      <point x="202" y="197"/>
      <point x="202" y="216" type="curve" smooth="yes"/>
      <point x="202" y="225"/>
      <point x="206" y="228"/>
      <point x="214" y="234" type="curve" smooth="yes"/>
      <point x="279" y="287"/>
      <point x="295" y="315"/>
      <point x="295" y="356" type="curve" smooth="yes"/>
      <point x="295" y="583" type="line"/>
      <point x="162" y="583" type="line"/>
      <point x="162" y="394" type="line" smooth="yes"/>
      <point x="162" y="380"/>
      <point x="155" y="364"/>
      <point x="127" y="364" type="curve" smooth="yes"/>
      <point x="116" y="364"/>
      <point x="97" y="368"/>
      <point x="81" y="373" type="curve"/>
      <point x="36" y="320" type="line"/>
      <point x="49" y="293"/>
      <point x="83" y="237"/>
      <point x="154" y="151" type="curve" smooth="yes"/>
      <point x="295" y="-21" type="line"/>
    </contour>
    <contour>
      <point x="75" y="96" type="line"/>
      <point x="-19" y="1" type="line"/>
      <point x="77" y="-95" type="line"/>
      <point x="172" y="0" type="line"/>
    </contour>
    <contour>
      <point x="-10" y="557" type="line"/>
      <point x="430" y="557" type="line"/>
      <point x="430" y="573" type="line"/>
      <point x="403" y="604" type="line"/>
      <point x="357" y="669" type="line"/>
      <point x="-83" y="669" type="line"/>
      <point x="-83" y="653" type="line"/>
      <point x="-56" y="622" type="line"/>
    </contour>
  </outline>
</glyph>
<glyph name="dvLA" format="1">
  <advance width="734"/>
  <unicode hex="0932"/>
  <outline>
    <contour>
      <point x="419" y="181" type="line"/>
      <point x="410" y="209"/>
      <point x="403" y="237"/>
      <point x="403" y="267" type="curve" smooth="yes"/>
      <point x="403" y="319"/>
      <point x="430" y="364"/>
      <point x="490" y="364" type="curve" smooth="yes"/>
      <point x="506" y="364"/>
      <point x="522" y="361"/>
      <point x="531" y="359" type="curve"/>
      <point x="531" y="189"/>
      <point x="525" y="69"/>
      <point x="525" y="69" type="curve"/>
      <point x="590" y="31" type="line"/>
      <point x="636" y="-5" type="line"/>
      <point x="659" y="-5" type="line"/>
      <point x="659" y="590" type="line"/>
      <point x="526" y="590" type="line"/>
      <point x="526" y="438" type="line"/>
      <point x="500" y="452"/>
      <point x="466" y="459"/>
      <point x="438" y="459" type="curve" smooth="yes"/>
      <point x="391" y="459"/>
      <point x="343" y="437"/>
      <point x="317" y="394" type="curve"/>
      <point x="284" y="426"/>
      <point x="234" y="456"/>
      <point x="176" y="456" type="curve" smooth="yes"/>
      <point x="86" y="456"/>
      <point x="26" y="398"/>
      <point x="26" y="310" type="curve" smooth="yes"/>
      <point x="26" y="210"/>
      <point x="110" y="104"/>
      <point x="252" y="4" type="curve"/>
      <point x="310" y="53" type="line"/>
      <point x="212" y="122"/>
      <point x="153" y="196"/>
      <point x="153" y="274" type="curve" smooth="yes"/>
      <point x="153" y="325"/>
      <point x="186" y="352"/>
      <point x="225" y="352" type="curve" smooth="yes"/>
      <point x="251" y="352"/>
      <point x="271" y="343"/>
      <point x="288" y="331" type="curve"/>
      <point x="286" y="322"/>
      <point x="285" y="310"/>
      <point x="285" y="299" type="curve" smooth="yes"/>
      <point x="285" y="272"/>
      <point x="290" y="242"/>
      <point x="299" y="220" type="curve"/>
      <point x="416" y="178" type="line"/>
    </contour>
    <contour>
      <point x="-10" y="557" type="line"/>
      <point x="797" y="557" type="line"/>
      <point x="797" y="573" type="line"/>
      <point x="770" y="604" type="line"/>
      <point x="724" y="669" type="line"/>
      <point x="-83" y="669" type="line"/>
      <point x="-83" y="653" type="line"/>
      <point x="-56" y="622" type="line"/>
    </contour>
  </outline>
</glyph>
<glyph name="dvLLA" format="1">
  <advance width="695"/>
  <unicode hex="0933"/>
  <outline>
    <contour>
      <point x="591" y="48" type="move" name="blwm.virama"/>
    </contour>
    <contour>
      <point x="539" y="669" type="move" name="abvm"/>
    </contour>
    <contour>
      <point x="510" y="48" type="move" name="blwm.u"/>
    </contour>
    <contour>
      <point x="126" y="262" type="curve"/>
      <point x="126" y="325"/>
      <point x="179" y="355"/>
      <point x="233" y="355" type="curve" smooth="yes"/>
      <point x="265" y="355"/>
      <point x="297" y="345"/>
      <point x="319" y="325" type="curve"/>
      <point x="344" y="352" type="line"/>
      <point x="312" y="433"/>
      <point x="246" y="471"/>
      <point x="188" y="471" type="curve" smooth="yes"/>
      <point x="97" y="471"/>
      <point x="25" y="414"/>
      <point x="25" y="308" type="curve" smooth="yes"/>
      <point x="25" y="206"/>
      <point x="123" y="91"/>
      <point x="226" y="91" type="curve" smooth="yes"/>
      <point x="398" y="91"/>
      <point x="399" y="368"/>
      <point x="515" y="368" type="curve" smooth="yes"/>
      <point x="543" y="368"/>
      <point x="569" y="345"/>
      <point x="569" y="302" type="curve" smooth="yes"/>
      <point x="569" y="239"/>
      <point x="516" y="208"/>
      <point x="462" y="208" type="curve" smooth="yes"/>
      <point x="430" y="208"/>
      <point x="398" y="219"/>
      <point x="376" y="239" type="curve"/>
      <point x="351" y="212" type="line"/>
      <point x="383" y="131"/>
      <point x="449" y="93"/>
      <point x="507" y="93" type="curve" smooth="yes"/>
      <point x="598" y="93"/>
      <point x="670" y="150"/>
      <point x="670" y="256" type="curve" smooth="yes"/>
      <point x="670" y="358"/>
      <point x="570" y="473"/>
      <point x="468" y="473" type="curve" smooth="yes"/>
      <point x="298" y="473"/>
      <point x="295" y="196"/>
      <point x="179" y="196" type="curve" smooth="yes"/>
      <point x="151" y="196"/>
      <point x="126" y="219"/>
    </contour>
    <contour>
      <point x="539" y="428" type="line"/>
      <point x="539" y="557" type="line"/>
      <point x="758" y="557" type="line"/>
      <point x="758" y="573" type="line"/>
      <point x="731" y="604" type="line"/>
      <point x="685" y="669" type="line"/>
      <point x="-83" y="669" type="line"/>
      <point x="-83" y="653" type="line"/>
      <point x="-56" y="622" type="line"/>
      <point x="-10" y="557" type="line"/>
      <point x="412" y="557" type="line"/>
      <point x="412" y="428" type="line"/>
    </contour>
  </outline>
</glyph>
<glyph name="dvVA" format="1">
  <advance width="566"/>
  <unicode hex="0935"/>
  <outline>
    <contour>
      <point x="359" y="590" type="line"/>
      <point x="359" y="395" type="line" smooth="yes"/>
      <point x="359" y="289"/>
      <point x="294" y="223"/>
      <point x="217" y="223" type="curve" smooth="yes"/>
      <point x="159" y="223"/>
      <point x="129" y="265"/>
      <point x="129" y="304" type="curve" smooth="yes"/>
      <point x="129" y="354"/>
      <point x="169" y="378"/>
      <point x="222" y="378" type="curve" smooth="yes"/>
      <point x="245" y="378"/>
      <point x="273" y="373"/>
      <point x="293" y="365" type="curve"/>
      <point x="301" y="375" type="line"/>
      <point x="248" y="482" type="line"/>
      <point x="223" y="493"/>
      <point x="197" y="497"/>
      <point x="171" y="497" type="curve" smooth="yes"/>
      <point x="92" y="497"/>
      <point x="25" y="443"/>
      <point x="25" y="352" type="curve" smooth="yes"/>
      <point x="25" y="298"/>
      <point x="64" y="242"/>
      <point x="100" y="201" type="curve" smooth="yes"/>
      <point x="145" y="149"/>
      <point x="190" y="118"/>
      <point x="249" y="118" type="curve" smooth="yes"/>
      <point x="315" y="118"/>
      <point x="347" y="146"/>
      <point x="367" y="170" type="curve"/>
      <point x="367" y="134"/>
      <point x="359" y="70"/>
      <point x="359" y="70" type="curve"/>
      <point x="422" y="31" type="line"/>
      <point x="469" y="-5" type="line"/>
      <point x="491" y="-5" type="line"/>
      <point x="491" y="590" type="line"/>
    </contour>
    <contour>
      <point x="629" y="557" type="line"/>
      <point x="629" y="573" type="line"/>
      <point x="602" y="604" type="line"/>
      <point x="556" y="669" type="line"/>
      <point x="-83" y="669" type="line"/>
      <point x="-83" y="653" type="line"/>
      <point x="-56" y="622" type="line"/>
      <point x="-10" y="557" type="line"/>
    </contour>
  </outline>
</glyph>
<glyph name="dvSSA" format="1">
  <advance width="569"/>
  <unicode hex="0937"/>
  <outline>
    <contour>
      <point x="471" y="-5" type="line"/>
      <point x="494" y="-5" type="line"/>
      <point x="494" y="557" type="line"/>
      <point x="632" y="557" type="line"/>
      <point x="632" y="573" type="line"/>
      <point x="605" y="604" type="line"/>
      <point x="559" y="669" type="line"/>
      <point x="-83" y="669" type="line"/>
      <point x="-83" y="653" type="line"/>
      <point x="-56" y="622" type="line"/>
      <point x="-10" y="557" type="line"/>
      <point x="45" y="557" type="line"/>
      <point x="45" y="386" type="line" smooth="yes"/>
      <point x="45" y="320"/>
      <point x="67" y="282"/>
      <point x="124" y="237" type="curve" smooth="yes"/>
      <point x="187" y="188"/>
      <point x="222" y="174"/>
      <point x="263" y="174" type="curve" smooth="yes"/>
      <point x="300" y="174"/>
      <point x="334" y="185"/>
      <point x="368" y="209" type="curve"/>
      <point x="366" y="147"/>
      <point x="361" y="66"/>
      <point x="361" y="66" type="curve"/>
      <point x="425" y="31" type="line"/>
    </contour>
    <contour>
      <point x="216" y="267" type="curve" smooth="yes"/>
      <point x="193" y="267"/>
      <point x="177" y="282"/>
      <point x="177" y="305" type="curve" smooth="yes"/>
      <point x="177" y="344" type="line" smooth="yes"/>
      <point x="177" y="418"/>
      <point x="172" y="464"/>
      <point x="172" y="464" type="curve"/>
      <point x="340" y="321" type="line"/>
      <point x="298" y="279"/>
      <point x="252" y="267"/>
    </contour>
    <contour>
      <point x="175" y="557" type="line"/>
      <point x="365" y="557" type="line"/>
      <point x="365" y="522" type="line" smooth="yes"/>
      <point x="365" y="454"/>
      <point x="372" y="379"/>
      <point x="372" y="379" type="curve"/>
      <point x="175" y="553" type="line"/>
    </contour>
  </outline>
</glyph>
<glyph name="dvSA" format="1">
  <advance width="657"/>
  <unicode hex="0938"/>
  <outline>
    <contour>
      <point x="235" y="302" type="line"/>
      <point x="265" y="277"/>
      <point x="316" y="244"/>
      <point x="385" y="244" type="curve" smooth="yes"/>
      <point x="412" y="244"/>
      <point x="434" y="249"/>
      <point x="455" y="255" type="curve"/>
      <point x="455" y="148"/>
      <point x="449" y="69"/>
      <point x="449" y="69" type="curve"/>
      <point x="513" y="31" type="line"/>
      <point x="559" y="-5" type="line"/>
      <point x="582" y="-5" type="line"/>
      <point x="582" y="583" type="line"/>
      <point x="449" y="583" type="line"/>
      <point x="449" y="372" type="line"/>
      <point x="414" y="358"/>
      <point x="390" y="352"/>
      <point x="351" y="352" type="curve" smooth="yes"/>
      <point x="311" y="352"/>
      <point x="286" y="356"/>
      <point x="254" y="365" type="curve"/>
    </contour>
    <contour>
      <point x="-10" y="557" type="line"/>
      <point x="720" y="557" type="line"/>
      <point x="720" y="573" type="line"/>
      <point x="693" y="604" type="line"/>
      <point x="647" y="669" type="line"/>
      <point x="-83" y="669" type="line"/>
      <point x="-83" y="653" type="line"/>
      <point x="-56" y="622" type="line"/>
    </contour>
    <contour>
      <point x="341" y="25" type="line"/>
      <point x="265" y="103"/>
      <point x="181" y="197"/>
      <point x="181" y="216" type="curve" smooth="yes"/>
      <point x="181" y="225"/>
      <point x="185" y="228"/>
      <point x="193" y="234" type="curve" smooth="yes"/>
      <point x="258" y="287"/>
      <point x="274" y="315"/>
      <point x="274" y="356" type="curve" smooth="yes"/>
      <point x="274" y="583" type="line"/>
      <point x="142" y="583" type="line"/>
      <point x="142" y="394" type="line" smooth="yes"/>
      <point x="142" y="380"/>
      <point x="135" y="364"/>
      <point x="107" y="364" type="curve" smooth="yes"/>
      <point x="96" y="364"/>
      <point x="77" y="368"/>
      <point x="61" y="373" type="curve"/>
      <point x="16" y="320" type="line"/>
      <point x="29" y="293"/>
      <point x="63" y="237"/>
      <point x="134" y="151" type="curve" smooth="yes"/>
      <point x="269" y="-16" type="line"/>
    </contour>
  </outline>
</glyph>
<glyph name="dvHA" format="1">
  <advance width="500"/>
  <unicode hex="0939"/>
  <outline>
    <contour>
      <point x="333" y="-107" type="move" name="blwm.virama"/>
    </contour>
    <contour>
      <point x="320" y="669" type="move" name="abvm.candra"/>
    </contour>
    <contour>
      <point x="430" y="669" type="move" name="abvm.e"/>
    </contour>
    <contour>
      <point x="401" y="-45" type="move" name="blwm.u"/>
    </contour>
    <contour>
      <point x="388" y="21" type="line"/>
      <point x="433" y="46"/>
      <point x="464" y="86"/>
      <point x="464" y="132" type="curve" smooth="yes"/>
      <point x="464" y="228"/>
      <point x="375" y="298"/>
      <point x="267" y="298" type="curve" smooth="yes"/>
      <point x="172" y="298"/>
      <point x="60" y="228"/>
      <point x="60" y="128" type="curve" smooth="yes"/>
      <point x="60" y="23"/>
      <point x="168" y="-76"/>
      <point x="394" y="-111" type="curve"/>
      <point x="432" y="-37" type="line"/>
      <point x="246" y="-18"/>
      <point x="181" y="38"/>
      <point x="181" y="96" type="curve" smooth="yes"/>
      <point x="181" y="162"/>
      <point x="268" y="205"/>
      <point x="335" y="205" type="curve" smooth="yes"/>
      <point x="359" y="205"/>
      <point x="371" y="196"/>
      <point x="371" y="181" type="curve" smooth="yes"/>
      <point x="371" y="151"/>
      <point x="338" y="123"/>
      <point x="292" y="105" type="curve"/>
    </contour>
    <contour>
      <point x="308" y="588" type="line"/>
      <point x="308" y="499" type="line" smooth="yes"/>
      <point x="308" y="486"/>
      <point x="298" y="484"/>
      <point x="273" y="484" type="curve" smooth="yes"/>
      <point x="163" y="484" type="line" smooth="yes"/>
      <point x="83" y="484"/>
      <point x="45" y="444"/>
      <point x="45" y="395" type="curve" smooth="yes"/>
      <point x="45" y="326"/>
      <point x="102" y="272"/>
      <point x="138" y="250" type="curve"/>
      <point x="193" y="274" type="line"/>
      <point x="176" y="288"/>
      <point x="164" y="311"/>
      <point x="164" y="334" type="curve" smooth="yes"/>
      <point x="164" y="358"/>
      <point x="181" y="378"/>
      <point x="222" y="378" type="curve" smooth="yes"/>
      <point x="354" y="378" type="line" smooth="yes"/>
      <point x="410" y="378"/>
      <point x="429" y="393"/>
      <point x="429" y="428" type="curve" smooth="yes"/>
      <point x="429" y="588" type="line"/>
    </contour>
    <contour>
      <point x="-10" y="557" type="line"/>
      <point x="562" y="557" type="line"/>
      <point x="562" y="573" type="line"/>
      <point x="535" y="604" type="line"/>
      <point x="489" y="669" type="line"/>
      <point x="-83" y="669" type="line"/>
      <point x="-83" y="653" type="line"/>
      <point x="-56" y="622" type="line"/>
    </contour>
  </outline>
</glyph>
<glyph name="dvNukta" format="1">
  <advance width="0"/>
  <unicode hex="093C"/>
  <outline>
    <contour>
      <point x="-230" y="-85" type="line"/>
      <point x="-319" y="-175" type="line"/>
      <point x="-228" y="-266" type="line"/>
      <point x="-138" y="-176" type="line"/>
    </contour>
  </outline>
</glyph>
<glyph name="dvAvagraha" format="1">
  <advance width="490"/>
  <unicode hex="093D"/>
  <outline>
    <contour>
      <point x="450" y="573" type="line"/>
      <point x="450" y="557" type="line"/>
      <point x="270" y="557" type="line" smooth="yes"/>
      <point x="244" y="557"/>
      <point x="226" y="541"/>
      <point x="226" y="516" type="curve" smooth="yes"/>
      <point x="226" y="483"/>
      <point x="284" y="433"/>
      <point x="340" y="381" type="curve" smooth="yes"/>
      <point x="396" y="329"/>
      <point x="450" y="273"/>
      <point x="450" y="196" type="curve" smooth="yes"/>
      <point x="450" y="107"/>
      <point x="384" y="51"/>
      <point x="288" y="51" type="curve" smooth="yes"/>
      <point x="160" y="51"/>
      <point x="64" y="160"/>
      <point x="11" y="231" type="curve"/>
      <point x="62" y="275" type="line"/>
      <point x="125" y="201"/>
      <point x="187" y="164"/>
      <point x="247" y="164" type="curve" smooth="yes"/>
      <point x="294" y="164"/>
      <point x="327" y="186"/>
      <point x="327" y="232" type="curve" smooth="yes"/>
      <point x="327" y="268"/>
      <point x="301" y="304"/>
      <point x="266" y="341" type="curve" smooth="yes"/>
      <point x="196" y="414"/>
      <point x="91" y="490"/>
      <point x="91" y="573" type="curve" smooth="yes"/>
      <point x="91" y="623"/>
      <point x="124" y="669"/>
      <point x="210" y="669" type="curve" smooth="yes"/>
      <point x="377" y="669" type="line"/>
      <point x="423" y="604" type="line"/>
    </contour>
  </outline>
</glyph>
<glyph name="dvmAA" format="1">
  <advance width="283"/>
  <unicode hex="093E"/>
  <outline>
    <contour>
      <point x="75" y="604" type="line"/>
      <point x="75" y="69" type="line"/>
      <point x="139" y="31" type="line"/>
      <point x="185" y="-5" type="line"/>
      <point x="208" y="-5" type="line"/>
      <point x="208" y="604" type="line"/>
    </contour>
    <contour>
      <point x="346" y="557" type="line"/>
      <point x="346" y="573" type="line"/>
      <point x="319" y="604" type="line"/>
      <point x="273" y="669" type="line"/>
      <point x="-83" y="669" type="line"/>
      <point x="-83" y="653" type="line"/>
      <point x="-56" y="622" type="line"/>
      <point x="-10" y="557" type="line"/>
    </contour>
  </outline>
</glyph>
<glyph name="dvmII" format="1">
  <advance width="283"/>
  <unicode hex="0940"/>
  <outline>
    <contour>
      <point x="313" y="669" type="move" name="abvm"/>
    </contour>
    <contour>
      <point x="192" y="659" type="line"/>
      <point x="103" y="881"/>
      <point x="-4" y="951"/>
      <point x="-97" y="951" type="curve" smooth="yes"/>
      <point x="-183" y="951"/>
      <point x="-228" y="892"/>
      <point x="-228" y="829" type="curve" smooth="yes"/>
      <point x="-228" y="781"/>
      <point x="-202" y="731"/>
      <point x="-148" y="702" type="curve"/>
      <point x="-97" y="718" type="line"/>
      <point x="-109" y="735"/>
      <point x="-115" y="755"/>
      <point x="-115" y="774" type="curve" smooth="yes"/>
      <point x="-115" y="809"/>
      <point x="-93" y="840"/>
      <point x="-48" y="840" type="curve" smooth="yes"/>
      <point x="3" y="840"/>
      <point x="69" y="792"/>
      <point x="121" y="659" type="curve"/>
    </contour>
    <contour>
      <point x="75" y="604" type="line"/>
      <point x="75" y="69" type="line"/>
      <point x="139" y="31" type="line"/>
      <point x="185" y="-5" type="line"/>
      <point x="208" y="-5" type="line"/>
      <point x="208" y="604" type="line"/>
    </contour>
    <contour>
      <point x="346" y="557" type="line"/>
      <point x="346" y="573" type="line"/>
      <point x="319" y="604" type="line"/>
      <point x="273" y="669" type="line"/>
      <point x="-83" y="669" type="line"/>
      <point x="-83" y="653" type="line"/>
      <point x="-56" y="622" type="line"/>
      <point x="-10" y="557" type="line"/>
    </contour>
  </outline>
</glyph>
<glyph name="dvmU" format="1">
  <advance width="0"/>
  <unicode hex="0941"/>
  <outline>
    <contour>
      <point x="-84" y="-5" type="move" name="_blwm.u"/>
    </contour>
    <contour>
      <point x="-84" y="-260" type="move" name="blwm.u"/>
    </contour>
    <contour>
      <point x="-474" y="-104" type="line"/>
      <point x="-375" y="-198"/>
      <point x="-255" y="-287"/>
      <point x="-135" y="-287" type="curve" smooth="yes"/>
      <point x="-35" y="-287"/>
      <point x="27" y="-227"/>
      <point x="27" y="-149" type="curve" smooth="yes"/>
      <point x="27" y="-77"/>
      <point x="-49" y="4"/>
      <point x="-129" y="4" type="curve" smooth="yes"/>
      <point x="-176" y="4"/>
      <point x="-216" y="-19"/>
      <point x="-248" y="-53" type="curve"/>
      <point x="-157" y="-141" type="line"/>
      <point x="-131" y="-102"/>
      <point x="-95" y="-87"/>
      <point x="-76" y="-87" type="curve" smooth="yes"/>
      <point x="-63" y="-87"/>
      <point x="-57" y="-96"/>
      <point x="-57" y="-111" type="curve" smooth="yes"/>
      <point x="-57" y="-150"/>
      <point x="-98" y="-194"/>
      <point x="-171" y="-194" type="curve" smooth="yes"/>
      <point x="-246" y="-194"/>
      <point x="-344" y="-133"/>
      <point x="-420" y="-42" type="curve"/>
    </contour>
  </outline>
</glyph>
<glyph name="dvmUU" format="1">
  <advance width="0"/>
  <unicode hex="0942"/>
  <outline>
    <contour>
      <point x="-75" y="-5" type="move" name="_blwm.u"/>
    </contour>
    <contour>
      <point x="-75" y="-260" type="move" name="blwm.u"/>
    </contour>
    <contour>
      <point x="39" y="-95" type="line"/>
      <point x="-33" y="-36"/>
      <point x="-83" y="6"/>
      <point x="-159" y="6" type="curve" smooth="yes"/>
      <point x="-236" y="6"/>
      <point x="-293" y="-51"/>
      <point x="-293" y="-113" type="curve" smooth="yes"/>
      <point x="-293" y="-155"/>
      <point x="-268" y="-192"/>
      <point x="-234" y="-223" type="curve" smooth="yes"/>
      <point x="-202" y="-253"/>
      <point x="-162" y="-276"/>
      <point x="-124" y="-276" type="curve" smooth="yes"/>
      <point x="-47" y="-276"/>
      <point x="-20" y="-231"/>
      <point x="-20" y="-231" type="curve"/>
      <point x="-84" y="-143" type="line"/>
      <point x="-84" y="-143"/>
      <point x="-119" y="-189"/>
      <point x="-170" y="-189" type="curve" smooth="yes"/>
      <point x="-190" y="-189"/>
      <point x="-196" y="-179"/>
      <point x="-196" y="-166" type="curve" smooth="yes"/>
      <point x="-196" y="-127"/>
      <point x="-152" y="-87"/>
      <point x="-114" y="-87" type="curve" smooth="yes"/>
      <point x="-91" y="-87"/>
      <point x="-68" y="-94"/>
      <point x="-6" y="-146" type="curve"/>
      <point x="132" y="-264" type="line"/>
      <point x="198" y="-226" type="line"/>
    </contour>
  </outline>
</glyph>
<glyph name="dvmvR" format="1">
  <advance width="0"/>
  <unicode hex="0943"/>
  <outline>
    <contour>
      <point x="-75" y="-5" type="move" name="_blwm.u"/>
    </contour>
    <contour>
      <point x="-75" y="-260" type="move" name="blwm.u"/>
    </contour>
    <contour>
      <point x="-75" y="-58" type="line"/>
      <point x="-171" y="12" type="line"/>
      <point x="-266" y="15"/>
      <point x="-357" y="-25"/>
      <point x="-357" y="-96" type="curve" smooth="yes"/>
      <point x="-357" y="-170"/>
      <point x="-247" y="-272"/>
      <point x="-103" y="-272" type="curve" smooth="yes"/>
      <point x="-42" y="-272"/>
      <point x="12" y="-253"/>
      <point x="62" y="-216" type="curve"/>
      <point x="-4" y="-120" type="line"/>
      <point x="-41" y="-154"/>
      <point x="-112" y="-185"/>
      <point x="-176" y="-185" type="curve" smooth="yes"/>
      <point x="-227" y="-185"/>
      <point x="-251" y="-163"/>
      <point x="-251" y="-141" type="curve" smooth="yes"/>
      <point x="-251" y="-108"/>
      <point x="-216" y="-74"/>
      <point x="-75" y="-74" type="curve"/>
    </contour>
  </outline>
</glyph>
<glyph name="dvmEcandra" format="1">
  <advance width="0"/>
  <unicode hex="0945"/>
  <outline>
    <contour>
      <point x="-75" y="669" type="move" name="_abvm.candra"/>
    </contour>
    <contour>
      <point x="-75" y="669" type="move" name="_abvm"/>
    </contour>
    <contour>
      <point x="-75" y="850" type="move" name="abvm"/>
    </contour>
    <contour>
      <point x="-369" y="866" type="line"/>
      <point x="-310" y="789"/>
      <point x="-223" y="747"/>
      <point x="-130" y="747" type="curve" smooth="yes"/>
      <point x="-48" y="747"/>
      <point x="30" y="781"/>
      <point x="81" y="861" type="curve"/>
      <point x="-10" y="925" type="line"/>
      <point x="-45" y="865"/>
      <point x="-104" y="839"/>
      <point x="-165" y="839" type="curve" smooth="yes"/>
      <point x="-224" y="839"/>
      <point x="-278" y="862"/>
      <point x="-317" y="911" type="curve"/>
    </contour>
  </outline>
</glyph>
<glyph name="dvmEshort" format="1">
  <advance width="0"/>
  <unicode hex="0946"/>
  <outline>
    <contour>
      <point x="-75" y="669" type="move" name="_abvm"/>
    </contour>
    <contour>
      <point x="-75" y="669" type="move" name="_abvm.e"/>
    </contour>
    <contour>
      <point x="19" y="752" type="move" name="abvm"/>
    </contour>
    <contour>
      <point x="-87" y="642" type="line"/>
      <point x="-76" y="656"/>
      <point x="-72" y="672"/>
      <point x="-72" y="687" type="curve" smooth="yes"/>
      <point x="-72" y="729"/>
      <point x="-103" y="771"/>
      <point x="-127" y="799" type="curve" smooth="yes"/>
      <point x="-156" y="833"/>
      <point x="-189" y="862"/>
      <point x="-236" y="862" type="curve" smooth="yes"/>
      <point x="-279" y="862"/>
      <point x="-320" y="842"/>
      <point x="-367" y="842" type="curve" smooth="yes"/>
      <point x="-394" y="842"/>
      <point x="-403" y="853"/>
      <point x="-403" y="870" type="curve" smooth="yes"/>
      <point x="-403" y="897"/>
      <point x="-377" y="929"/>
      <point x="-349" y="955" type="curve"/>
      <point x="-475" y="999" type="line"/>
      <point x="-504" y="975"/>
      <point x="-515" y="948"/>
      <point x="-515" y="920" type="curve" smooth="yes"/>
      <point x="-515" y="880"/>
      <point x="-497" y="857"/>
      <point x="-453" y="813" type="curve" smooth="yes"/>
      <point x="-421" y="781"/>
      <point x="-373" y="741"/>
      <point x="-321" y="741" type="curve" smooth="yes"/>
      <point x="-283" y="741"/>
      <point x="-244" y="760"/>
      <point x="-211" y="760" type="curve" smooth="yes"/>
      <point x="-180" y="760"/>
      <point x="-168" y="748"/>
      <point x="-168" y="715" type="curve" smooth="yes"/>
      <point x="-168" y="697"/>
      <point x="-177" y="667"/>
      <point x="-190" y="642" type="curve"/>
    </contour>
  </outline>
</glyph>
<glyph name="dvmE" format="1">
  <advance width="0"/>
  <unicode hex="0947"/>
  <outline>
    <contour>
      <point x="-101" y="729" type="move" name="abvm.udatta"/>
    </contour>
    <contour>
      <point x="-75" y="669" type="move" name="_abvm"/>
    </contour>
    <contour>
      <point x="-75" y="669" type="move" name="_abvm.e"/>
    </contour>
    <contour>
      <point x="-95" y="660" type="line"/>
      <point x="-209" y="830" type="line" smooth="yes"/>
      <point x="-274" y="926"/>
      <point x="-324" y="942"/>
      <point x="-384" y="942" type="curve" smooth="yes"/>
      <point x="-400" y="942"/>
      <point x="-430" y="939"/>
      <point x="-450" y="933" type="curve"/>
      <point x="-385" y="807" type="line"/>
      <point x="-366" y="814"/>
      <point x="-347" y="818"/>
      <point x="-327" y="818" type="curve" smooth="yes"/>
      <point x="-291" y="818"/>
      <point x="-264" y="802"/>
      <point x="-233" y="758" type="curve" smooth="yes"/>
      <point x="-165" y="660" type="line"/>
    </contour>
  </outline>
</glyph>
<glyph name="dvmAI" format="1">
  <advance width="0"/>
  <unicode hex="0948"/>
  <outline>
    <contour>
      <point x="-71" y="729" type="move" name="abvm.udatta"/>
    </contour>
    <contour>
      <point x="-75" y="669" type="move" name="_abvm"/>
    </contour>
    <contour>
      <point x="-75" y="669" type="move" name="_abvm.e"/>
    </contour>
    <contour>
      <point x="-85" y="660" type="line"/>
      <point x="-174" y="861" type="line" smooth="yes"/>
      <point x="-226" y="978"/>
      <point x="-284" y="1017"/>
      <point x="-377" y="1019" type="curve"/>
      <point x="-347" y="899" type="line"/>
      <point x="-336" y="899" type="line" smooth="yes"/>
      <point x="-284" y="899"/>
      <point x="-244" y="882"/>
      <point x="-209" y="816" type="curve" smooth="yes"/>
      <point x="-127" y="660" type="line"/>
    </contour>
    <contour>
      <point x="-131" y="660" type="line"/>
      <point x="-240" y="786" type="line" smooth="yes"/>
      <point x="-278" y="829"/>
      <point x="-325" y="847"/>
      <point x="-375" y="847" type="curve" smooth="yes"/>
      <point x="-401" y="847"/>
      <point x="-425" y="842"/>
      <point x="-448" y="835" type="curve"/>
      <point x="-382" y="736" type="line"/>
      <point x="-358" y="746"/>
      <point x="-335" y="752"/>
      <point x="-315" y="752" type="curve" smooth="yes"/>
      <point x="-283" y="752"/>
      <point x="-260" y="740"/>
      <point x="-233" y="711" type="curve" smooth="yes"/>
      <point x="-183" y="660" type="line"/>
    </contour>
  </outline>
</glyph>
<glyph name="dvmOcandra" format="1">
  <advance width="283"/>
  <unicode hex="0949"/>
  <outline>
    <contour>
      <point x="208" y="850" type="move" name="abvm"/>
    </contour>
    <component base="dvmAA"/>
    <component base="dvmEcandra" xOffset="283"/>
  </outline>
</glyph>
<glyph name="dvmOshort" format="1">
  <advance width="283"/>
  <unicode hex="094A"/>
  <outline>
    <contour>
      <point x="313" y="752" type="move" name="abvm"/>
    </contour>
    <component base="dvmEshort" xOffset="283"/>
    <component base="dvmAA"/>
  </outline>
</glyph>
<glyph name="dvmO" format="1">
  <advance width="283"/>
  <unicode hex="094B"/>
  <outline>
    <contour>
      <point x="182" y="729" type="move" name="abvm.udatta"/>
    </contour>
    <component base="dvmE" xOffset="283"/>
    <component base="dvmAA"/>
  </outline>
</glyph>
<glyph name="dvmAU" format="1">
  <advance width="283"/>
  <unicode hex="094C"/>
  <outline>
    <contour>
      <point x="212" y="729" type="move" name="abvm.udatta"/>
    </contour>
    <component base="dvmAA"/>
    <component base="dvmAI" xOffset="283"/>
  </outline>
</glyph>
<glyph name="dvVirama" format="1">
  <advance width="0"/>
  <unicode hex="094D"/>
  <outline>
    <contour>
      <point x="-75" y="-5" type="move" name="_blwm.virama"/>
    </contour>
    <contour>
      <point x="-203" y="-114" type="line"/>
      <point x="-194" y="-110"/>
      <point x="-177" y="-103"/>
      <point x="-156" y="-103" type="curve" smooth="yes"/>
      <point x="-118" y="-103"/>
      <point x="-89" y="-115"/>
      <point x="-55" y="-147" type="curve" smooth="yes"/>
      <point x="36" y="-234" type="line"/>
      <point x="87" y="-205" type="line"/>
      <point x="-40" y="-76" type="line" smooth="yes"/>
      <point x="-88" y="-27"/>
      <point x="-133" y="-6"/>
      <point x="-184" y="-6" type="curve" smooth="yes"/>
      <point x="-211" y="-6"/>
      <point x="-235" y="-13"/>
      <point x="-255" y="-21" type="curve"/>
    </contour>
  </outline>
</glyph>
<glyph name="dvOm" format="1">
  <advance width="891"/>
  <unicode hex="0950"/>
  <outline>
    <contour>
      <point x="31" y="250" type="line"/>
      <point x="98" y="122"/>
      <point x="192" y="47"/>
      <point x="301" y="47" type="curve" smooth="yes"/>
      <point x="398" y="47"/>
      <point x="451" y="108"/>
      <point x="451" y="184" type="curve" smooth="yes"/>
      <point x="451" y="220"/>
      <point x="435" y="251"/>
      <point x="427" y="262" type="curve"/>
      <point x="446" y="248"/>
      <point x="472" y="242"/>
      <point x="490" y="242" type="curve" smooth="yes"/>
      <point x="643" y="242"/>
      <point x="627" y="497"/>
      <point x="691" y="497" type="curve" smooth="yes"/>
      <point x="707" y="497"/>
      <point x="725" y="469"/>
      <point x="725" y="419" type="curve" smooth="yes"/>
      <point x="725" y="276"/>
      <point x="653" y="179"/>
      <point x="548" y="149" type="curve"/>
      <point x="580" y="95" type="line"/>
      <point x="622" y="95" type="line" smooth="yes"/>
      <point x="766" y="95"/>
      <point x="839" y="223"/>
      <point x="839" y="342" type="curve" smooth="yes"/>
      <point x="839" y="494"/>
      <point x="723" y="599"/>
      <point x="651" y="599" type="curve" smooth="yes"/>
      <point x="567" y="599"/>
      <point x="554" y="535"/>
      <point x="494" y="385" type="curve" smooth="yes"/>
      <point x="477" y="342"/>
      <point x="456" y="322"/>
      <point x="416" y="322" type="curve" smooth="yes"/>
      <point x="399" y="322"/>
      <point x="382" y="326"/>
      <point x="369" y="333" type="curve"/>
      <point x="405" y="351"/>
      <point x="433" y="382"/>
      <point x="433" y="428" type="curve" smooth="yes"/>
      <point x="433" y="530"/>
      <point x="311" y="636"/>
      <point x="216" y="636" type="curve" smooth="yes"/>
      <point x="166" y="636"/>
      <point x="128" y="624"/>
      <point x="84" y="604" type="curve"/>
      <point x="161" y="492" type="line"/>
      <point x="204" y="513"/>
      <point x="247" y="525"/>
      <point x="292" y="525" type="curve" smooth="yes"/>
      <point x="323" y="525"/>
      <point x="336" y="507"/>
      <point x="336" y="486" type="curve" smooth="yes"/>
      <point x="336" y="443"/>
      <point x="279" y="412"/>
      <point x="152" y="383" type="curve"/>
      <point x="229" y="276" type="line"/>
      <point x="261" y="283"/>
      <point x="296" y="294"/>
      <point x="320" y="305" type="curve"/>
      <point x="337" y="285"/>
      <point x="347" y="259"/>
      <point x="347" y="236" type="curve" smooth="yes"/>
      <point x="347" y="192"/>
      <point x="318" y="154"/>
      <point x="267" y="154" type="curve" smooth="yes"/>
      <point x="198" y="154"/>
      <point x="134" y="217"/>
      <point x="94" y="291" type="curve"/>
    </contour>
    <contour>
      <point x="234" y="761" type="line"/>
      <point x="276" y="700"/>
      <point x="351" y="633"/>
      <point x="459" y="633" type="curve" smooth="yes"/>
      <point x="572" y="633"/>
      <point x="635" y="690"/>
      <point x="668" y="741" type="curve"/>
      <point x="580" y="817" type="line"/>
      <point x="554" y="772"/>
      <point x="508" y="737"/>
      <point x="435" y="737" type="curve" smooth="yes"/>
      <point x="370" y="737"/>
      <point x="319" y="769"/>
      <point x="288" y="808" type="curve"/>
    </contour>
    <contour>
      <point x="446" y="948" type="line"/>
      <point x="362" y="866" type="line"/>
      <point x="446" y="785" type="line"/>
      <point x="528" y="866" type="line"/>
    </contour>
  </outline>
</glyph>
<glyph name="dvUdatta" format="1">
  <advance width="0"/>
  <unicode hex="0951"/>
  <outline>
    <contour>
      <point x="-181" y="729" type="move" name="_abvm.udatta"/>
    </contour>
    <contour>
      <point x="-71" y="729" type="move" name="abvm.udatta"/>
    </contour>
    <contour>
      <point x="-75" y="669" type="move" name="_abvm"/>
    </contour>
    <contour>
      <point x="-75" y="669" type="move" name="_abvm.e"/>
    </contour>
    <contour>
      <point x="-181" y="999" type="line"/>
      <point x="-181" y="729" type="line"/>
      <point x="-101" y="729" type="line"/>
      <point x="-101" y="999" type="line"/>
    </contour>
  </outline>
</glyph>
<glyph name="dvAnudatta" format="1">
  <advance width="0"/>
  <unicode hex="0952"/>
  <outline>
    <contour>
      <point x="-200" y="-5" type="move" name="_blwm.u"/>
    </contour>
    <contour>
      <point x="-64" y="-170" type="line"/>
      <point x="-64" y="-90" type="line"/>
      <point x="-468" y="-90" type="line"/>
      <point x="-468" y="-170" type="line"/>
    </contour>
  </outline>
</glyph>
<glyph name="dvGrave" format="1">
  <advance width="0"/>
  <unicode hex="0953"/>
  <outline>
    <contour>
      <point x="-75" y="669" type="move" name="_abvm"/>
    </contour>
    <contour>
      <point x="-75" y="669" type="move" name="_abvm.e"/>
    </contour>
    <contour>
      <point x="-346" y="907" type="line"/>
      <point x="-155" y="716" type="line"/>
      <point x="-98" y="773" type="line"/>
      <point x="-289" y="963" type="line"/>
    </contour>
  </outline>
</glyph>
<glyph name="dvAcute" format="1">
  <advance width="0"/>
  <unicode hex="0954"/>
  <outline>
    <contour>
      <point x="-75" y="669" type="move" name="_abvm"/>
    </contour>
    <contour>
      <point x="-75" y="669" type="move" name="_abvm.e"/>
    </contour>
    <contour>
      <point x="7" y="964" type="line"/>
      <point x="-184" y="773" type="line"/>
      <point x="-127" y="716" type="line"/>
      <point x="63" y="907" type="line"/>
    </contour>
  </outline>
</glyph>
<glyph name="dvKxA" format="1">
  <advance width="768"/>
  <unicode hex="0958"/>
  <outline>
    <contour>
      <point x="449" y="-5" type="move" name="blwm.virama"/>
    </contour>
    <contour>
      <point x="454" y="669" type="move" name="abvm"/>
    </contour>
    <contour>
      <point x="449" y="-79" type="move" name="blwm.u"/>
    </contour>
    <component base="dvKA"/>
    <component base="dvNukta" xOffset="384" yOffset="177"/>
  </outline>
</glyph>
<glyph name="dvDDxA" format="1">
  <advance width="553"/>
  <unicode hex="095C"/>
  <outline>
    <contour>
      <point x="373" y="-273" type="move" name="blwm.virama"/>
    </contour>
    <contour>
      <point x="362" y="669" type="move" name="abvm.candra"/>
    </contour>
    <contour>
      <point x="471" y="669" type="move" name="abvm.e"/>
    </contour>
    <contour>
      <point x="389" y="-273" type="move" name="blwm.u"/>
    </contour>
    <component base="dvDDA"/>
    <component base="dvNukta" xOffset="525" yOffset="37"/>
  </outline>
</glyph>
<glyph name="dvDDHxA" format="1">
  <advance width="552"/>
  <unicode hex="095D"/>
  <outline>
    <contour>
      <point x="414" y="-232" type="move" name="blwm.virama"/>
    </contour>
    <contour>
      <point x="356" y="669" type="move" name="abvm.candra"/>
    </contour>
    <contour>
      <point x="469" y="669" type="move" name="abvm.e"/>
    </contour>
    <contour>
      <point x="390" y="-238" type="move" name="blwm.u"/>
    </contour>
    <component base="dvDDHA"/>
    <component base="dvNukta" xOffset="564" yOffset="59"/>
  </outline>
</glyph>
<glyph name="dvPHxA" format="1">
  <advance width="764"/>
  <unicode hex="095E"/>
  <outline>
    <contour>
      <point x="448" y="-5" type="move" name="blwm.virama"/>
    </contour>
    <contour>
      <point x="451" y="669" type="move" name="abvm"/>
    </contour>
    <contour>
      <point x="448" y="-20" type="move" name="blwm.u"/>
    </contour>
    <component base="dvPHA"/>
    <component base="dvNukta" xOffset="353" yOffset="266"/>
  </outline>
</glyph>
<glyph name="dvvLL" format="1">
  <advance width="740"/>
  <unicode hex="0961"/>
  <outline>
    <contour>
      <point x="563" y="669" type="move" name="abvm"/>
    </contour>
    <contour>
      <point x="544" y="78" type="line"/>
      <point x="537" y="85"/>
      <point x="532" y="88"/>
      <point x="532" y="101" type="curve" smooth="yes"/>
      <point x="532" y="146"/>
      <point x="663" y="180"/>
      <point x="663" y="265" type="curve" smooth="yes"/>
      <point x="663" y="371"/>
      <point x="550" y="451"/>
      <point x="447" y="451" type="curve" smooth="yes"/>
      <point x="337" y="451"/>
      <point x="284" y="374"/>
      <point x="284" y="289" type="curve" smooth="yes"/>
      <point x="284" y="277"/>
      <point x="285" y="266"/>
      <point x="287" y="254" type="curve"/>
      <point x="398" y="215" type="line"/>
      <point x="405" y="223" type="line"/>
      <point x="402" y="235"/>
      <point x="401" y="247"/>
      <point x="401" y="259" type="curve" smooth="yes"/>
      <point x="401" y="312"/>
      <point x="430" y="362"/>
      <point x="490" y="362" type="curve" smooth="yes"/>
      <point x="532" y="362"/>
      <point x="556" y="333"/>
      <point x="556" y="304" type="curve" smooth="yes"/>
      <point x="556" y="228"/>
      <point x="435" y="215"/>
      <point x="435" y="128" type="curve" smooth="yes"/>
      <point x="435" y="84"/>
      <point x="467" y="56"/>
      <point x="508" y="31" type="curve"/>
    </contour>
    <contour>
      <point x="740" y="-16" type="line"/>
      <point x="711" y="-42"/>
      <point x="659" y="-61"/>
      <point x="608" y="-61" type="curve" smooth="yes"/>
      <point x="572" y="-61"/>
      <point x="559" y="-47"/>
      <point x="559" y="-32" type="curve" smooth="yes"/>
      <point x="559" y="-6"/>
      <point x="589" y="21"/>
      <point x="694" y="21" type="curve" smooth="yes"/>
      <point x="694" y="34" type="line"/>
      <point x="616" y="100" type="line"/>
      <point x="613" y="100"/>
      <point x="611" y="100"/>
      <point x="608" y="100" type="curve"/>
      <point x="533" y="100"/>
      <point x="461" y="58"/>
      <point x="461" y="4" type="curve" smooth="yes"/>
      <point x="461" y="-64"/>
      <point x="550" y="-137"/>
      <point x="668" y="-137" type="curve" smooth="yes"/>
      <point x="717" y="-137"/>
      <point x="759" y="-121"/>
      <point x="800" y="-92" type="curve"/>
    </contour>
    <contour>
      <point x="327" y="388" type="line"/>
      <point x="285" y="427"/>
      <point x="233" y="451"/>
      <point x="178" y="451" type="curve" smooth="yes"/>
      <point x="98" y="451"/>
      <point x="25" y="398"/>
      <point x="25" y="299" type="curve" smooth="yes"/>
      <point x="25" y="175"/>
      <point x="130" y="64"/>
      <point x="297" y="-15" type="curve"/>
      <point x="345" y="34" type="line"/>
      <point x="231" y="85"/>
      <point x="151" y="158"/>
      <point x="151" y="254" type="curve" smooth="yes"/>
      <point x="151" y="315"/>
      <point x="190" y="346"/>
      <point x="235" y="346" type="curve" smooth="yes"/>
      <point x="256" y="346"/>
      <point x="279" y="339"/>
      <point x="298" y="325" type="curve"/>
    </contour>
    <contour>
      <point x="-10" y="557" type="line"/>
      <point x="803" y="557" type="line"/>
      <point x="803" y="573" type="line"/>
      <point x="776" y="604" type="line"/>
      <point x="730" y="669" type="line"/>
      <point x="-83" y="669" type="line"/>
      <point x="-83" y="653" type="line"/>
      <point x="-56" y="622" type="line"/>
    </contour>
    <contour>
      <point x="440" y="399" type="line"/>
      <point x="563" y="399" type="line"/>
      <point x="563" y="561" type="line"/>
      <point x="440" y="561" type="line"/>
    </contour>
  </outline>
</glyph>
<glyph name="danda" format="1">
  <advance width="606"/>
  <unicode hex="0964"/>
  <outline>
    <contour>
      <point x="394" y="600" type="line"/>
      <point x="330" y="638" type="line"/>
      <point x="284" y="674" type="line"/>
      <point x="261" y="674" type="line"/>
      <point x="261" y="69" type="line"/>
      <point x="325" y="31" type="line"/>
      <point x="371" y="-5" type="line"/>
      <point x="394" y="-5" type="line"/>
    </contour>
  </outline>
</glyph>
<glyph name="dvOne" format="1">
  <advance width="473"/>
  <unicode hex="0967"/>
  <outline>
    <contour>
      <point x="390" y="1" type="line"/>
      <point x="390" y="1"/>
      <point x="337" y="63"/>
      <point x="210" y="195" type="curve"/>
      <point x="396" y="324"/>
      <point x="441" y="384"/>
      <point x="441" y="448" type="curve" smooth="yes"/>
      <point x="441" y="562"/>
      <point x="321" y="678"/>
      <point x="218" y="678" type="curve" smooth="yes"/>
      <point x="121" y="678"/>
      <point x="66" y="609"/>
      <point x="66" y="539" type="curve" smooth="yes"/>
      <point x="66" y="463"/>
      <point x="125" y="406"/>
      <point x="239" y="340" type="curve"/>
      <point x="293" y="382" type="line"/>
      <point x="229" y="420"/>
      <point x="202" y="464"/>
      <point x="202" y="504" type="curve" smooth="yes"/>
      <point x="202" y="552"/>
      <point x="234" y="579"/>
      <point x="271" y="579" type="curve" smooth="yes"/>
      <point x="305" y="579"/>
      <point x="333" y="554"/>
      <point x="333" y="509" type="curve" smooth="yes"/>
      <point x="333" y="453"/>
      <point x="284" y="389"/>
      <point x="58" y="248" type="curve"/>
      <point x="213" y="74"/>
      <point x="301" y="-44"/>
      <point x="301" y="-44" type="curve"/>
    </contour>
  </outline>
</glyph>
<glyph name="dvTwo" format="1">
  <advance width="513"/>
  <unicode hex="0968"/>
  <outline>
    <contour>
      <point x="115" y="385" type="line"/>
      <point x="96" y="361"/>
      <point x="81" y="323"/>
      <point x="81" y="283" type="curve" smooth="yes"/>
      <point x="81" y="216"/>
      <point x="134" y="181"/>
      <point x="200" y="181" type="curve" smooth="yes"/>
      <point x="205" y="181"/>
      <point x="217" y="182"/>
      <point x="222" y="182" type="curve"/>
      <point x="347" y="-65" type="line"/>
      <point x="447" y="-38" type="line"/>
      <point x="296" y="204" type="line"/>
      <point x="440" y="275"/>
      <point x="488" y="323"/>
      <point x="488" y="408" type="curve" smooth="yes"/>
      <point x="488" y="521"/>
      <point x="360" y="680"/>
      <point x="230" y="680" type="curve" smooth="yes"/>
      <point x="132" y="680"/>
      <point x="60" y="647"/>
      <point x="34" y="631" type="curve"/>
      <point x="138" y="519" type="line"/>
      <point x="178" y="546"/>
      <point x="233" y="562"/>
      <point x="292" y="562" type="curve" smooth="yes"/>
      <point x="343" y="562"/>
      <point x="387" y="534"/>
      <point x="387" y="473" type="curve" smooth="yes"/>
      <point x="387" y="414"/>
      <point x="339" y="376"/>
      <point x="220" y="320" type="curve"/>
      <point x="177" y="390" type="line"/>
    </contour>
  </outline>
</glyph>
<glyph name="dvThree" format="1">
  <advance width="523"/>
  <unicode hex="0969"/>
  <outline>
    <contour>
      <point x="205" y="310" type="line"/>
      <point x="260" y="310"/>
      <point x="314" y="324"/>
      <point x="314" y="324" type="curve"/>
      <point x="327" y="316"/>
      <point x="357" y="289"/>
      <point x="357" y="252" type="curve" smooth="yes"/>
      <point x="357" y="203"/>
      <point x="319" y="167"/>
      <point x="244" y="167" type="curve" smooth="yes"/>
      <point x="229" y="167"/>
      <point x="212" y="168"/>
      <point x="193" y="171" type="curve"/>
      <point x="121" y="259" type="line"/>
      <point x="71" y="259" type="line"/>
      <point x="52" y="234"/>
      <point x="47" y="210"/>
      <point x="47" y="190" type="curve" smooth="yes"/>
      <point x="47" y="131"/>
      <point x="96" y="91"/>
      <point x="155" y="78" type="curve"/>
      <point x="265" y="-96" type="line"/>
      <point x="364" y="-61" type="line"/>
      <point x="242" y="76" type="line"/>
      <point x="251" y="75"/>
      <point x="260" y="75"/>
      <point x="269" y="75" type="curve" smooth="yes"/>
      <point x="407" y="75"/>
      <point x="480" y="139"/>
      <point x="480" y="221" type="curve" smooth="yes"/>
      <point x="480" y="300"/>
      <point x="425" y="346"/>
      <point x="378" y="363" type="curve"/>
      <point x="421" y="378"/>
      <point x="457" y="418"/>
      <point x="457" y="473" type="curve" smooth="yes"/>
      <point x="457" y="559"/>
      <point x="339" y="672"/>
      <point x="185" y="672" type="curve" smooth="yes"/>
      <point x="149" y="672"/>
      <point x="95" y="665"/>
      <point x="60" y="647" type="curve"/>
      <point x="135" y="525" type="line"/>
      <point x="167" y="547"/>
      <point x="219" y="565"/>
      <point x="270" y="565" type="curve" smooth="yes"/>
      <point x="314" y="565"/>
      <point x="347" y="545"/>
      <point x="347" y="511" type="curve" smooth="yes"/>
      <point x="347" y="474"/>
      <point x="326" y="425"/>
      <point x="160" y="422" type="curve"/>
    </contour>
  </outline>
</glyph>
<glyph name="dvFour" format="1">
  <advance width="573"/>
  <unicode hex="096A"/>
  <outline>
    <contour>
      <point x="13" y="613" type="line"/>
      <point x="231" y="383" type="line" smooth="yes"/>
      <point x="325" y="283"/>
      <point x="350" y="247"/>
      <point x="350" y="194" type="curve" smooth="yes"/>
      <point x="350" y="150"/>
      <point x="317" y="114"/>
      <point x="270" y="114" type="curve" smooth="yes"/>
      <point x="228" y="114"/>
      <point x="209" y="144"/>
      <point x="209" y="168" type="curve" smooth="yes"/>
      <point x="209" y="199"/>
      <point x="240" y="234"/>
      <point x="309" y="305" type="curve" smooth="yes"/>
      <point x="369" y="366"/>
      <point x="457" y="455"/>
      <point x="578" y="591" type="curve"/>
      <point x="478" y="671" type="line"/>
      <point x="366" y="544"/>
      <point x="282" y="460"/>
      <point x="222" y="400" type="curve" smooth="yes"/>
      <point x="133" y="311"/>
      <point x="97" y="274"/>
      <point x="97" y="223" type="curve" smooth="yes"/>
      <point x="97" y="173"/>
      <point x="130" y="128"/>
      <point x="173" y="91" type="curve" smooth="yes"/>
      <point x="215" y="54"/>
      <point x="264" y="26"/>
      <point x="324" y="26" type="curve" smooth="yes"/>
      <point x="403" y="26"/>
      <point x="478" y="81"/>
      <point x="478" y="158" type="curve" smooth="yes"/>
      <point x="478" y="228"/>
      <point x="421" y="293"/>
      <point x="288" y="438" type="curve" smooth="yes"/>
      <point x="77" y="667" type="line"/>
    </contour>
  </outline>
</glyph>
<glyph name="dvFive" format="1">
  <advance width="593"/>
  <unicode hex="096B"/>
  <outline>
    <contour>
      <point x="268" y="673" type="line"/>
      <point x="96" y="496" type="line" smooth="yes"/>
      <point x="55" y="454"/>
      <point x="40" y="422"/>
      <point x="40" y="384" type="curve" smooth="yes"/>
      <point x="40" y="321"/>
      <point x="66" y="282"/>
      <point x="144" y="222" type="curve" smooth="yes"/>
      <point x="219" y="164"/>
      <point x="267" y="147"/>
      <point x="324" y="147" type="curve" smooth="yes"/>
      <point x="354" y="147"/>
      <point x="381" y="153"/>
      <point x="406" y="165" type="curve"/>
      <point x="532" y="-57" type="line"/>
      <point x="634" y="-25" type="line"/>
      <point x="479" y="205" type="line"/>
      <point x="505" y="228"/>
      <point x="519" y="255"/>
      <point x="519" y="280" type="curve" smooth="yes"/>
      <point x="519" y="317"/>
      <point x="498" y="347"/>
      <point x="385" y="400" type="curve"/>
      <point x="324" y="361" type="line"/>
      <point x="348" y="292" type="line"/>
      <point x="324" y="267"/>
      <point x="294" y="246"/>
      <point x="248" y="246" type="curve" smooth="yes"/>
      <point x="193" y="246"/>
      <point x="155" y="282"/>
      <point x="155" y="325" type="curve" smooth="yes"/>
      <point x="155" y="350"/>
      <point x="161" y="373"/>
      <point x="206" y="418" type="curve" smooth="yes"/>
      <point x="385" y="597" type="line"/>
    </contour>
  </outline>
</glyph>
<glyph name="dvSix" format="1">
  <advance width="553"/>
  <unicode hex="096C"/>
  <outline>
    <contour>
      <point x="377" y="451" type="line"/>
      <point x="273" y="429"/>
      <point x="223" y="413"/>
      <point x="223" y="413" type="curve"/>
      <point x="194" y="436"/>
      <point x="170" y="455"/>
      <point x="170" y="488" type="curve" smooth="yes"/>
      <point x="170" y="508"/>
      <point x="190" y="553"/>
      <point x="300" y="553" type="curve" smooth="yes"/>
      <point x="333" y="553"/>
      <point x="386" y="550"/>
      <point x="440" y="543" type="curve"/>
      <point x="415" y="656" type="line"/>
      <point x="360" y="665"/>
      <point x="312" y="668"/>
      <point x="272" y="668" type="curve" smooth="yes"/>
      <point x="114" y="668"/>
      <point x="52" y="609"/>
      <point x="52" y="552" type="curve" smooth="yes"/>
      <point x="52" y="504"/>
      <point x="71" y="448"/>
      <point x="154" y="385" type="curve"/>
      <point x="94" y="357"/>
      <point x="70" y="319"/>
      <point x="70" y="275" type="curve" smooth="yes"/>
      <point x="70" y="184"/>
      <point x="198" y="68"/>
      <point x="340" y="68" type="curve" smooth="yes"/>
      <point x="375" y="68"/>
      <point x="396" y="71"/>
      <point x="410" y="76" type="curve"/>
      <point x="480" y="-89" type="line"/>
      <point x="585" y="-56" type="line"/>
      <point x="477" y="103" type="line"/>
      <point x="509" y="122"/>
      <point x="518" y="148"/>
      <point x="518" y="173" type="curve" smooth="yes"/>
      <point x="518" y="217"/>
      <point x="472" y="249"/>
      <point x="402" y="269" type="curve"/>
      <point x="340" y="230" type="line"/>
      <point x="360" y="180" type="line"/>
      <point x="342" y="170"/>
      <point x="314" y="162"/>
      <point x="281" y="162" type="curve" smooth="yes"/>
      <point x="233" y="162"/>
      <point x="187" y="200"/>
      <point x="187" y="228" type="curve" smooth="yes"/>
      <point x="187" y="259"/>
      <point x="217" y="305"/>
      <point x="428" y="343" type="curve"/>
    </contour>
  </outline>
</glyph>
<glyph name="dvSeven" format="1">
  <advance width="653"/>
  <unicode hex="096D"/>
  <outline>
    <contour>
      <point x="632" y="339" type="curve" smooth="yes"/>
      <point x="632" y="524"/>
      <point x="507" y="628"/>
      <point x="394" y="628" type="curve" smooth="yes"/>
      <point x="317" y="628"/>
      <point x="245" y="570"/>
      <point x="245" y="480" type="curve" smooth="yes"/>
      <point x="245" y="375"/>
      <point x="323" y="274"/>
      <point x="526" y="255" type="curve"/>
      <point x="554" y="308" type="line"/>
      <point x="404" y="343"/>
      <point x="378" y="405"/>
      <point x="378" y="456" type="curve" smooth="yes"/>
      <point x="378" y="509"/>
      <point x="409" y="534"/>
      <point x="443" y="534" type="curve" smooth="yes"/>
      <point x="483" y="534"/>
      <point x="525" y="488"/>
      <point x="525" y="376" type="curve" smooth="yes"/>
      <point x="525" y="274"/>
      <point x="492" y="163"/>
      <point x="374" y="163" type="curve" smooth="yes"/>
      <point x="233" y="163"/>
      <point x="122" y="352"/>
      <point x="84" y="685" type="curve"/>
      <point x="7" y="668" type="line"/>
      <point x="55" y="192"/>
      <point x="224" y="47"/>
      <point x="395" y="47" type="curve" smooth="yes"/>
      <point x="542" y="47"/>
      <point x="632" y="164"/>
    </contour>
  </outline>
</glyph>
<glyph name="dvEight" format="1">
  <advance width="550"/>
  <unicode hex="096E"/>
  <outline>
    <contour>
      <point x="474" y="267" type="line"/>
      <point x="408" y="167"/>
      <point x="318" y="135"/>
      <point x="261" y="135" type="curve" smooth="yes"/>
      <point x="198" y="135"/>
      <point x="159" y="166"/>
      <point x="159" y="201" type="curve" smooth="yes"/>
      <point x="159" y="227"/>
      <point x="164" y="238"/>
      <point x="245" y="333" type="curve" smooth="yes"/>
      <point x="388" y="498"/>
      <point x="424" y="557"/>
      <point x="424" y="557" type="curve"/>
      <point x="349" y="680" type="line"/>
      <point x="349" y="680"/>
      <point x="287" y="589"/>
      <point x="118" y="395" type="curve" smooth="yes"/>
      <point x="51" y="319"/>
      <point x="41" y="298"/>
      <point x="41" y="253" type="curve" smooth="yes"/>
      <point x="41" y="130"/>
      <point x="214" y="42"/>
      <point x="316" y="42" type="curve" smooth="yes"/>
      <point x="399" y="42"/>
      <point x="490" y="66"/>
      <point x="554" y="149" type="curve"/>
    </contour>
  </outline>
</glyph>
<glyph name="dvNine" format="1">
  <advance width="513"/>
  <unicode hex="096F"/>
  <outline>
    <contour>
      <point x="36" y="514" type="curve" smooth="yes"/>
      <point x="36" y="454"/>
      <point x="48" y="409"/>
      <point x="153" y="301" type="curve" smooth="yes"/>
      <point x="299" y="150" type="line" smooth="yes"/>
      <point x="326" y="122"/>
      <point x="350" y="96"/>
      <point x="350" y="65" type="curve" smooth="yes"/>
      <point x="350" y="22"/>
      <point x="321" y="-3"/>
      <point x="297" y="-23" type="curve"/>
      <point x="412" y="-91" type="line"/>
      <point x="443" y="-70"/>
      <point x="474" y="-32"/>
      <point x="474" y="17" type="curve" smooth="yes"/>
      <point x="474" y="59"/>
      <point x="452" y="95"/>
      <point x="411" y="138" type="curve" smooth="yes"/>
      <point x="205" y="358" type="line" smooth="yes"/>
      <point x="193" y="370"/>
      <point x="167" y="402"/>
      <point x="167" y="449" type="curve" smooth="yes"/>
      <point x="167" y="510"/>
      <point x="218" y="572"/>
      <point x="288" y="572" type="curve" smooth="yes"/>
      <point x="319" y="572"/>
      <point x="344" y="555"/>
      <point x="344" y="512" type="curve" smooth="yes"/>
      <point x="344" y="434"/>
      <point x="264" y="371"/>
      <point x="201" y="362" type="curve"/>
      <point x="253" y="294" type="line"/>
      <point x="385" y="296"/>
      <point x="467" y="370"/>
      <point x="467" y="471" type="curve" smooth="yes"/>
      <point x="467" y="576"/>
      <point x="346" y="677"/>
      <point x="225" y="677" type="curve" smooth="yes"/>
      <point x="117" y="677"/>
      <point x="36" y="607"/>
    </contour>
  </outline>
</glyph>
<glyph name="dvGlottalstop" format="1">
  <advance width="635"/>
  <unicode hex="097D"/>
  <outline>
    <contour>
      <point x="217" y="336" type="curve"/>
      <point x="217" y="51" type="line"/>
      <point x="264" y="23" type="line"/>
      <point x="298" y="-4" type="line"/>
      <point x="315" y="-4" type="line"/>
      <point x="315" y="255" type="line" smooth="yes"/>
      <point x="315" y="304"/>
      <point x="321" y="313"/>
      <point x="357" y="343" type="curve" smooth="yes"/>
      <point x="498" y="462"/>
      <point x="502" y="494"/>
      <point x="502" y="535" type="curve" smooth="yes"/>
      <point x="502" y="648"/>
      <point x="371" y="741"/>
      <point x="258" y="741" type="curve" smooth="yes"/>
      <point x="201" y="741"/>
      <point x="146" y="726"/>
      <point x="101" y="696" type="curve"/>
      <point x="196" y="578" type="line"/>
      <point x="238" y="610"/>
      <point x="293" y="631"/>
      <point x="339" y="631" type="curve" smooth="yes"/>
      <point x="382" y="631"/>
      <point x="404" y="611"/>
      <point x="404" y="588" type="curve" smooth="yes"/>
      <point x="404" y="564"/>
      <point x="388" y="533"/>
      <point x="263" y="429" type="curve" smooth="yes"/>
      <point x="235" y="405"/>
      <point x="217" y="383"/>
    </contour>
  </outline>
</glyph>
<glyph name="zerowidthnonjoiner" format="1">
  <advance width="0"/>
  <unicode hex="200C"/>
  <outline>
    <contour>
      <point x="-24" y="794" type="line"/>
      <point x="-24" y="-346" type="line"/>
      <point x="27" y="-346" type="line"/>
      <point x="27" y="794" type="line"/>
    </contour>
  </outline>
</glyph>
<glyph name="endash" format="1">
  <advance width="559"/>
  <unicode hex="2013"/>
  <outline>
    <contour>
      <point x="560" y="295" type="line"/>
      <point x="560" y="311" type="line"/>
      <point x="533" y="342" type="line"/>
      <point x="487" y="407" type="line"/>
      <point x="0" y="407" type="line"/>
      <point x="0" y="391" type="line"/>
      <point x="27" y="360" type="line"/>
      <point x="73" y="295" type="line"/>
    </contour>
  </outline>
</glyph>
<glyph name="emdash" format="1">
  <advance width="810"/>
  <unicode hex="2014"/>
  <outline>
    <contour>
      <point x="810" y="295" type="line"/>
      <point x="810" y="311" type="line"/>
      <point x="783" y="342" type="line"/>
      <point x="737" y="407" type="line"/>
      <point x="0" y="407" type="line"/>
      <point x="0" y="391" type="line"/>
      <point x="27" y="360" type="line"/>
      <point x="73" y="295" type="line"/>
    </contour>
  </outline>
</glyph>
<glyph name="quoteleft" format="1">
  <advance width="342"/>
  <unicode hex="2018"/>
  <outline>
    <contour>
      <point x="190" y="804" type="line"/>
      <point x="85" y="694"/>
      <point x="32" y="619"/>
      <point x="32" y="563" type="curve" smooth="yes"/>
      <point x="32" y="533"/>
      <point x="53" y="508"/>
      <point x="83" y="484" type="curve" smooth="yes"/>
      <point x="123" y="452" type="line"/>
      <point x="215" y="553" type="line"/>
      <point x="175" y="585" type="line" smooth="yes"/>
      <point x="156" y="600"/>
      <point x="151" y="609"/>
      <point x="151" y="624" type="curve" smooth="yes"/>
      <point x="151" y="652"/>
      <point x="175" y="701"/>
      <point x="249" y="772" type="curve"/>
    </contour>
  </outline>
</glyph>
<glyph name="quoteright" format="1">
  <advance width="342"/>
  <unicode hex="2019"/>
  <outline>
    <contour>
      <point x="154" y="452" type="line"/>
      <point x="259" y="562"/>
      <point x="312" y="637"/>
      <point x="312" y="693" type="curve" smooth="yes"/>
      <point x="312" y="723"/>
      <point x="291" y="748"/>
      <point x="261" y="772" type="curve" smooth="yes"/>
      <point x="221" y="804" type="line"/>
      <point x="129" y="703" type="line"/>
      <point x="169" y="671" type="line" smooth="yes"/>
      <point x="188" y="656"/>
      <point x="193" y="647"/>
      <point x="193" y="632" type="curve" smooth="yes"/>
      <point x="193" y="604"/>
      <point x="169" y="555"/>
      <point x="95" y="484" type="curve"/>
    </contour>
  </outline>
</glyph>
<glyph name="quotedblleft" format="1">
  <advance width="562"/>
  <unicode hex="201C"/>
  <outline>
    <contour>
      <point x="189" y="804" type="line"/>
      <point x="84" y="694"/>
      <point x="31" y="619"/>
      <point x="31" y="563" type="curve" smooth="yes"/>
      <point x="31" y="533"/>
      <point x="52" y="508"/>
      <point x="82" y="484" type="curve" smooth="yes"/>
      <point x="122" y="452" type="line"/>
      <point x="214" y="553" type="line"/>
      <point x="174" y="585" type="line" smooth="yes"/>
      <point x="155" y="600"/>
      <point x="150" y="609"/>
      <point x="150" y="624" type="curve" smooth="yes"/>
      <point x="150" y="652"/>
      <point x="174" y="701"/>
      <point x="248" y="772" type="curve"/>
    </contour>
    <contour>
      <point x="408" y="804" type="line"/>
      <point x="303" y="694"/>
      <point x="250" y="619"/>
      <point x="250" y="563" type="curve" smooth="yes"/>
      <point x="250" y="533"/>
      <point x="271" y="508"/>
      <point x="301" y="484" type="curve" smooth="yes"/>
      <point x="341" y="452" type="line"/>
      <point x="433" y="553" type="line"/>
      <point x="393" y="585" type="line" smooth="yes"/>
      <point x="374" y="600"/>
      <point x="369" y="609"/>
      <point x="369" y="624" type="curve" smooth="yes"/>
      <point x="369" y="652"/>
      <point x="393" y="701"/>
      <point x="467" y="772" type="curve"/>
    </contour>
  </outline>
</glyph>
<glyph name="quotedblright" format="1">
  <advance width="562"/>
  <unicode hex="201D"/>
  <outline>
    <contour>
      <point x="374" y="452" type="line"/>
      <point x="479" y="562"/>
      <point x="532" y="637"/>
      <point x="532" y="693" type="curve" smooth="yes"/>
      <point x="532" y="723"/>
      <point x="511" y="748"/>
      <point x="481" y="772" type="curve" smooth="yes"/>
      <point x="441" y="804" type="line"/>
      <point x="349" y="703" type="line"/>
      <point x="389" y="671" type="line" smooth="yes"/>
      <point x="408" y="656"/>
      <point x="413" y="647"/>
      <point x="413" y="632" type="curve" smooth="yes"/>
      <point x="413" y="604"/>
      <point x="389" y="555"/>
      <point x="315" y="484" type="curve"/>
    </contour>
    <contour>
      <point x="155" y="452" type="line"/>
      <point x="260" y="562"/>
      <point x="313" y="637"/>
      <point x="313" y="693" type="curve" smooth="yes"/>
      <point x="313" y="723"/>
      <point x="292" y="748"/>
      <point x="262" y="772" type="curve" smooth="yes"/>
      <point x="222" y="804" type="line"/>
      <point x="130" y="703" type="line"/>
      <point x="170" y="671" type="line" smooth="yes"/>
      <point x="189" y="656"/>
      <point x="194" y="647"/>
      <point x="194" y="632" type="curve" smooth="yes"/>
      <point x="194" y="604"/>
      <point x="170" y="555"/>
      <point x="96" y="484" type="curve"/>
    </contour>
  </outline>
</glyph>
<glyph name="daggerdbl" format="1">
  <advance width="548"/>
  <unicode hex="2021"/>
  <outline>
    <contour>
      <point x="317" y="-185" type="line"/>
      <point x="272" y="-164" type="line"/>
      <point x="207" y="-139" type="line"/>
      <point x="212" y="-85"/>
      <point x="214" y="-21"/>
      <point x="215" y="33" type="curve"/>
      <point x="76" y="28" type="line"/>
      <point x="30" y="89" type="line"/>
      <point x="3" y="120" type="line"/>
      <point x="3" y="136" type="line"/>
      <point x="215" y="131" type="line"/>
      <point x="217" y="240"/>
      <point x="218" y="346"/>
      <point x="215" y="452" type="curve"/>
      <point x="81" y="447" type="line"/>
      <point x="35" y="508" type="line"/>
      <point x="8" y="539" type="line"/>
      <point x="8" y="555" type="line"/>
      <point x="215" y="550" type="line"/>
      <point x="210" y="679"/>
      <point x="203" y="772"/>
      <point x="203" y="772" type="curve"/>
      <point x="226" y="772" type="line"/>
      <point x="271" y="751" type="line"/>
      <point x="336" y="726" type="line"/>
      <point x="331" y="672"/>
      <point x="329" y="604"/>
      <point x="328" y="550" type="curve"/>
      <point x="467" y="555" type="line"/>
      <point x="513" y="494" type="line"/>
      <point x="540" y="463" type="line"/>
      <point x="540" y="447" type="line"/>
      <point x="328" y="452" type="line"/>
      <point x="326" y="342"/>
      <point x="325" y="236"/>
      <point x="328" y="131" type="curve"/>
      <point x="462" y="136" type="line"/>
      <point x="508" y="75" type="line"/>
      <point x="535" y="44" type="line"/>
      <point x="535" y="28" type="line"/>
      <point x="328" y="33" type="line"/>
      <point x="333" y="-96"/>
      <point x="340" y="-185"/>
      <point x="340" y="-185" type="curve"/>
    </contour>
  </outline>
</glyph>
<glyph name="bullet" format="1">
  <advance width="463"/>
  <unicode hex="2022"/>
  <outline>
    <contour>
      <point x="98" y="350" type="curve" smooth="yes"/>
      <point x="98" y="423"/>
      <point x="154" y="481"/>
      <point x="231" y="481" type="curve" smooth="yes"/>
      <point x="315" y="481"/>
      <point x="365" y="423"/>
      <point x="365" y="350" type="curve" smooth="yes"/>
      <point x="365" y="277"/>
      <point x="309" y="219"/>
      <point x="232" y="219" type="curve" smooth="yes"/>
      <point x="148" y="219"/>
      <point x="98" y="277"/>
    </contour>
  </outline>
</glyph>
<glyph name="guilsinglleft" format="1">
  <advance width="462"/>
  <unicode hex="2039"/>
  <outline>
    <contour>
      <point x="281" y="335" type="line"/>
      <point x="366" y="550" type="line"/>
      <point x="320" y="565" type="line"/>
      <point x="154" y="334" type="line"/>
      <point x="320" y="105" type="line"/>
      <point x="366" y="120" type="line"/>
    </contour>
  </outline>
</glyph>
<glyph name="guilsinglright" format="1">
  <advance width="475"/>
  <unicode hex="203A"/>
  <outline>
    <contour>
      <point x="269" y="335" type="line"/>
      <point x="184" y="550" type="line"/>
      <point x="230" y="565" type="line"/>
      <point x="396" y="336" type="line"/>
      <point x="230" y="105" type="line"/>
      <point x="184" y="120" type="line"/>
    </contour>
  </outline>
</glyph>
<glyph name="rupee" format="1">
  <advance width="1019"/>
  <unicode hex="20A8"/>
  <outline>
    <contour>
      <point x="588" y="51" type="line"/>
      <point x="425" y="323" type="line"/>
      <point x="275" y="322" type="line"/>
      <point x="430" y="37" type="line"/>
      <point x="588" y="37" type="line"/>
    </contour>
    <contour>
      <point x="557" y="486" type="curve" smooth="yes"/>
      <point x="557" y="598"/>
      <point x="475" y="669"/>
      <point x="310" y="669" type="curve" smooth="yes"/>
      <point x="255" y="669" type="line"/>
      <point x="255" y="613" type="line"/>
      <point x="277" y="613" type="line" smooth="yes"/>
      <point x="368" y="613"/>
      <point x="412" y="566"/>
      <point x="412" y="487" type="curve" smooth="yes"/>
      <point x="412" y="406"/>
      <point x="368" y="359"/>
      <point x="277" y="359" type="curve" smooth="yes"/>
      <point x="255" y="359" type="line"/>
      <point x="255" y="303" type="line"/>
      <point x="310" y="303" type="line" smooth="yes"/>
      <point x="475" y="303"/>
      <point x="557" y="374"/>
    </contour>
    <contour>
      <point x="831" y="131" type="curve" smooth="yes"/>
      <point x="831" y="93"/>
      <point x="796" y="77"/>
      <point x="759" y="77" type="curve" smooth="yes"/>
      <point x="748" y="77"/>
      <point x="738" y="78"/>
      <point x="728" y="80" type="curve"/>
      <point x="641" y="185" type="line"/>
      <point x="616" y="185" type="line"/>
      <point x="616" y="62" type="line"/>
      <point x="651" y="46"/>
      <point x="705" y="32"/>
      <point x="773" y="32" type="curve" smooth="yes"/>
      <point x="864" y="32"/>
      <point x="948" y="81"/>
      <point x="948" y="168" type="curve" smooth="yes"/>
      <point x="948" y="243"/>
      <point x="902" y="279"/>
      <point x="832" y="311" type="curve" smooth="yes"/>
      <point x="765" y="342"/>
      <point x="725" y="365"/>
      <point x="725" y="399" type="curve" smooth="yes"/>
      <point x="725" y="438"/>
      <point x="766" y="448"/>
      <point x="798" y="448" type="curve" smooth="yes"/>
      <point x="805" y="448"/>
      <point x="808" y="448"/>
      <point x="818" y="447" type="curve"/>
      <point x="896" y="346" type="line"/>
      <point x="924" y="346" type="line"/>
      <point x="924" y="465" type="line"/>
      <point x="891" y="480"/>
      <point x="844" y="495"/>
      <point x="782" y="495" type="curve" smooth="yes"/>
      <point x="680" y="495"/>
      <point x="611" y="436"/>
      <point x="611" y="359" type="curve" smooth="yes"/>
      <point x="611" y="291"/>
      <point x="658" y="249"/>
      <point x="726" y="219" type="curve" smooth="yes"/>
      <point x="806" y="183"/>
      <point x="831" y="169"/>
    </contour>
    <contour>
      <point x="265" y="109" type="line"/>
      <point x="265" y="669" type="line"/>
      <point x="63" y="669" type="line"/>
      <point x="63" y="645" type="line"/>
      <point x="100" y="619" type="line"/>
      <point x="125" y="597" type="line"/>
      <point x="125" y="109" type="line"/>
      <point x="100" y="87" type="line"/>
      <point x="63" y="61" type="line"/>
      <point x="63" y="37" type="line"/>
      <point x="327" y="37" type="line"/>
      <point x="327" y="61" type="line"/>
      <point x="290" y="87" type="line"/>
    </contour>
  </outline>
</glyph>
<glyph name="indianrupee" format="1">
  <advance width="525"/>
  <unicode hex="20B9"/>
  <outline>
    <contour>
      <point x="431" y="30" type="line"/>
      <point x="194" y="272" type="line"/>
      <point x="194" y="276" type="line"/>
      <point x="314" y="277"/>
      <point x="390" y="345"/>
      <point x="404" y="419" type="curve"/>
      <point x="404" y="419"/>
      <point x="419" y="418"/>
      <point x="462" y="418" type="curve"/>
      <point x="503" y="477" type="line"/>
      <point x="525" y="504" type="line"/>
      <point x="525" y="517" type="line"/>
      <point x="429" y="517"/>
      <point x="392" y="515"/>
      <point x="392" y="515" type="curve"/>
      <point x="383" y="537"/>
      <point x="361" y="559"/>
      <point x="336" y="571" type="curve"/>
      <point x="336" y="575" type="line"/>
      <point x="464" y="575" type="line"/>
      <point x="503" y="629" type="line"/>
      <point x="525" y="656" type="line"/>
      <point x="525" y="669" type="line"/>
      <point x="100" y="669" type="line"/>
      <point x="61" y="615" type="line"/>
      <point x="39" y="588" type="line"/>
      <point x="39" y="575" type="line"/>
      <point x="142" y="575" type="line" smooth="yes"/>
      <point x="215" y="575"/>
      <point x="247" y="542"/>
      <point x="258" y="512" type="curve"/>
      <point x="258" y="512"/>
      <point x="157" y="517"/>
      <point x="103" y="517" type="curve"/>
      <point x="61" y="457" type="line"/>
      <point x="39" y="430" type="line"/>
      <point x="39" y="417" type="line"/>
      <point x="171" y="417"/>
      <point x="259" y="422"/>
      <point x="259" y="422" type="curve"/>
      <point x="244" y="377"/>
      <point x="203" y="346"/>
      <point x="106" y="346" type="curve"/>
      <point x="50" y="260" type="line"/>
      <point x="275" y="18" type="line"/>
      <point x="431" y="18" type="line"/>
    </contour>
  </outline>
</glyph>
<glyph name="minus" format="1">
  <advance width="610"/>
  <unicode hex="2212"/>
  <outline>
    <contour>
      <point x="580" y="288" type="line"/>
      <point x="580" y="304" type="line"/>
      <point x="553" y="335" type="line"/>
      <point x="507" y="400" type="line"/>
      <point x="30" y="400" type="line"/>
      <point x="30" y="384" type="line"/>
      <point x="57" y="353" type="line"/>
      <point x="103" y="288" type="line"/>
    </contour>
  </outline>
</glyph>
<glyph name="approxequal" format="1">
  <advance width="640"/>
  <unicode hex="2248"/>
  <outline>
    <contour>
      <point x="98" y="400" type="line"/>
      <point x="113" y="415"/>
      <point x="135" y="431"/>
      <point x="178" y="431" type="curve" smooth="yes"/>
      <point x="259" y="431"/>
      <point x="347" y="373"/>
      <point x="444" y="373" type="curve" smooth="yes"/>
      <point x="515" y="373"/>
      <point x="555" y="435"/>
      <point x="579" y="481" type="curve"/>
      <point x="542" y="514" type="line"/>
      <point x="519" y="491"/>
      <point x="501" y="483"/>
      <point x="471" y="483" type="curve" smooth="yes"/>
      <point x="385" y="483"/>
      <point x="289" y="542"/>
      <point x="208" y="542" type="curve" smooth="yes"/>
      <point x="157" y="542"/>
      <point x="107" y="515"/>
      <point x="61" y="431" type="curve"/>
    </contour>
    <contour>
      <point x="98" y="172" type="line"/>
      <point x="113" y="187"/>
      <point x="135" y="203"/>
      <point x="178" y="203" type="curve" smooth="yes"/>
      <point x="259" y="203"/>
      <point x="347" y="145"/>
      <point x="444" y="145" type="curve" smooth="yes"/>
      <point x="515" y="145"/>
      <point x="555" y="207"/>
      <point x="579" y="253" type="curve"/>
      <point x="542" y="286" type="line"/>
      <point x="519" y="263"/>
      <point x="501" y="255"/>
      <point x="471" y="255" type="curve" smooth="yes"/>
      <point x="385" y="255"/>
      <point x="289" y="314"/>
      <point x="208" y="314" type="curve" smooth="yes"/>
      <point x="157" y="314"/>
      <point x="107" y="287"/>
      <point x="61" y="203" type="curve"/>
    </contour>
  </outline>
</glyph>
<glyph name="lessequal" format="1">
  <advance width="600"/>
  <unicode hex="2264"/>
  <outline>
    <contour>
      <point x="184" y="420" type="line"/>
      <point x="559" y="553" type="line"/>
      <point x="470" y="667" type="line"/>
      <point x="40" y="500" type="line"/>
      <point x="117" y="367" type="line"/>
      <point x="501" y="228" type="line"/>
      <point x="534" y="293" type="line"/>
      <point x="184" y="416" type="line"/>
    </contour>
    <contour>
      <point x="577" y="74" type="line"/>
      <point x="577" y="90" type="line"/>
      <point x="550" y="121" type="line"/>
      <point x="504" y="186" type="line"/>
      <point x="45" y="186" type="line"/>
      <point x="45" y="170" type="line"/>
      <point x="72" y="139" type="line"/>
      <point x="118" y="74" type="line"/>
    </contour>
  </outline>
</glyph>
<glyph name="greaterequal" format="1">
  <advance width="600"/>
  <unicode hex="2265"/>
  <outline>
    <contour>
      <point x="415" y="466" type="line"/>
      <point x="40" y="333" type="line"/>
      <point x="129" y="219" type="line"/>
      <point x="559" y="386" type="line"/>
      <point x="482" y="519" type="line"/>
      <point x="98" y="658" type="line"/>
      <point x="65" y="593" type="line"/>
      <point x="415" y="470" type="line"/>
    </contour>
    <contour>
      <point x="577" y="65" type="line"/>
      <point x="577" y="81" type="line"/>
      <point x="550" y="112" type="line"/>
      <point x="504" y="177" type="line"/>
      <point x="45" y="177" type="line"/>
      <point x="45" y="161" type="line"/>
      <point x="72" y="130" type="line"/>
      <point x="118" y="65" type="line"/>
    </contour>
  </outline>
</glyph>
